<?xml version="1.0" encoding="UTF-8"?>
<svg version="1.1" xmlns="http://www.w3.org/2000/svg" width="133" height="187">
<path d="M0 0 C43.89 0 87.78 0 133 0 C133 61.71 133 123.42 133 187 C89.11 187 45.22 187 0 187 C0 125.29 0 63.58 0 0 Z " fill="#13608E" transform="translate(0,0)"/>
<path d="M0 0 C4.06243957 -0.05819473 8.12477146 -0.09366215 12.1875 -0.125 C13.33798828 -0.14175781 14.48847656 -0.15851562 15.67382812 -0.17578125 C16.78564453 -0.18222656 17.89746094 -0.18867188 19.04296875 -0.1953125 C20.06414795 -0.20578613 21.08532715 -0.21625977 22.13745117 -0.22705078 C25.18434454 0.01462178 27.28945576 0.6001002 30 2 C32.01953125 4.8203125 32.01953125 4.8203125 33.8125 8.125 C34.41707031 9.22070312 35.02164063 10.31640625 35.64453125 11.4453125 C36.31548828 12.70988281 36.31548828 12.70988281 37 14 C38.98 13.67 40.96 13.34 43 13 C41.13503124 19.41367307 38.84676871 27.15323129 34 32 C32.5086609 32.01662231 31.01639195 31.963192 29.52734375 31.87890625 C28.62822266 31.83056641 27.72910156 31.78222656 26.80273438 31.73242188 C25.85720703 31.67634766 24.91167969 31.62027344 23.9375 31.5625 C22.98810547 31.51029297 22.03871094 31.45808594 21.06054688 31.40429688 C18.70673048 31.27418642 16.35329301 31.13920888 14 31 C14 30.34 14 29.68 14 29 C15.32 28.34 16.64 27.68 18 27 C16.44126116 22.77941483 14.40234418 18.90413212 12.1875 15 C11.85685547 14.39671875 11.52621094 13.7934375 11.18554688 13.171875 C8.91961722 9.17061726 6.40020683 6.15381503 3 3 C1.99666855 2.00334259 0.99593446 1.00404908 0 0 Z " fill="#F8FAFB" transform="translate(56,13)"/>
<path d="M0 0 C0.33 0 0.66 0 1 0 C1 2.31 1 4.62 1 7 C5.06275446 6.86076952 9.12512857 6.71246082 13.1875 6.5625 C14.33798828 6.52318359 15.48847656 6.48386719 16.67382812 6.44335938 C18.34155273 6.38051758 18.34155273 6.38051758 20.04296875 6.31640625 C21.06414795 6.27974854 22.08532715 6.24309082 23.13745117 6.20532227 C25.83828463 6.01159937 28.36166128 5.59548047 31 5 C29.30989827 9.67533577 26.94229363 13.87642259 24.5 18.1875 C24.09652344 18.91130859 23.69304687 19.63511719 23.27734375 20.38085938 C22.88675781 21.07373047 22.49617188 21.76660156 22.09375 22.48046875 C21.73990234 23.10848389 21.38605469 23.73649902 21.02148438 24.38354492 C20 26 20 26 18 28 C15.0906442 28.14517744 12.280054 28.18630796 9.375 28.125 C8.57320312 28.11597656 7.77140625 28.10695313 6.9453125 28.09765625 C4.96341477 28.07406223 2.98167019 28.03819065 1 28 C1 30.31 1 32.62 1 35 C-2.48420592 31.8296865 -4.86503346 28.26911027 -7.25 24.25 C-7.61351563 23.64800781 -7.97703125 23.04601562 -8.3515625 22.42578125 C-9.23953297 20.95361969 -10.12049158 19.4772326 -11 18 C-3.11808118 4.31734317 -3.11808118 4.31734317 0 0 Z " fill="#FCFCFD" transform="translate(80,70)"/>
<path d="M0 0 C2.30859375 0.33203125 2.30859375 0.33203125 3.96875 2.203125 C4.43152344 3.05003906 4.89429687 3.89695313 5.37109375 4.76953125 C5.86996094 5.67316406 6.36882813 6.57679687 6.8828125 7.5078125 C8.8424464 11.38949828 10.65693015 15.30974459 12.30859375 19.33203125 C10.32859375 18.67203125 8.34859375 18.01203125 6.30859375 17.33203125 C4.48903717 20.74498483 2.67919403 24.16299652 0.87109375 27.58203125 C0.35482422 28.55011719 -0.16144531 29.51820312 -0.69335938 30.515625 C-1.18642578 31.45019531 -1.67949219 32.38476562 -2.1875 33.34765625 C-2.64310303 34.20649414 -3.09870605 35.06533203 -3.56811523 35.95019531 C-4.5790841 38.0938624 -5.22064396 40.01803551 -5.69140625 42.33203125 C-6.35140625 42.33203125 -7.01140625 42.33203125 -7.69140625 42.33203125 C-9.86534983 39.49798163 -11.57513325 36.34842428 -13.37890625 33.26953125 C-13.90291016 32.42197266 -14.42691406 31.57441406 -14.96679688 30.70117188 C-17.30458669 26.72293559 -18.69327212 24.23511103 -18.68359375 19.55078125 C-17.73030691 16.45822868 -16.6525944 13.74656292 -15.12890625 10.89453125 C-14.44634766 9.59708984 -14.44634766 9.59708984 -13.75 8.2734375 C-13.22599609 7.31244141 -13.22599609 7.31244141 -12.69140625 6.33203125 C-15.16640625 5.34203125 -15.16640625 5.34203125 -17.69140625 4.33203125 C-14.48393251 2.19371542 -12.57511388 1.7975514 -8.81640625 1.20703125 C-7.78773437 1.03945313 -6.7590625 0.871875 -5.69921875 0.69921875 C-3.7993397 0.46728546 -1.89958293 0.23434623 0 0 Z " fill="#F9FBFC" transform="translate(39.69140625,46.66796875)"/>
<path d="M0 0 C5.5000778 3.81832324 9.95743465 12.7590863 11.66210938 19.17358398 C11.77929688 21.50952148 11.77929688 21.50952148 10.90429688 25.32202148 C7.40085876 28.8254596 4.57572317 30.09940263 -0.34570312 30.50952148 C-3.72890347 30.44039821 -6.04476804 30.34702948 -8.54052734 27.9128418 C-12.75098166 22.31844556 -15.62740245 15.84086685 -18.09570312 9.32202148 C-15.52909562 7.58746568 -12.94030872 5.88935074 -10.34570312 4.19702148 C-9.25128906 3.45645508 -9.25128906 3.45645508 -8.13476562 2.70092773 C-7.42578125 2.24331055 -6.71679688 1.78569336 -5.98632812 1.31420898 C-5.01228027 0.67008057 -5.01228027 0.67008057 -4.01855469 0.01293945 C-2.09570312 -0.67797852 -2.09570312 -0.67797852 0 0 Z " fill="#FCFCFD" transform="translate(102.095703125,44.677978515625)"/>
<path d="M0 0 C2.6875 2.125 2.6875 2.125 5 5 C5.804375 5.969375 6.60875 6.93875 7.4375 7.9375 C9 11 9 11 8.35546875 13.73046875 C6.80195664 17.47770112 4.93509782 20.88812064 2.875 24.375 C2.50246094 25.01566406 2.12992188 25.65632813 1.74609375 26.31640625 C0.83565998 27.88048477 -0.08148191 29.44065534 -1 31 C-5.7871428 30.42334609 -9.25128824 28.35917004 -13.3125 25.9375 C-13.95767578 25.56044922 -14.60285156 25.18339844 -15.26757812 24.79492188 C-16.84878152 23.86962507 -18.4249146 22.93567319 -20 22 C-18.35108292 17.5829527 -16.26164771 13.47272254 -14.0625 9.3125 C-13.71509766 8.63638672 -13.36769531 7.96027344 -13.00976562 7.26367188 C-9.70142463 1.00212253 -7.17123001 -0.86549328 0 0 Z " fill="#FAFCFC" transform="translate(57,17)"/>
<path d="M0 0 C7.92 0 15.84 0 24 0 C23.67 6.93 23.34 13.86 23 21 C19.26962153 21.1350499 15.54413588 21.23415132 11.8125 21.3125 C10.75740234 21.35439453 9.70230469 21.39628906 8.61523438 21.43945312 C0.76628682 21.56325356 0.76628682 21.56325356 -3.19921875 18.6484375 C-5.51354371 15.24472313 -5.76612073 14.06043985 -5 10 C-3.35 6.7 -1.7 3.4 0 0 Z " fill="#F9FBFC" transform="translate(41,77)"/>
<path d="M0 0 C1.32 0 2.64 0 4 0 C5.65 5.61 7.3 11.22 9 17 C9.33 11.39 9.66 5.78 10 0 C11.32 0 12.64 0 14 0 C15.32 2.97 16.64 5.94 18 9 C18.33 6.03 18.66 3.06 19 0 C19.99 0 20.98 0 22 0 C22 6.27 22 12.54 22 19 C20.68 19 19.36 19 18 19 C16.515 15.535 16.515 15.535 15 12 C14.67 14.64 14.34 17.28 14 20 C11.03 20 8.06 20 5 20 C4.67 18.68 4.34 17.36 4 16 C2.68 16 1.36 16 0 16 C-0.33 17.32 -0.66 18.64 -1 20 C-1.99 20 -2.98 20 -4 20 C-3.42978625 13.04339229 -1.98697306 6.68572695 0 0 Z " fill="#D4DFE7" transform="translate(13,153)"/>
<path d="M0 0 C1.65 0 3.3 0 5 0 C6.32 2.64 7.64 5.28 9 8 C10.32 5.36 11.64 2.72 13 0 C14.65 0 16.3 0 18 0 C18 6.27 18 12.54 18 19 C16.68 19 15.36 19 14 19 C13.67 16.69 13.34 14.38 13 12 C12.34 13.32 11.68 14.64 11 16 C9.68 16 8.36 16 7 16 C6.34 14.35 5.68 12.7 5 11 C4.67 13.64 4.34 16.28 4 19 C2.68 19 1.36 19 0 19 C0 12.73 0 6.46 0 0 Z " fill="#F0F4F7" transform="translate(50,126)"/>
<path d="M0 0 C3.125 0.25 3.125 0.25 4.9375 1.5 C7.60545694 5.43172601 7.4510069 9.60440168 7.125 14.25 C6 17.125 6 17.125 4.125 19.25 C1.1875 20.3125 1.1875 20.3125 -1.875 20.25 C-4.22439689 18.40858081 -5.5449947 16.9100106 -6.875 14.25 C-7.22938737 8.84559265 -7.25629657 5.71331148 -3.875 1.25 C-2.875 0.25 -2.875 0.25 0 0 Z " fill="#EEF3F6" transform="translate(43.875,152.75)"/>
<path d="M0 0 C1.32 0 2.64 0 4 0 C4 2.31 4 4.62 4 7 C5.65 7 7.3 7 9 7 C9 4.69 9 2.38 9 0 C10.65 0 12.3 0 14 0 C14 6.27 14 12.54 14 19 C12.68 19 11.36 19 10 19 C10 16.36 10 13.72 10 11 C8.02 11 6.04 11 4 11 C4 13.64 4 16.28 4 19 C2.68 19 1.36 19 0 19 C0 12.73 0 6.46 0 0 Z " fill="#F2F6F8" transform="translate(102,126)"/>
<path d="M0 0 C1.588125 -0.061875 3.17625 -0.12375 4.8125 -0.1875 C6.15248047 -0.23970703 6.15248047 -0.23970703 7.51953125 -0.29296875 C10 0 10 0 11.80078125 1.29296875 C13.79958597 4.13817287 13.35896649 6.64964607 13 10 C11.875 11.9375 11.875 11.9375 10 13 C6.8125 13.1875 6.8125 13.1875 4 13 C4 14.98 4 16.96 4 19 C2.68 19 1.36 19 0 19 C0 12.73 0 6.46 0 0 Z " fill="#EDF1F5" transform="translate(71,126)"/>
<path d="M0 0 C1.98 0 3.96 0 6 0 C6.83857688 2.60258324 7.67103344 5.20685647 8.5 7.8125 C8.73847656 8.55048828 8.97695313 9.28847656 9.22265625 10.04882812 C10.19940136 13.13255196 11 15.74495809 11 19 C9.68 19 8.36 19 7 19 C6.67 18.01 6.34 17.02 6 16 C3.03 15.505 3.03 15.505 0 15 C-0.33 16.32 -0.66 17.64 -1 19 C-2.32 19 -3.64 19 -5 19 C-3.64746536 12.54945018 -1.96939767 6.28894321 0 0 Z " fill="#E4EBF0" transform="translate(37,126)"/>
<path d="M0 0 C1.65 0 3.3 0 5 0 C7.70071112 6.27980887 9.70024676 12.28460827 11 19 C8.5625 18.625 8.5625 18.625 6 18 C5.67 17.34 5.34 16.68 5 16 C2.58380177 15.74969023 2.58380177 15.74969023 0 16 C-0.66 16.99 -1.32 17.98 -2 19 C-2.99 19 -3.98 19 -5 19 C-4.48378772 12.16018724 -2.51409031 6.36123316 0 0 Z " fill="#E3EAF0" transform="translate(89,126)"/>
<path d="M0 0 C8 0 8 0 10 1.125 C11.46789835 3.8773094 11.31359538 5.9267653 11 9 C10.62875 9.66 10.2575 10.32 9.875 11 C8.68057044 13.16259452 8.68057044 13.16259452 9.875 16.25 C10.24625 17.1575 10.6175 18.065 11 19 C10.01 19.33 9.02 19.66 8 20 C7.54625 19.030625 7.0925 18.06125 6.625 17.0625 C5.34213779 13.92920418 5.34213779 13.92920418 3 13 C3 14.98 3 16.96 3 19 C2.01 19 1.02 19 0 19 C0 12.73 0 6.46 0 0 Z " fill="#F9FAFB" transform="translate(53,153)"/>
<path d="M0 0 C1.3303125 0.4021875 1.3303125 0.4021875 2.6875 0.8125 C3.0175 2.1325 3.3475 3.4525 3.6875 4.8125 C0.55400268 5.85699911 -0.30218256 5.74673645 -3.3125 4.8125 C-2.41426976 7.1536437 -2.41426976 7.1536437 0.6875 8.0625 C3.6875 9.8125 3.6875 9.8125 4.75 12.75 C4.6875 15.8125 4.6875 15.8125 3.75 18.1875 C0.50971366 20.74045288 -2.26668432 20.07779939 -6.3125 19.8125 C-6.9725 18.4925 -7.6325 17.1725 -8.3125 15.8125 C-7.3225 15.1525 -6.3325 14.4925 -5.3125 13.8125 C-2.625 14.6875 -2.625 14.6875 -0.3125 15.8125 C-0.6425 14.8225 -0.9725 13.8325 -1.3125 12.8125 C-2.3025 12.35875 -3.2925 11.905 -4.3125 11.4375 C-7.3125 9.8125 -7.3125 9.8125 -8.5 7.4375 C-8.3125 4.8125 -8.3125 4.8125 -6.25 1.9375 C-3.3125 -0.1875 -3.3125 -0.1875 0 0 Z " fill="#F0F3F6" transform="translate(26.3125,125.1875)"/>
<path d="M0 0 C0.99 0 1.98 0 3 0 C4.32 2.97 5.64 5.94 7 9 C7.33 6.03 7.66 3.06 8 0 C8.99 0 9.98 0 11 0 C11 6.27 11 12.54 11 19 C9.68 19 8.36 19 7 19 C6.01 16.69 5.02 14.38 4 12 C3.67 14.31 3.34 16.62 3 19 C2.01 19 1.02 19 0 19 C0 12.73 0 6.46 0 0 Z " fill="#F5F8F9" transform="translate(24,153)"/>
<path d="M0 0 C0.99 0 1.98 0 3 0 C4.32 2.64 5.64 5.28 7 8 C7.33 5.36 7.66 2.72 8 0 C8.99 0 9.98 0 11 0 C11 6.27 11 12.54 11 19 C9.68 19 8.36 19 7 19 C6.01 16.69 5.02 14.38 4 12 C3.67 14.31 3.34 16.62 3 19 C2.01 19 1.02 19 0 19 C0 12.73 0 6.46 0 0 Z " fill="#F7F9FA" transform="translate(95,153)"/>
<path d="M0 0 C0.66 1.32 1.32 2.64 2 4 C-0.6739124 4.89130413 -3.23723823 5.47731534 -6 6 C-6.26932521 10.65052872 -6.26932521 10.65052872 -5 15 C-4.01 15 -3.02 15 -2 15 C-1.67 14.01 -1.34 13.02 -1 12 C-1.99 12 -2.98 12 -4 12 C-4 10.68 -4 9.36 -4 8 C-2.02 8 -0.04 8 2 8 C2.62029355 16.2188896 2.62029355 16.2188896 0.3125 19.125 C-2.65687538 20.24854744 -4.04137906 20.13793113 -7 19 C-9.91437601 15.92449263 -10.43174505 13.68960559 -10.4375 9.5 C-10.32942681 5.98057299 -10.21763722 4.35993848 -8.375 1.3125 C-5.40654286 -0.32796316 -3.34134421 -0.30375856 0 0 Z " fill="#F4F7F9" transform="translate(76,153)"/>
<path d="M0 0 C1.65 0.33 3.3 0.66 5 1 C6.32 6.94 7.64 12.88 9 19 C8.01 19.33 7.02 19.66 6 20 C5.34 18.68 4.68 17.36 4 16 C2.68 16 1.36 16 0 16 C-0.33 16.99 -0.66 17.98 -1 19 C-1.99 19 -2.98 19 -4 19 C-3.46048934 12.31006781 -2.11293829 6.36539272 0 0 Z " fill="#E0E7EE" transform="translate(84,153)"/>
<path d="M0 0 C0.99 0 1.98 0 3 0 C3.33 1.65 3.66 3.3 4 5 C4.4125 4.175 4.825 3.35 5.25 2.5 C5.8275 1.675 6.405 0.85 7 0 C8.32 0 9.64 0 11 0 C10.690625 0.721875 10.38125 1.44375 10.0625 2.1875 C7.550937 8.83575499 8.48607253 12.48083217 11 19 C9.68 19 8.36 19 7 19 C6.34 17.35 5.68 15.7 5 14 C4.67 14 4.34 14 4 14 C3.67 15.65 3.34 17.3 3 19 C2.01 19 1.02 19 0 19 C0 12.73 0 6.46 0 0 Z " fill="#F6F8FA" transform="translate(115,153)"/>
<path d="M0 0 C0.33 0.66 0.66 1.32 1 2 C8.92 2 16.84 2 25 2 C25 2.33 25 2.66 25 3 C17.08 3 9.16 3 1 3 C0.34 4.98 -0.32 6.96 -1 9 C-1.350625 9.66 -1.70125 10.32 -2.0625 11 C-3.28520717 13.60844196 -3.6127292 16.16001412 -4 19 C-5.56287793 16.6097161 -6.00450041 15.19351745 -5.9375 12.3125 C-4.6570557 7.78826348 -2.41535715 4.01074065 0 0 Z " fill="#0C4B7F" transform="translate(40,74)"/>
<path d="M0 0 C1.67542976 0.28604898 3.34385343 0.61781233 5 1 C5 3.97 5 6.94 5 10 C3.02 10.99 3.02 10.99 1 12 C-1 10 -1 10 -1.23046875 7.87109375 C-1.20919922 6.66646484 -1.20919922 6.66646484 -1.1875 5.4375 C-1.18105469 4.63183594 -1.17460938 3.82617188 -1.16796875 2.99609375 C-1 1 -1 1 0 0 Z " fill="#165B89" transform="translate(42,157)"/>
<path d="M0 0 C0.33 0 0.66 0 1 0 C1 3.96 1 7.92 1 12 C-2.96 12 -6.92 12 -11 12 C-9.68 11.01 -8.36 10.02 -7 9 C-3.98894452 6.20401991 -1.5626448 3.8355827 0 0 Z " fill="#000000" transform="translate(132,175)"/>
<path d="M0 0 C0.99 1.32 1.98 2.64 3 4 C5.88117056 7.0289229 8.63820806 9.47865604 12 12 C8.04 12 4.08 12 0 12 C0 8.04 0 4.08 0 0 Z " fill="#000000" transform="translate(0,175)"/>
<path d="M0 0 C0.99 0 1.98 0 3 0 C3 6.27 3 12.54 3 19 C2.01 19 1.02 19 0 19 C0 12.73 0 6.46 0 0 Z " fill="#FDFEFE" transform="translate(109,153)"/>
<path d="M0 0 C3.96 0 7.92 0 12 0 C12 3.96 12 7.92 12 12 C11.01 10.68 10.02 9.36 9 8 C6.11882944 4.9710771 3.36179194 2.52134396 0 0 Z " fill="#000000" transform="translate(121,0)"/>
<path d="M0 0 C3.96 0 7.92 0 12 0 C10.68 0.99 9.36 1.98 8 3 C4.9710771 5.88117056 2.52134396 8.63820806 0 12 C0 8.04 0 4.08 0 0 Z " fill="#000000" transform="translate(0,0)"/>
<path d="M0 0 C0.33 0 0.66 0 1 0 C1 6.27 1 12.54 1 19 C0.34 19 -0.32 19 -1 19 C-2.42478938 13.65703984 -3.24861692 6.84916061 -0.98828125 1.69140625 C-0.66214844 1.13324219 -0.33601563 0.57507813 0 0 Z " fill="#085082" transform="translate(70,126)"/>
<path d="M0 0 C0.66 0.33 1.32 0.66 2 1 C1.67 6.28 1.34 11.56 1 17 C-0.32 17.33 -1.64 17.66 -3 18 C-2.62875 17.443125 -2.2575 16.88625 -1.875 16.3125 C-0.69935806 13.20544631 -1.77583094 11.98391208 -3 9 C-2.34 8.01 -1.68 7.02 -1 6 C-0.60986284 4.0103005 -0.26797351 2.00980131 0 0 Z " fill="#0E5183" transform="translate(64,156)"/>
<path d="M0 0 C4.22999675 1.05749919 4.54930356 1.20032488 6.75 4.5625 C7.17796875 5.20316406 7.6059375 5.84382813 8.046875 6.50390625 C8.36140625 6.99761719 8.6759375 7.49132812 9 8 C8.34 9.32 7.68 10.64 7 12 C3.535 6.06 3.535 6.06 0 0 Z " fill="#145284" transform="translate(59,18)"/>
<path d="M0 0 C2.475 0.495 2.475 0.495 5 1 C4.67 2.32 4.34 3.64 4 5 C2.68 5 1.36 5 0 5 C0 3.35 0 1.7 0 0 Z " fill="#306690" transform="translate(56,157)"/>
<path d="M0 0 C2.475 0.495 2.475 0.495 5 1 C4.67 2.32 4.34 3.64 4 5 C2.68 5 1.36 5 0 5 C0 3.35 0 1.7 0 0 Z " fill="#1F5B8A" transform="translate(75,130)"/>
<path d="M0 0 C0.33 0 0.66 0 1 0 C2.25 7.625 2.25 7.625 0 11 C-0.99 10.34 -1.98 9.68 -3 9 C-2.34 8.34 -1.68 7.68 -1 7 C-0.59952556 4.67724823 -0.2602896 2.34260643 0 0 Z " fill="#0A497D" transform="translate(84,129)"/>
</svg>
