<?xml version="1.0" encoding="UTF-8"?>
<svg version="1.1" xmlns="http://www.w3.org/2000/svg" width="133" height="187">
<path d="M0 0 C43.89 0 87.78 0 133 0 C133 61.71 133 123.42 133 187 C89.11 187 45.22 187 0 187 C0 125.29 0 63.58 0 0 Z " fill="#C8321E" transform="translate(0,0)"/>
<path d="M0 0 C5.80612508 4.40464661 9.7081456 11.57651443 10.9375 18.75 C11.00479581 28.56172964 9.21137764 37.40266652 4.0625 45.8125 C1.51198522 48.13796936 -0.73954352 48.91926088 -4.0625 49.75 C-4.3925 52.39 -4.7225 55.03 -5.0625 57.75 C-7.0425 58.245 -7.0425 58.245 -9.0625 58.75 C-9.5575 56.77 -9.5575 56.77 -10.0625 54.75 C-10.7225 54.75 -11.3825 54.75 -12.0625 54.75 C-12.7225 56.4 -13.3825 58.05 -14.0625 59.75 C-15.3825 59.75 -16.7025 59.75 -18.0625 59.75 C-18.0625 58.1 -18.0625 56.45 -18.0625 54.75 C-19.0525 55.245 -19.0525 55.245 -20.0625 55.75 C-20.71463292 57.77463255 -20.71463292 57.77463255 -21.0625 59.75 C-22.7125 59.75 -24.3625 59.75 -26.0625 59.75 C-26.5575 57.275 -26.5575 57.275 -27.0625 54.75 C-28.3825 56.07 -29.7025 57.39 -31.0625 58.75 C-34.0625 56.75 -34.0625 56.75 -34.8125 53.375 C-35.71361316 49.45203784 -35.71361316 49.45203784 -39.4375 47.875 C-40.05753906 47.57464844 -40.67757812 47.27429688 -41.31640625 46.96484375 C-44.76314856 44.56677472 -45.75278411 40.58700687 -47.0625 36.75 C-47.475 35.6775 -47.8875 34.605 -48.3125 33.5 C-50.21843916 23.9703042 -50.05183192 14.25405931 -44.87890625 5.8203125 C-34.39079168 -8.02518718 -13.93222135 -8.44377052 0 0 Z " fill="#FEFBFB" transform="translate(83.0625,17.25)"/>
<path d="M0 0 C2.9375 0.25 2.9375 0.25 6 1 C8.32883474 4.4932521 8 5.92922578 8 10 C8.99 11.485 8.99 11.485 10 13 C9.625 16.6875 9.625 16.6875 9 20 C5.625 20.625 5.625 20.625 2 21 C1.01 20.01 1.01 20.01 0 19 C-4.91369026 19.34627742 -9.21532415 21.1262532 -13.70703125 23.01953125 C-14.43186203 23.31937424 -15.15669281 23.61921722 -15.90348816 23.92814636 C-18.20898817 24.88371351 -20.51069068 25.84808173 -22.8125 26.8125 C-24.34677555 27.44912146 -25.88127889 28.08519426 -27.41601562 28.72070312 C-33.45871616 31.22914329 -39.49134405 33.74391203 -45.44921875 36.44921875 C-49 38 -49 38 -51 38 C-51.12375 38.94875 -51.2475 39.8975 -51.375 40.875 C-52 44 -52 44 -54 46 C-57 46.25 -57 46.25 -60 46 C-62 44 -62 44 -62.4375 40.5 C-62.623125 39.345 -62.80875 38.19 -63 37 C-63.99 36.34 -64.98 35.68 -66 35 C-66.375 31.5 -66.375 31.5 -66 28 C-63 26 -63 26 -60 26.3125 C-57 27 -57 27 -54 28 C-51.19538814 27.02874577 -48.53477433 25.983596 -45.81640625 24.80859375 C-45.00566147 24.46627213 -44.19491669 24.1239505 -43.35960388 23.77125549 C-41.63698872 23.04171121 -39.91633609 22.30751844 -38.19750977 21.5690918 C-35.60791585 20.45700361 -33.0127095 19.3590631 -30.41601562 18.26367188 C-25.59115702 16.21925995 -20.78811458 14.12899017 -16 12 C-15.3482782 11.71135071 -14.6965564 11.42270142 -14.02508545 11.12530518 C-12.3296453 10.3643345 -10.6466606 9.5757799 -8.96484375 8.78515625 C-8.06241943 8.36242432 -7.15999512 7.93969238 -6.23022461 7.50415039 C-3.55067779 5.69695959 -2.48659841 3.83552199 -1 1 C-0.67 0.67 -0.34 0.34 0 0 Z " fill="#FDF9F9" transform="translate(96,65)"/>
<path d="M0 0 C2.9375 0.8125 2.9375 0.8125 4.9375 2.8125 C5.03869141 3.46202637 5.13988281 4.11155273 5.24414062 4.78076172 C5.77069163 7.03445223 5.77069163 7.03445223 8.14648438 8.15283203 C9.09845703 8.53810059 10.05042969 8.92336914 11.03125 9.3203125 C12.06121094 9.74957031 13.09117188 10.17882812 14.15234375 10.62109375 C15.23644531 11.05550781 16.32054688 11.48992187 17.4375 11.9375 C19.57525992 12.80938068 21.7108107 13.68670435 23.84375 14.5703125 C24.79572266 14.9533252 25.74769531 15.33633789 26.72851562 15.73095703 C28.9375 16.8125 28.9375 16.8125 29.9375 18.8125 C20.87785666 24.01121122 20.87785666 24.01121122 16.34375 23.546875 C13.32495992 22.52048637 10.62798926 21.18587567 7.828125 19.671875 C5.18875933 18.47216333 3.72171916 19.10025789 0.9375 19.8125 C-5.49329096 21.14300847 -5.49329096 21.14300847 -8 19.6875 C-9.4327043 17.15919829 -9.48243855 15.68208009 -9.0625 12.8125 C-8.5675 12.173125 -8.0725 11.53375 -7.5625 10.875 C-5.76228736 8.82475358 -5.76228736 8.82475358 -6.0625 5.75 C-6.0625 2.8125 -6.0625 2.8125 -4.9375 0.875 C-3.0625 -0.1875 -3.0625 -0.1875 0 0 Z " fill="#FDF9F8" transform="translate(30.0625,65.1875)"/>
<path d="M0 0 C11 0 11 0 14.1875 0.9375 C16.73381996 3.83503651 16.26842058 6.03434279 16.04296875 9.76953125 C15.98944441 12.54793092 16.7340736 14.54726761 18 17 C16.34916877 19.4456759 15.52854725 20.57581825 13 22 C8.57807512 22.4550407 4.46399392 22.22545424 0 22 C0 14.74 0 7.48 0 0 Z " fill="#FAF0EF" transform="translate(46,151)"/>
<path d="M0 0 C0.598125 0.12632813 1.19625 0.25265625 1.8125 0.3828125 C2.4725 -0.2771875 3.1325 -0.9371875 3.8125 -1.6171875 C6.64636167 -1.9805031 8.21772151 -1.9740546 10.6875 -0.4921875 C11.8125 1.3828125 11.8125 1.3828125 11.625 4.4453125 C10.8125 7.3828125 10.8125 7.3828125 8.8125 9.3828125 C8.4825 10.5378125 8.1525 11.6928125 7.8125 12.8828125 C6.8125 16.3828125 6.8125 16.3828125 4.8125 18.3828125 C1.95421413 18.74925941 0.43996004 18.83099824 -1.9375 17.1328125 C-3.1875 15.3828125 -3.1875 15.3828125 -3.55444336 13.39355469 C-4.07666371 10.93854847 -4.07666371 10.93854847 -7.56640625 9.4609375 C-8.95434657 8.8366964 -10.34928256 8.22783012 -11.75 7.6328125 C-12.46091797 7.31699219 -13.17183594 7.00117187 -13.90429688 6.67578125 C-15.65958274 5.89827207 -17.42283543 5.13879395 -19.1875 4.3828125 C-13.77806918 -1.02661832 -7.09851513 -2.40842478 0 0 Z " fill="#FDF8F8" transform="translate(86.1875,92.6171875)"/>
<path d="M0 0 C5 1 5 1 6.36328125 2.62890625 C7.2421875 4.41927083 8.12109375 6.20963542 9 8 C10.32 5.36 11.64 2.72 13 0 C14.65 0 16.3 0 18 0 C18 6.27 18 12.54 18 19 C16.35 19 14.7 19 13 19 C12.67 17.02 12.34 15.04 12 13 C11.01 14.485 11.01 14.485 10 16 C8.0625 15.6875 8.0625 15.6875 6 15 C5.67 14.01 5.34 13.02 5 12 C4.67 14.31 4.34 16.62 4 19 C2.68 19 1.36 19 0 19 C0 12.73 0 6.46 0 0 Z " fill="#FAEDED" transform="translate(48,125)"/>
<path d="M0 0 C0.66 0.33 1.32 0.66 2 1 C2 2.65 2 4.3 2 6 C3.65 6 5.3 6 7 6 C7.33 4.35 7.66 2.7 8 1 C8.66 1 9.32 1 10 1 C10 2.65 10 4.3 10 6 C11.95894361 5.88693303 11.95894361 5.88693303 14 5 C15.29660434 2.50965614 15.29660434 2.50965614 16 0 C16.99 0.33 17.98 0.66 19 1 C19.33 1.99 19.66 2.98 20 4 C21.32 3.67 22.64 3.34 24 3 C23.89819336 5.30541992 23.89819336 5.30541992 23 8 C20.25610352 9.66918945 20.25610352 9.66918945 16.62890625 11.11328125 C15.99137924 11.37255905 15.35385223 11.63183685 14.69700623 11.89897156 C12.65906928 12.72208313 10.61132991 13.51694754 8.5625 14.3125 C7.18615373 14.86611324 5.81049243 15.42143267 4.43554688 15.97851562 C-5.58886412 20 -5.58886412 20 -8 20 C-8 19.34 -8 18.68 -8 18 C-4.04 16.02 -0.08 14.04 4 12 C0.37 10.35 -3.26 8.7 -7 7 C-6.67 6.01 -6.34 5.02 -6 4 C-4.68 4 -3.36 4 -2 4 C-1.34 2.68 -0.68 1.36 0 0 Z " fill="#C72E1E" transform="translate(55,71)"/>
<path d="M0 0 C2.4375 1.625 2.4375 1.625 4 4 C4.80681 8.12369555 4.18268278 9.69743165 2 13.3125 C-0.15917629 15.63776677 -1.95111217 16.57103811 -5.0625 17.1875 C-9 17 -9 17 -11.5 14.9375 C-13.24665599 11.51696536 -13.63089739 9.78538433 -13 6 C-9.25285302 0.37927952 -6.72725892 -0.57993611 0 0 Z " fill="#C83220" transform="translate(56,41)"/>
<path d="M0 0 C2.75329021 1.79562405 4.52627461 3.05254922 6 6 C6.40838049 9.67542444 6.19460573 11.61889711 4.5 14.9375 C1.76613847 17.19293577 1.34221854 17.32439026 -2 17.0625 C-4.6529988 16.51905518 -6.11933464 15.92350344 -8.4375 14.4375 C-10.7752702 10.79057848 -11 8.36060832 -11 4 C-8.24378615 -0.59368975 -5.06911798 -0.71145515 0 0 Z " fill="#C7311E" transform="translate(78,41)"/>
<path d="M0 0 C2.9375 1.5 2.9375 1.5 5 4 C5.07114049 6.8182578 4.54980603 9.20515268 4 12 C4.33 12.33 4.66 12.66 5 13 C5.45434298 18.22494432 5.45434298 18.22494432 3.9375 20.8125 C0.95439996 22.64085164 -1.52738683 22.88025472 -5 23 C-7.9375 21.5625 -7.9375 21.5625 -10 20 C-9.67 18.68 -9.34 17.36 -9 16 C-6.36 16 -3.72 16 -1 16 C-1.33 15.34 -1.66 14.68 -2 14 C-4.02463255 13.34786708 -4.02463255 13.34786708 -6 13 C-6 11.68 -6 10.36 -6 9 C-5.360625 8.896875 -4.72125 8.79375 -4.0625 8.6875 C-3.0415625 8.3471875 -3.0415625 8.3471875 -2 8 C-1.67 7.01 -1.34 6.02 -1 5 C-3.31 5.66 -5.62 6.32 -8 7 C-8.66 5.68 -9.32 4.36 -10 3 C-6.69711045 -0.04882113 -4.45440141 -0.63634306 0 0 Z " fill="#FBF3F2" transform="translate(77,151)"/>
<path d="M0 0 C1.65 0 3.3 0 5 0 C7.50710309 5.93915684 9.60061654 11.70277443 11 18 C9.68 18.33 8.36 18.66 7 19 C6.67 17.68 6.34 16.36 6 15 C3.06556598 15.26656572 3.06556598 15.26656572 0 16 C-0.66 16.99 -1.32 17.98 -2 19 C-2.99 19 -3.98 19 -5 19 C-4.39297368 12.3227105 -2.22368606 6.29872004 0 0 Z " fill="#F7E6E5" transform="translate(35,125)"/>
<path d="M0 0 C1.65 0 3.3 0 5 0 C7.72399099 5.83712355 9.41039668 11.76559832 11 18 C9.68 18.33 8.36 18.66 7 19 C6.67 17.68 6.34 16.36 6 15 C3.06556598 15.26656572 3.06556598 15.26656572 0 16 C-0.66 16.99 -1.32 17.98 -2 19 C-2.99 19 -3.98 19 -5 19 C-4.39297368 12.3227105 -2.22368606 6.29872004 0 0 Z " fill="#F8E7E7" transform="translate(86,125)"/>
<path d="M0 0 C1.32 0 2.64 0 4 0 C4 2.31 4 4.62 4 7 C5.65 7 7.3 7 9 7 C9 4.69 9 2.38 9 0 C10.32 0 11.64 0 13 0 C13 6.27 13 12.54 13 19 C11.68 19 10.36 19 9 19 C9 16.36 9 13.72 9 11 C7.35 11 5.7 11 4 11 C4 13.64 4 16.28 4 19 C2.68 19 1.36 19 0 19 C0 12.73 0 6.46 0 0 Z " fill="#FDF9F9" transform="translate(99,125)"/>
<path d="M0 0 C1.588125 -0.061875 3.17625 -0.12375 4.8125 -0.1875 C6.15248047 -0.23970703 6.15248047 -0.23970703 7.51953125 -0.29296875 C10 0 10 0 11.80078125 1.29296875 C13.79958597 4.13817287 13.35896649 6.64964607 13 10 C11.8125 11.9375 11.8125 11.9375 10 13 C7.3125 13.1875 7.3125 13.1875 5 13 C5 14.98 5 16.96 5 19 C3.68 19 2.36 19 1 19 C0.67 12.73 0.34 6.46 0 0 Z " fill="#FBF1F0" transform="translate(68,125)"/>
<path d="M0 0 C0 1.32 0 2.64 0 4 C-2.49092811 5.24546405 -3.41080733 4.7767578 -6 4 C-5.10176976 6.3411437 -5.10176976 6.3411437 -2 7.25 C1 9 1 9 2.125 11.9375 C2 15 2 15 0.5 17.375 C-2.79646706 19.51770359 -5.14646454 19.2964258 -9 19 C-9.66 17.68 -10.32 16.36 -11 15 C-7.94736336 14.01879536 -6.05263664 14.01879536 -3 15 C-3.71639199 11.71156462 -3.71639199 11.71156462 -7 10.375 C-7.99 9.92125 -8.98 9.4675 -10 9 C-10.33 8.67 -10.66 8.34 -11 8 C-10.75 4.5625 -10.75 4.5625 -10 1 C-6.1496895 -1.56687367 -4.41430237 -0.83288724 0 0 Z " fill="#FAF1F0" transform="translate(27,125)"/>
<path d="M0 0 C3.42054006 1.14018002 4.2426201 1.92458518 6 5 C5.6875 7.25 5.6875 7.25 5 9 C2.36 9 -0.28 9 -3 9 C-3.75 7.3125 -3.75 7.3125 -4 5 C-2.0625 2.25 -2.0625 2.25 0 0 Z " fill="#C62D1C" transform="translate(63,56)"/>
<path d="M0 0 C0.33 0 0.66 0 1 0 C1 3.96 1 7.92 1 12 C-2.96 12 -6.92 12 -11 12 C-9.68 11.01 -8.36 10.02 -7 9 C-3.98894452 6.20401991 -1.5626448 3.8355827 0 0 Z " fill="#000000" transform="translate(132,175)"/>
<path d="M0 0 C0.99 1.32 1.98 2.64 3 4 C5.88117056 7.0289229 8.63820806 9.47865604 12 12 C8.04 12 4.08 12 0 12 C0 8.04 0 4.08 0 0 Z " fill="#000000" transform="translate(0,175)"/>
<path d="M0 0 C3.96 0 7.92 0 12 0 C12 3.96 12 7.92 12 12 C11.01 10.68 10.02 9.36 9 8 C6.11882944 4.9710771 3.36179194 2.52134396 0 0 Z " fill="#000000" transform="translate(121,0)"/>
<path d="M0 0 C3.96 0 7.92 0 12 0 C10.68 0.99 9.36 1.98 8 3 C4.9710771 5.88117056 2.52134396 8.63820806 0 12 C0 8.04 0 4.08 0 0 Z " fill="#000000" transform="translate(0,0)"/>
<path d="M0 0 C-2.96346786 2.47186455 -5.54041689 3.66248361 -9.25 4.6875 C-10.14203125 4.93886719 -11.0340625 5.19023438 -11.953125 5.44921875 C-12.62859375 5.63097656 -13.3040625 5.81273438 -14 6 C-14.33 5.34 -14.66 4.68 -15 4 C-13.06767179 3.13419713 -11.12892806 2.28270059 -9.1875 1.4375 C-8.10855469 0.96183594 -7.02960938 0.48617187 -5.91796875 -0.00390625 C-3 -1 -3 -1 0 0 Z " fill="#C22015" transform="translate(81,90)"/>
<path d="M0 0 C1.65 0 3.3 0 5 0 C5.33 1.32 5.66 2.64 6 4 C4.02 4 2.04 4 0 4 C0 2.68 0 1.36 0 0 Z " fill="#C52B1F" transform="translate(52,164)"/>
<path d="M0 0 C0 3.3 0 6.6 0 10 C-2.76223278 7.23776722 -2.57856291 4.79293383 -3 1 C-1 0 -1 0 0 0 Z " fill="#C52616" transform="translate(98,134)"/>
<path d="M0 0 C2 2 2 2 3 5 C3.99 5.66 4.98 6.32 6 7 C4.02 7.66 2.04 8.32 0 9 C0 6.03 0 3.06 0 0 Z " fill="#C21F16" transform="translate(52,135)"/>
<path d="M0 0 C0.33 0 0.66 0 1 0 C1.22174933 1.45635371 1.42698698 2.91522956 1.625 4.375 C1.74101563 5.18710938 1.85703125 5.99921875 1.9765625 6.8359375 C1.98429687 7.55007812 1.99203125 8.26421875 2 9 C1.34 9.66 0.68 10.32 0 11 C-0.99 10.34 -1.98 9.68 -3 9 C-2.34 8.34 -1.68 7.68 -1 7 C-0.59952556 4.67724823 -0.2602896 2.34260643 0 0 Z " fill="#C52116" transform="translate(81,128)"/>
<path d="M0 0 C-2.93828597 2.50298434 -5.17902761 3.46930939 -9 4 C-9 3.34 -9 2.68 -9 2 C-3.375 -1.125 -3.375 -1.125 0 0 Z " fill="#C11D13" transform="translate(56,87)"/>
<path d="M0 0 C2.475 0.495 2.475 0.495 5 1 C4.67 1.99 4.34 2.98 4 4 C2.68 4 1.36 4 0 4 C0 2.68 0 1.36 0 0 Z " fill="#C52C20" transform="translate(52,156)"/>
<path d="M0 0 C1.32 0.33 2.64 0.66 4 1 C3.67 2.32 3.34 3.64 3 5 C2.01 5 1.02 5 0 5 C0 3.35 0 1.7 0 0 Z " fill="#C01A0E" transform="translate(73,129)"/>
<path d="M0 0 C0.99 0.33 1.98 0.66 3 1 C2.67 1.66 2.34 2.32 2 3 C1.360625 3.12375 0.72125 3.2475 0.0625 3.375 C-2.19851273 3.80939427 -2.19851273 3.80939427 -3.25 6.0625 C-3.4975 6.701875 -3.745 7.34125 -4 8 C-3.50168276 4.31245243 -2.89932357 2.39509338 0 0 Z " fill="#C12116" transform="translate(63,56)"/>
</svg>
