<?xml version="1.0" encoding="UTF-8"?>
<svg version="1.1" xmlns="http://www.w3.org/2000/svg" width="133" height="187">
<path d="M0 0 C43.89 0 87.78 0 133 0 C133 61.71 133 123.42 133 187 C89.11 187 45.22 187 0 187 C0 125.29 0 63.58 0 0 Z " fill="#1F6F2B" transform="translate(0,0)"/>
<path d="M0 0 C1.09570312 0.00902344 2.19140625 0.01804687 3.3203125 0.02734375 C4.58488281 0.04474609 4.58488281 0.04474609 5.875 0.0625 C4.85653011 8.63169497 2.26121159 14.48427476 -4.5 20 C-8.06037937 21.44110594 -11.29915297 21.73827568 -15.125 22.0625 C-14.35932134 20.47666752 -13.58722035 18.89393506 -12.8125 17.3125 C-12.38324219 16.43078125 -11.95398438 15.5490625 -11.51171875 14.640625 C-10.22396854 12.24649785 -8.81584246 10.18473042 -7.125 8.0625 C-13.06007814 12.47930234 -16.28479519 17.45876558 -19.625 24 C-21.125 26.0625 -21.125 26.0625 -23.8125 26.875 C-24.575625 26.936875 -25.33875 26.99875 -26.125 27.0625 C-26.125 27.7225 -26.125 28.3825 -26.125 29.0625 C-24.0616887 28.44018356 -21.9993831 27.81453215 -19.9375 27.1875 C-18.78894531 26.83945312 -17.64039063 26.49140625 -16.45703125 26.1328125 C-13.20003348 25.13410899 -13.20003348 25.13410899 -10.4140625 23.953125 C-7.12476795 22.67333122 -4.62562219 22.69401345 -1.125 23.0625 C2.96418232 25.22282274 5.00835511 26.89103067 6.875 31.0625 C6.21113281 31.34222656 5.54726562 31.62195313 4.86328125 31.91015625 C-1.12180319 34.62747196 -5.31334824 36.98201734 -8.125 43.0625 C-11.3481591 51.71000004 -12.91099518 60.45330838 -9.15234375 69.1484375 C-5.12779651 76.64664339 -0.12843293 79.51595316 7.875 82.0625 C4.48692973 88.83864054 0.35062319 92.57991201 -5.75 96.9375 C-11.97542598 99.01264199 -18.80081137 99.37756363 -24.96875 96.9375 C-27.11419477 95.74256873 -29.1364145 94.50126987 -31.125 93.0625 C-30.795 94.3825 -30.465 95.7025 -30.125 97.0625 C-41.60110143 98.09534913 -41.60110143 98.09534913 -46.625 94.375 C-50.72237768 90.7546559 -53.9430659 87.50169186 -55.125 82.0625 C-53.92875 81.815 -52.7325 81.5675 -51.5 81.3125 C-44.85960023 79.6143378 -40.92332653 76.29372528 -37.10546875 70.74609375 C-34.78298425 66.75808252 -34.90761737 62.78108028 -34.875 58.3125 C-34.854375 57.6215625 -34.83375 56.930625 -34.8125 56.21875 C-34.77411827 51.11397958 -35.85169847 47.63303254 -38.125 43.0625 C-37.465 43.371875 -36.805 43.68125 -36.125 44 C-32.42023985 45.31210255 -29.03236009 45.66514135 -25.125 46.0625 C-24.795 45.4025 -24.465 44.7425 -24.125 44.0625 C-25.094375 44.041875 -26.06375 44.02125 -27.0625 44 C-30.72380027 43.50642431 -32.68872002 42.0343506 -35.5 39.6875 C-41.10190555 35.0224319 -46.98664131 33.21384818 -54.125 32.0625 C-52.38164837 27.62487766 -49.28677247 25.34506102 -45.26171875 22.95703125 C-39.50520022 20.54708108 -32.12378919 22.01923231 -26.125 23.0625 C-27.32136671 17.5157089 -28.73328832 14.90524772 -33.125 11.0625 C-33.785 10.4025 -34.445 9.7425 -35.125 9.0625 C-34.9375 7.0625 -34.9375 7.0625 -34.125 5.0625 C-33.135 4.4025 -32.145 3.7425 -31.125 3.0625 C-23.45757403 9.02833144 -23.45757403 9.02833144 -22.125 14.0625 C-21.1659375 13.0725 -21.1659375 13.0725 -20.1875 12.0625 C-8.03947368 -0.08552632 -8.03947368 -0.08552632 0 0 Z " fill="#FAFCFA" transform="translate(90.125,10.9375)"/>
<path d="M0 0 C2.44533828 2.12358325 3.76617689 3.69952317 4.34765625 6.93359375 C4.53989366 11.35505409 4.01667482 14.58110187 1 18 C-1.875 19.5 -1.875 19.5 -5 20 C-8.56446721 18.46079825 -9.82847773 17.25728341 -12 14 C-12.66807132 9.3468056 -12.95453084 5.30452548 -10.125 1.4375 C-6.29897264 -1.15069498 -4.52079235 -1.26582186 0 0 Z " fill="#F2F6F2" transform="translate(25,158)"/>
<path d="M0 0 C1.65 0 3.3 0 5 0 C8 5.625 8 5.625 8 9 C8.66 9 9.32 9 10 9 C10.12375 8.2575 10.2475 7.515 10.375 6.75 C10.95486701 4.19858515 11.73708739 2.2732427 13 0 C14.65 0 16.3 0 18 0 C18 6.27 18 12.54 18 19 C16.68 19 15.36 19 14 19 C13.67 16.69 13.34 14.38 13 12 C12.34 13.32 11.68 14.64 11 16 C9.125 15.75 9.125 15.75 7 15 C5.75 12.9375 5.75 12.9375 5 11 C4.67 13.64 4.34 16.28 4 19 C2.68 19 1.36 19 0 19 C0 12.73 0 6.46 0 0 Z " fill="#F5F8F6" transform="translate(49,131)"/>
<path d="M0 0 C0.33 0 0.66 0 1 0 C1 57.09 1 114.18 1 173 C-2.96 173 -6.92 173 -11 173 C-9.68 172.01 -8.36 171.02 -7 170 C-2.36316456 165.88559492 -2.36316456 165.88559492 -0.8613348 160.20827293 C-0.85488225 159.00809847 -0.8484297 157.807924 -0.84178162 156.57138062 C-0.83684364 155.90405273 -0.83190566 155.23672485 -0.82681805 154.5491749 C-0.81140379 152.30280538 -0.80307185 150.05646452 -0.79467773 147.81005859 C-0.78510229 146.2038701 -0.77509241 144.59768414 -0.76467896 142.99150085 C-0.73758763 138.62194013 -0.716601 134.25236856 -0.69667697 129.88277006 C-0.67484344 125.3196638 -0.6474419 120.75659114 -0.62062073 116.19351196 C-0.57065816 107.54855931 -0.52573258 98.90358805 -0.48259836 90.25859892 C-0.43325641 80.41833067 -0.37832702 70.57809612 -0.32291877 60.73786044 C-0.20904402 40.49193835 -0.10221697 20.24598409 0 0 Z " fill="#035509" transform="translate(132,14)"/>
<path d="M0 0 C1.588125 -0.061875 3.17625 -0.12375 4.8125 -0.1875 C6.15248047 -0.23970703 6.15248047 -0.23970703 7.51953125 -0.29296875 C10 0 10 0 11.8046875 1.3203125 C13.6283712 3.88300528 13.32454117 5.94931298 13 9 C12.34 9.66 11.68 10.32 11 11 C11.27617533 12.94074861 11.27617533 12.94074861 12 15 C12.33333333 16.33333333 12.66666667 17.66666667 13 19 C12.01 19.33 11.02 19.66 10 20 C6 15.25 6 15.25 6 13 C5.34 13 4.68 13 4 13 C4 14.98 4 16.96 4 19 C2.68 19 1.36 19 0 19 C0 12.73 0 6.46 0 0 Z " fill="#F3F7F3" transform="translate(32,158)"/>
<path d="M0 0 C5 1 5 1 6.36328125 2.62890625 C7.2421875 4.41927083 8.12109375 6.20963542 9 8 C9.33 5.36 9.66 2.72 10 0 C11.32 0 12.64 0 14 0 C14 6.27 14 12.54 14 19 C9 18 9 18 7.63671875 16.37109375 C6.31835938 13.68554688 6.31835938 13.68554688 5 11 C4.67 13.64 4.34 16.28 4 19 C2.68 19 1.36 19 0 19 C0 12.73 0 6.46 0 0 Z " fill="#F8FAF8" transform="translate(82,158)"/>
<path d="M0 0 C0.66 0.99 1.32 1.98 2 3 C-1.13498292 4.85776765 -3.37471432 5.20140476 -7 5 C-8.04214691 9.61507774 -8.04214691 9.61507774 -7 14 C-5.68 14 -4.36 14 -3 14 C-2.67 13.34 -2.34 12.68 -2 12 C-3.32 12 -4.64 12 -6 12 C-6 10.68 -6 9.36 -6 8 C-3.36 8 -0.72 8 2 8 C2.08096803 9.45742463 2.13917774 10.91612807 2.1875 12.375 C2.22230469 13.18710938 2.25710937 13.99921875 2.29296875 14.8359375 C2.19628906 15.55007812 2.09960938 16.26421875 2 17 C-1.67808833 19.45205889 -4.7282314 19.80794014 -9 19 C-11.77103921 16.85244461 -12.77408352 15.30137305 -13.375 11.83984375 C-13.59247307 7.76901979 -13.32833185 5.54344582 -11.1875 2 C-7.45156547 -1.41571157 -4.72598333 -1.20663404 0 0 Z " fill="#F2F6F3" transform="translate(60,158)"/>
<path d="M0 0 C1.98 0 3.96 0 6 0 C6.83661862 2.7907207 7.66942737 5.58248012 8.5 8.375 C8.73847656 9.1690625 8.97695312 9.963125 9.22265625 10.78125 C9.44824219 11.54179687 9.67382812 12.30234375 9.90625 13.0859375 C10.22045898 14.1385376 10.22045898 14.1385376 10.54101562 15.21240234 C11 17 11 17 11 19 C9.35 18.67 7.7 18.34 6 18 C6 17.01 6 16.02 6 15 C4.02 15.33 2.04 15.66 0 16 C-0.33 16.99 -0.66 17.98 -1 19 C-2.32 19 -3.64 19 -5 19 C-4.39297368 12.3227105 -2.22368606 6.29872004 0 0 Z " fill="#E5ECE5" transform="translate(69,158)"/>
<path d="M0 0 C1.98 0 3.96 0 6 0 C7.98 5.94 9.96 11.88 12 18 C10.68 18.33 9.36 18.66 8 19 C7.34 18.01 6.68 17.02 6 16 C2.93443402 15.26656572 2.93443402 15.26656572 0 15 C-0.33 16.32 -0.66 17.64 -1 19 C-2.32 18.67 -3.64 18.34 -5 18 C-3.35 12.06 -1.7 6.12 0 0 Z " fill="#E6EDE7" transform="translate(87,131)"/>
<path d="M0 0 C1.98 0 3.96 0 6 0 C6.86500888 2.60101286 7.71726928 5.20506411 8.5625 7.8125 C8.80935547 8.55048828 9.05621094 9.28847656 9.31054688 10.04882812 C11.11328125 15.66015625 11.11328125 15.66015625 10 19 C9.01 19 8.02 19 7 19 C6.67 17.68 6.34 16.36 6 15 C4.02 15 2.04 15 0 15 C-0.33 16.32 -0.66 17.64 -1 19 C-2.32 19 -3.64 19 -5 19 C-3.64746536 12.54945018 -1.96939767 6.28894321 0 0 Z " fill="#E5EDE6" transform="translate(36,131)"/>
<path d="M0 0 C1.588125 -0.061875 3.17625 -0.12375 4.8125 -0.1875 C6.15248047 -0.23970703 6.15248047 -0.23970703 7.51953125 -0.29296875 C10 0 10 0 11.796875 1.328125 C13.68975612 3.95849227 13.44911305 5.85620866 13 9 C11.3125 11.375 11.3125 11.375 9 13 C6.25 13.25 6.25 13.25 4 13 C4 14.98 4 16.96 4 19 C2.68 19 1.36 19 0 19 C0 12.73 0 6.46 0 0 Z " fill="#F3F6F3" transform="translate(70,131)"/>
<path d="M0 0 C1.32 0 2.64 0 4 0 C4.33 1.65 4.66 3.3 5 5 C5.556875 4.175 6.11375 3.35 6.6875 2.5 C9 0 9 0 11.75 -0.3125 C12.86375 -0.1578125 12.86375 -0.1578125 14 0 C13.319375 1.051875 12.63875 2.10375 11.9375 3.1875 C10.52272632 5.68091318 9.99294818 6.70382353 10.0625 9.625 C11.11235432 12.28463095 12.49266595 14.57515826 14 17 C14 17.66 14 18.32 14 19 C10.32579134 18.69381595 9.21864487 18.24228216 6.6875 15.4375 C6.130625 14.633125 5.57375 13.82875 5 13 C4.67 14.98 4.34 16.96 4 19 C2.68 19 1.36 19 0 19 C0 12.73 0 6.46 0 0 Z " fill="#F6F9F6" transform="translate(107,158)"/>
<path d="M0 0 C1.32 0 2.64 0 4 0 C4 2.31 4 4.62 4 7 C5.65 7 7.3 7 9 7 C9 4.69 9 2.38 9 0 C10.32 0 11.64 0 13 0 C13 6.27 13 12.54 13 19 C11.68 19 10.36 19 9 19 C9 16.36 9 13.72 9 11 C7.35 11 5.7 11 4 11 C4 13.64 4 16.28 4 19 C2.68 19 1.36 19 0 19 C0 12.73 0 6.46 0 0 Z " fill="#F3F6F3" transform="translate(101,131)"/>
<path d="M0 0 C1.0725 0.2475 2.145 0.495 3.25 0.75 C3.25 2.07 3.25 3.39 3.25 4.75 C0.75907189 5.99546405 -0.16080733 5.5267578 -2.75 4.75 C-2.75 5.41 -2.75 6.07 -2.75 6.75 C-1.80125 7.018125 -0.8525 7.28625 0.125 7.5625 C3.25 8.75 3.25 8.75 5.25 11.75 C5.04362145 14.501714 4.5762715 16.25200666 3.0625 18.5625 C0.38782006 20.31487651 -1.62429478 20.07559429 -4.75 19.75 C-5.74 19.09 -6.73 18.43 -7.75 17.75 C-7.42 16.43 -7.09 15.11 -6.75 13.75 C-3.78 14.245 -3.78 14.245 -0.75 14.75 C-0.75 14.09 -0.75 13.43 -0.75 12.75 C-1.719375 12.37875 -2.68875 12.0075 -3.6875 11.625 C-6.75 9.75 -6.75 9.75 -7.875 6.8125 C-7.75 3.75 -7.75 3.75 -6.25 1.3125 C-3.75 -0.25 -3.75 -0.25 0 0 Z " fill="#EEF3EE" transform="translate(24.75,130.25)"/>
<path d="M0 0 C1.65 0 3.3 0 5 0 C5 6.27 5 12.54 5 19 C3.35 19 1.7 19 0 19 C0 12.73 0 6.46 0 0 Z " fill="#DDE7DD" transform="translate(99,158)"/>
<path d="M0 0 C0.33 0 0.66 0 1 0 C1.36351563 1.46759766 1.36351563 1.46759766 1.734375 2.96484375 C3.6006516 10.32386903 5.63677729 17.15343948 9 24 C4.72749123 23.17100576 2.84408867 21.30529224 0 18 C-1.03396486 14.98691222 -1.13466503 12.17012935 -1.125 9 C-1.12757812 8.154375 -1.13015625 7.30875 -1.1328125 6.4375 C-1.00833711 4.15301056 -0.63877457 2.19008426 0 0 Z " fill="#246C2B" transform="translate(68,63)"/>
<path d="M0 0 C2.375 -0.1875 2.375 -0.1875 5 0 C7.56687367 3.8503105 6.83288724 5.58569763 6 10 C3.625 10.625 3.625 10.625 1 11 C-1 9 -1 9 -1.1875 5.5 C-1 2 -1 2 0 0 Z " fill="#1E6A27" transform="translate(18,162)"/>
<path d="M0 0 C3.96 0 7.92 0 12 0 C12 3.96 12 7.92 12 12 C11.67 11.34 11.34 10.68 11 10 C10.34 10 9.68 10 9 10 C8.62875 9.071875 8.2575 8.14375 7.875 7.1875 C5.69057041 3.4739697 3.93281241 2.57312496 0 1 C0 0.67 0 0.34 0 0 Z " fill="#000600" transform="translate(121,0)"/>
<path d="M0 0 C0.33 0 0.66 0 1 0 C1 3.96 1 7.92 1 12 C-2.96 12 -6.92 12 -11 12 C-9.68 11.01 -8.36 10.02 -7 9 C-3.98894452 6.20401991 -1.5626448 3.8355827 0 0 Z " fill="#000000" transform="translate(132,175)"/>
<path d="M0 0 C0.99 1.32 1.98 2.64 3 4 C5.88117056 7.0289229 8.63820806 9.47865604 12 12 C8.04 12 4.08 12 0 12 C0 8.04 0 4.08 0 0 Z " fill="#000000" transform="translate(0,175)"/>
<path d="M0 0 C3.96 0 7.92 0 12 0 C10.68 0.99 9.36 1.98 8 3 C4.9710771 5.88117056 2.52134396 8.63820806 0 12 C0 8.04 0 4.08 0 0 Z " fill="#000000" transform="translate(0,0)"/>
<path d="M0 0 C0.66 0.33 1.32 0.66 2 1 C1.61328125 1.42410156 1.2265625 1.84820313 0.828125 2.28515625 C-2.7394097 6.30304806 -5.48173429 10.25403771 -8 15 C-8.89271417 12.58967173 -9.03362068 11.15969823 -8.5 8.625 C-6.37472268 4.90576468 -3.35002363 2.60656919 0 0 Z " fill="#27662B" transform="translate(83,18)"/>
<path d="M0 0 C3.3 0.99 6.6 1.98 10 3 C9.67 3.99 9.34 4.98 9 6 C1.49230769 5.38461538 1.49230769 5.38461538 -1 3.4375 C-1.33 2.963125 -1.66 2.48875 -2 2 C-1.34 1.67 -0.68 1.34 0 1 C0 0.67 0 0.34 0 0 Z " fill="#337237" transform="translate(56,52)"/>
<path d="M0 0 C1.35158203 0.15275391 1.35158203 0.15275391 2.73046875 0.30859375 C3.41753906 0.39238281 4.10460937 0.47617187 4.8125 0.5625 C4.8125 0.8925 4.8125 1.2225 4.8125 1.5625 C3.79929687 1.74425781 3.79929687 1.74425781 2.765625 1.9296875 C1.42757812 2.18105469 1.42757812 2.18105469 0.0625 2.4375 C-1.26007813 2.68113281 -1.26007813 2.68113281 -2.609375 2.9296875 C-5.188452 3.45177341 -5.188452 3.45177341 -7.328125 4.6953125 C-9.1875 5.5625 -9.1875 5.5625 -12.1875 4.5625 C-8.17306582 0.27120829 -5.8155392 -0.67973835 0 0 Z " fill="#15601B" transform="translate(84.1875,32.4375)"/>
<path d="M0 0 C2.95409701 1.37154504 5.44008376 2.98863724 8 5 C3.03926578 6.32286246 -1.91111512 6.08893197 -7 6 C-7 5.67 -7 5.34 -7 5 C-4.03 5 -1.06 5 2 5 C1.34 3.35 0.68 1.7 0 0 Z " fill="#49804D" transform="translate(58,103)"/>
<path d="M0 0 C0.99 0.33 1.98 0.66 3 1 C2.47731534 3.76276177 1.89130413 6.3260876 1 9 C-0.98 8.34 -2.96 7.68 -5 7 C-5 6.34 -5 5.68 -5 5 C-3.35 5 -1.7 5 0 5 C0 3.68 0 2.36 0 1 C0 0.67 0 0.34 0 0 Z " fill="#125C18" transform="translate(27,130)"/>
<path d="M0 0 C0.33 0 0.66 0 1 0 C1.625 3.375 1.625 3.375 2 7 C1.34 7.66 0.68 8.32 0 9 C-0.66 9 -1.32 9 -2 9 C-2.66 7.68 -3.32 6.36 -4 5 C-2.68 4.67 -1.36 4.34 0 4 C0 2.68 0 1.36 0 0 Z " fill="#2A7032" transform="translate(46,166)"/>
<path d="M0 0 C2.475 0.495 2.475 0.495 5 1 C4.67 2.32 4.34 3.64 4 5 C2.68 5 1.36 5 0 5 C0 3.35 0 1.7 0 0 Z " fill="#266B2D" transform="translate(36,162)"/>
<path d="M0 0 C2.475 0.495 2.475 0.495 5 1 C4.67 2.32 4.34 3.64 4 5 C2.68 5 1.36 5 0 5 C0 3.35 0 1.7 0 0 Z " fill="#1E6726" transform="translate(74,135)"/>
<path d="M0 0 C1.98362069 2.91708924 1.9876191 4.12380904 1.625 7.75 C1.41875 8.8225 1.2125 9.895 1 11 C-0.32 10.34 -1.64 9.68 -3 9 C-2.34 8.01 -1.68 7.02 -1 6 C-0.60986284 4.0103005 -0.26797351 2.00980131 0 0 Z " fill="#15601B" transform="translate(83,134)"/>
<path d="M0 0 C0.33 1.32 0.66 2.64 1 4 C2.32 4 3.64 4 5 4 C4.67 4.99 4.34 5.98 4 7 C2.35 6.67 0.7 6.34 -1 6 C-0.67 4.02 -0.34 2.04 0 0 Z " fill="#0D5613" transform="translate(53,166)"/>
<path d="M0 0 C0.33 0 0.66 0 1 0 C1.33 3.3 1.66 6.6 2 10 C1.01 10.33 0.02 10.66 -1 11 C-1.14285714 3.57142857 -1.14285714 3.57142857 0 0 Z " fill="#1B5E20" transform="translate(68,63)"/>
<path d="M0 0 C2.31 0.66 4.62 1.32 7 2 C6.67 2.99 6.34 3.98 6 5 C4.68 4.67 3.36 4.34 2 4 C2 3.34 2 2.68 2 2 C1.34 2 0.68 2 0 2 C0 1.34 0 0.68 0 0 Z " fill="#1C6725" transform="translate(18,141)"/>
<path d="M0 0 C0.66 0.66 1.32 1.32 2 2 C1.625 5.625 1.625 5.625 1 9 C-0.32 9.33 -1.64 9.66 -3 10 C-2.690625 9.46375 -2.38125 8.9275 -2.0625 8.375 C-0.82172561 5.6015043 -0.4090325 2.99957163 0 0 Z " fill="#0D5B15" transform="translate(45,161)"/>
<path d="M0 0 C1.32 1.65 2.64 3.3 4 5 C3.01 5.33 2.02 5.66 1 6 C0.01 4.35 -0.98 2.7 -2 1 C-1.34 0.67 -0.68 0.34 0 0 Z " fill="#1B6121" transform="translate(73,81)"/>
<path d="M0 0 C0.66 0.33 1.32 0.66 2 1 C1.39816251 3.02045442 0.72693904 5.02111039 0 7 C-0.99 7.495 -0.99 7.495 -2 8 C-2.125 5.125 -2.125 5.125 -2 2 C-1.34 1.34 -0.68 0.68 0 0 Z " fill="#1A611F" transform="translate(76,25)"/>
</svg>
