<?xml version="1.0" encoding="UTF-8"?>
<svg version="1.1" xmlns="http://www.w3.org/2000/svg" width="1404" height="1501">
<path d="M0 0 C0.96627319 0.00054382 1.93254639 0.00108765 2.92810059 0.00164795 C18.84049449 0.04269482 34.08356054 1.02965073 49.6875 4.375 C50.69538574 4.58398926 51.70327148 4.79297852 52.74169922 5.00830078 C104.50321974 16.00999317 152.9173079 44.54313739 185.6875 86.375 C186.50089844 87.38304688 187.31429687 88.39109375 188.15234375 89.4296875 C193.99601744 96.7441564 199.00954738 104.36092566 203.62597656 112.50292969 C204.31374136 113.71585068 205.0080163 114.92511251 205.70996094 116.12988281 C216.38671462 134.49389915 223.21182745 154.67501446 227.6875 175.375 C227.86539063 176.17389648 228.04328125 176.97279297 228.2265625 177.79589844 C232.75267207 199.14225251 236.72586287 238.29827426 226.6875 258.375 C227.27160645 258.53500488 227.85571289 258.69500977 228.45751953 258.85986328 C235.38798245 260.83902394 241.94309499 263.4112946 248.5625 266.25 C249.68454834 266.72904785 250.80659668 267.2080957 251.96264648 267.70166016 C289.55645443 283.87837386 325.69044379 302.5420654 359.6875 325.375 C360.33122559 325.80554688 360.97495117 326.23609375 361.63818359 326.6796875 C381.94631832 340.30917281 401.48627161 355.04172937 420.04443359 370.97021484 C421.70620437 372.39099182 423.37733978 373.80002753 425.05078125 375.20703125 C438.92633564 386.91211891 451.90221676 399.50072919 464.75 412.3125 C465.56145981 413.11994156 465.56145981 413.11994156 466.38931274 413.94369507 C472.37588078 419.90773967 478.20393771 425.93909443 483.6875 432.375 C485.14195517 433.98268373 486.59970895 435.58739715 488.0625 437.1875 C491.90678245 441.45245308 495.58276905 445.8236085 499.19140625 450.2890625 C500.99948156 452.52439817 502.81862763 454.74688205 504.65234375 456.9609375 C517.38319154 472.37877674 528.89652268 488.50879139 540 505.125 C540.464133 505.81802216 540.92826599 506.51104431 541.40646362 507.22506714 C547.7930651 516.77775112 553.8526888 526.47654271 559.6875 536.375 C560.18902588 537.21015137 560.69055176 538.04530273 561.20727539 538.90576172 C577.87392841 566.66187576 591.99665061 596.19741222 603.6875 626.375 C603.95157654 627.05399353 604.21565308 627.73298706 604.48773193 628.43255615 C630.41656735 695.28795501 646.67754787 768.18731488 646.890625 840.10546875 C646.89764582 841.57804393 646.90473265 843.05061879 646.91188049 844.52319336 C646.93128281 849.20296669 646.93631442 853.88269051 646.9375 858.5625 C646.93794186 859.35942387 646.93838371 860.15634773 646.93883896 860.97742081 C646.94570417 884.57796435 646.66533278 907.93001412 643.6875 931.375 C643.51311063 932.82897607 643.33980575 934.28308254 643.16748047 935.73730469 C638.34937407 976.02205039 630.73260943 1017.20534968 616.6875 1055.375 C617.39132812 1055.61605469 618.09515625 1055.85710937 618.8203125 1056.10546875 C638.08567265 1064.63577127 657.04395052 1086.23523423 669.6875 1102.375 C670.50089844 1103.38304687 671.31429688 1104.39109375 672.15234375 1105.4296875 C677.99601744 1112.7441564 683.00954738 1120.36092566 687.62597656 1128.50292969 C688.31374136 1129.71585068 689.0080163 1130.92511251 689.70996094 1132.12988281 C700.38671462 1150.49389915 707.21182745 1170.67501446 711.6875 1191.375 C711.86539062 1192.17389648 712.04328125 1192.97279297 712.2265625 1193.79589844 C717.42953431 1218.33451746 717.14758656 1247.91989531 711.6875 1272.375 C711.48882324 1273.28523926 711.29014648 1274.19547852 711.08544922 1275.13330078 C701.94217047 1315.83630124 681.07533808 1350.20749623 652.6875 1380.375 C652.07132813 1381.03371094 651.45515625 1381.69242188 650.8203125 1382.37109375 C645.84886297 1387.52094458 640.28576328 1391.92996436 634.6875 1396.375 C633.70910156 1397.17035156 632.73070312 1397.96570312 631.72265625 1398.78515625 C622.87281417 1405.82708608 613.4759118 1411.72515661 603.6875 1417.375 C602.99672363 1417.77605957 602.30594727 1418.17711914 601.59423828 1418.59033203 C566.39447391 1438.78802972 525.69151382 1447.83566935 485.375 1447.75 C484.40872681 1447.74945618 483.44245361 1447.74891235 482.44689941 1447.74835205 C466.53450551 1447.70730518 451.29143946 1446.72034927 435.6875 1443.375 C434.67961426 1443.16601074 433.67172852 1442.95702148 432.63330078 1442.74169922 C400.78655571 1435.97280817 371.5488074 1422.60076593 344.6875 1404.375 C344.09662598 1404.72578613 343.50575195 1405.07657227 342.89697266 1405.43798828 C268.42720536 1449.53700452 188.94254483 1480.81442554 20.9921875 1501.578125 C19.52237417 1501.58514645 18.05256114 1501.59223328 16.58274841 1501.59938049 C11.90932783 1501.61878877 7.23595681 1501.62381475 2.5625 1501.625 C1.36839823 1501.62566278 1.36839823 1501.62566278 0.15017319 1501.62633896 C-23.07962803 1501.6331027 -46.18210222 1501.49682377 -69.26818848 1498.62823486 C-71.41325159 1498.36251961 -73.55948676 1498.10823385 -75.70605469 1497.85498047 C-150.72133289 1488.89405741 -222.23283442 1466.92249885 -317.18530273 1419.32226562 C-323.33722213 1415.48465315 -323.33722213 1415.48465315 -330.3125 1414.375 C-333.1174116 1415.55634009 -335.58217722 1417.15135801 -338.125 1418.8125 C-339.6490093 1419.75282164 -341.17644746 1420.68760565 -342.70703125 1421.6171875 C-343.47869629 1422.08608398 -344.25036133 1422.55498047 -345.04541016 1423.03808594 C-366.45281486 1435.66213808 -391.10760974 1442.64363197 -415.3125 1447.375 C-416.16118652 1447.55289062 -417.00987305 1447.73078125 -417.88427734 1447.9140625 C-446.57313553 1453.77629016 -479.80130094 1452.48755377 -508.3125 1446.375 C-509.32038574 1446.16601074 -510.32827148 1445.95702148 -511.36669922 1445.74169922 C-563.12821974 1434.74000683 -611.5423079 1406.20686261 -644.3125 1364.375 C-645.12589844 1363.36695313 -645.93929687 1362.35890625 -646.77734375 1361.3203125 C-652.62101744 1354.0058436 -657.63454738 1346.38907434 -662.25097656 1338.24707031 C-662.93874136 1337.03414932 -663.6330163 1335.82488749 -664.33496094 1334.62011719 C-675.01171462 1316.25610085 -681.83682745 1296.07498554 -686.3125 1275.375 C-686.49039063 1274.57610352 -686.66828125 1273.77720703 -686.8515625 1272.95410156 C-692.05453431 1248.41548254 -691.77258656 1218.83010469 -686.3125 1194.375 C-686.01448486 1193.00964111 -686.01448486 1193.00964111 -685.71044922 1191.61669922 C-675.64444122 1146.80599843 -649.41227285 1100.43436843 -612.3125 1072.375 C-611.6525 1072.375 -610.9925 1072.375 -610.3125 1072.375 C-610.60382813 1071.4770874 -610.89515625 1070.5791748 -611.1953125 1069.65405273 C-617.96585354 1048.72417214 -624.24225264 1027.79205023 -629.3125 1006.375 C-629.61639648 1005.0957666 -629.92029297 1003.8165332 -630.23339844 1002.49853516 C-635.56346883 979.8173657 -639.15061924 956.91300169 -642.0111084 933.79870605 C-642.28716968 931.57869931 -642.57275634 929.36013674 -642.86035156 927.14160156 C-648.46129642 882.14474639 -648.02187533 833.32588673 -642.3125 788.375 C-642.13811063 786.92102393 -641.96480575 785.46691746 -641.79248047 784.01269531 C-634.52304546 723.23210718 -618.79830302 663.51337569 -594.3125 607.375 C-593.84779297 606.30878418 -593.38308594 605.24256836 -592.90429688 604.14404297 C-589.83182065 597.16023819 -586.61881758 590.25091194 -583.3125 583.375 C-582.78043945 582.26705078 -582.24837891 581.15910156 -581.70019531 580.01757812 C-573.64135435 563.34186914 -564.91364381 547.21029612 -555.3125 531.375 C-554.76207031 530.46137695 -554.21164062 529.54775391 -553.64453125 528.60644531 C-536.27387767 499.83758972 -516.60668019 472.52124055 -494.71728516 447.01806641 C-493.29650818 445.35629563 -491.88747247 443.68516022 -490.48046875 442.01171875 C-478.77538109 428.13616436 -466.18677081 415.16028324 -453.375 402.3125 C-452.83670563 401.77152679 -452.29841125 401.23055359 -451.74380493 400.67318726 C-445.77976033 394.68661922 -439.74840557 388.85856229 -433.3125 383.375 C-431.70481627 381.92054483 -430.10010285 380.46279105 -428.5 379 C-424.23504692 375.15571755 -419.8638915 371.47973095 -415.3984375 367.87109375 C-413.16310183 366.06301844 -410.94061795 364.24387237 -408.7265625 362.41015625 C-398.53801001 354.00016698 -388.04935249 346.07088322 -377.3125 338.375 C-376.40016602 337.72063965 -375.48783203 337.0662793 -374.54785156 336.39208984 C-362.18372985 327.56450483 -349.63146309 319.29957091 -336.50097656 311.65966797 C-334.53483275 310.5055126 -332.58786804 309.32723176 -330.6484375 308.12890625 C-303.1799026 291.17875369 -274.01280404 277.10089463 -244.125 265 C-243.29761322 264.66477325 -242.47022644 264.32954651 -241.61776733 263.98416138 C-239.27477631 263.03836871 -236.9292472 262.09931506 -234.58203125 261.1640625 C-233.87511139 260.8804335 -233.16819153 260.5968045 -232.43984985 260.30458069 C-227.54857922 258.375 -227.54857922 258.375 -225.3125 258.375 C-225.745625 256.8590625 -225.745625 256.8590625 -226.1875 255.3125 C-229.35195301 242.42075097 -229.68463086 229.44787269 -229.625 216.25 C-229.62284485 215.39027588 -229.6206897 214.53055176 -229.61846924 213.64477539 C-229.56637348 200.6828699 -229.14722028 188.07138869 -226.3125 175.375 C-226.11382324 174.46476074 -225.91514648 173.55452148 -225.71044922 172.61669922 C-216.56717047 131.91369876 -195.70033808 97.54250377 -167.3125 67.375 C-166.69632813 66.71628906 -166.08015625 66.05757813 -165.4453125 65.37890625 C-160.47386297 60.22905542 -154.91076328 55.82003564 -149.3125 51.375 C-147.84490234 50.18197266 -147.84490234 50.18197266 -146.34765625 48.96484375 C-137.49781417 41.92291392 -128.1009118 36.02484339 -118.3125 30.375 C-117.62172363 29.97394043 -116.93094727 29.57288086 -116.21923828 29.15966797 C-81.01947391 8.96197028 -40.31651382 -0.08566935 0 0 Z M221.6875 275.375 C221.06875 277.24478516 221.06875 277.24478516 220.4375 279.15234375 C202.92474926 331.18640984 167.10721706 373.09715305 119.6875 400.375 C118.65786133 400.97223877 118.65786133 400.97223877 117.60742188 401.58154297 C82.59500048 421.6740899 43.54807507 429.277075 3.6875 431.375 C3.6875 500.015 3.6875 568.655 3.6875 639.375 C8.47116066 635.350535 8.47116066 635.350535 12.875 630.9375 C13.473125 630.421875 14.07125 629.90625 14.6875 629.375 C16.9375 629.625 16.9375 629.625 18.6875 630.375 C17.7897782 635.66995033 14.09791468 638.51674516 10.4375 642.1875 C9.76847656 642.89326172 9.09945312 643.59902344 8.41015625 644.32617188 C7.75402344 644.98810547 7.09789062 645.65003906 6.421875 646.33203125 C5.82600586 646.94022705 5.23013672 647.54842285 4.61621094 648.17504883 C2.6875 649.375 2.6875 649.375 0.19189453 649.26757812 C-4.22008349 647.69512817 -6.95673518 644.345473 -10.1875 641.0625 C-10.88875 640.38509766 -11.59 639.70769531 -12.3125 639.00976562 C-12.96992187 638.35041016 -13.62734375 637.69105469 -14.3046875 637.01171875 C-14.90651855 636.41061279 -15.50834961 635.80950684 -16.12841797 635.19018555 C-17.3125 633.375 -17.3125 633.375 -17.00048828 631.14770508 C-16.65993408 630.27021606 -16.65993408 630.27021606 -16.3125 629.375 C-12.21066897 629.89124876 -10.39856117 632.00806928 -7.625 634.9375 C-6.20187401 636.43050124 -4.76802676 637.91356847 -3.3125 639.375 C-2.9825 639.375 -2.6525 639.375 -2.3125 639.375 C-2.3125 570.735 -2.3125 502.095 -2.3125 431.375 C-16.1725 430.385 -16.1725 430.385 -30.3125 429.375 C-60.06931533 425.07856142 -87.77959119 416.49540256 -114.3125 402.375 C-114.95606445 402.03919922 -115.59962891 401.70339844 -116.26269531 401.35742188 C-131.64972813 393.29281094 -145.69195847 383.31271372 -158.3125 371.375 C-159.68231522 370.18152293 -161.05714217 368.99376776 -162.4375 367.8125 C-170.2400162 360.97943471 -176.88191476 353.50402885 -183.3125 345.375 C-184.12976563 344.36308594 -184.94703125 343.35117187 -185.7890625 342.30859375 C-191.626203 334.99631863 -196.63735184 327.38412811 -201.25097656 319.24707031 C-201.93874136 318.03414932 -202.6330163 316.82488749 -203.33496094 315.62011719 C-210.51598712 303.26875216 -215.79960549 289.91368354 -220.3125 276.375 C-227.624006 277.74354456 -234.05893293 280.11516843 -240.875 283.0625 C-241.98907227 283.54017822 -243.10314453 284.01785645 -244.25097656 284.51000977 C-266.44814694 294.12013271 -288.31220829 304.34715658 -309.3125 316.375 C-310.14700684 316.84486328 -310.98151367 317.31472656 -311.84130859 317.79882812 C-342.04231805 334.83143273 -370.88403025 354.83471545 -397.57568359 376.94238281 C-400.07484405 379.00382132 -402.60295371 381.02916707 -405.125 383.0625 C-409.81247804 386.89834914 -414.29419377 390.9298829 -418.75 395.03125 C-420.96934276 397.06113667 -423.21922034 399.03995498 -425.5 401 C-428.93575196 403.98091718 -432.11854361 407.16235153 -435.30859375 410.40234375 C-437.26928234 412.3324563 -439.29069714 414.14234898 -441.375 415.9375 C-447.23894921 420.99973741 -452.44512459 426.47529566 -457.49609375 432.33984375 C-459.36478832 434.43358541 -461.31294735 436.40626897 -463.3125 438.375 C-467.19275687 442.21082645 -470.767571 446.23015994 -474.3125 450.375 C-475.21822194 451.41712585 -476.12451803 452.45875285 -477.03125 453.5 C-483.51715008 460.97202922 -489.78941207 468.57425242 -495.8125 476.42431641 C-496.8363642 477.75580647 -497.86524032 479.08345381 -498.8984375 480.40771484 C-516.80564589 503.3854796 -533.07131276 527.96539272 -547.3125 553.375 C-548.05669189 554.69636963 -548.05669189 554.69636963 -548.81591797 556.04443359 C-588.9034664 627.52383347 -614.32385947 705.60871359 -628.3125 868.375 C-628.29461426 869.32084961 -628.27672852 870.26669922 -628.25830078 871.24121094 C-626.89479712 935.59460277 -615.80880279 999.34742321 -595.3125 1060.375 C-594.631875 1059.97410156 -593.95125 1059.57320312 -593.25 1059.16015625 C-590.5541403 1057.57920661 -587.85167237 1056.01009952 -585.14697266 1054.44433594 C-583.34473525 1053.39379031 -581.55322247 1052.32653206 -579.76171875 1051.2578125 C-555.94833267 1037.24364266 -530.30347458 1028.73124256 -503.3125 1023.375 C-502.51763184 1023.20838867 -501.72276367 1023.04177734 -500.90380859 1022.87011719 C-472.11382884 1017.04091567 -438.92421046 1018.24089746 -410.3125 1024.375 C-408.80067139 1024.68848389 -408.80067139 1024.68848389 -407.25830078 1025.00830078 C-359.18535308 1035.22600261 -310.18407047 1061.27101073 -279.3125 1100.375 C-275.02963918 1098.79923045 -272.62746878 1095.53676242 -269.8125 1092.125 C-268.73844097 1090.84752195 -267.66421771 1089.57018195 -266.58984375 1088.29296875 C-266.04440918 1087.63989746 -265.49897461 1086.98682617 -264.93701172 1086.31396484 C-262.44057654 1083.33430025 -259.90806875 1080.38601893 -257.375 1077.4375 C-256.88322266 1076.86354492 -256.39144531 1076.28958984 -255.88476562 1075.69824219 C-251.66597655 1070.7763216 -247.41938397 1065.87876908 -243.17041016 1060.98291016 C-238.02088251 1055.04611522 -232.90549766 1049.08046545 -227.79638672 1043.10888672 C-225.30354476 1040.19605954 -222.80787234 1037.28565939 -220.3125 1034.375 C-219.3124866 1033.20834482 -218.31248659 1032.04167816 -217.3125 1030.875 C-211.3125 1023.875 -205.3125 1016.875 -199.3125 1009.875 C-198.81758057 1009.29758057 -198.32266113 1008.72016113 -197.81274414 1008.12524414 C-196.81198394 1006.95771772 -195.81117008 1005.7902373 -194.81030273 1004.62280273 C-192.32149324 1001.71966371 -189.83359909 998.81575051 -187.34765625 995.91015625 C-181.64522169 989.24731166 -175.91864311 982.60628295 -170.17041016 975.98291016 C-165.52204667 970.62389809 -160.90050247 965.2423579 -156.2890625 959.8515625 C-154.26745017 957.48834439 -152.24103563 955.12936957 -150.2109375 952.7734375 C-139.25540912 942.11449496 -139.25540912 942.11449496 -132.3125 930.375 C-137.9225 930.375 -143.5325 930.375 -149.3125 930.375 C-149.3125 928.725 -149.3125 927.075 -149.3125 925.375 C-140.4025 925.045 -131.4925 924.715 -122.3125 924.375 C-121.6525 933.285 -120.9925 942.195 -120.3125 951.375 C-121.9625 951.375 -123.6125 951.375 -125.3125 951.375 C-125.6425 945.765 -125.9725 940.155 -126.3125 934.375 C-130.52245518 937.88329598 -133.32879296 940.36529824 -136.5625 944.5 C-139.69376742 948.41933809 -142.91064431 952.18789554 -146.3125 955.875 C-150.42628909 960.3448512 -154.28337297 964.96544893 -158.09765625 969.69140625 C-160.26882827 972.32208557 -162.51491357 974.85442424 -164.8125 977.375 C-167.92708668 980.79239372 -170.9043662 984.2802235 -173.8125 987.875 C-177.42282442 992.33776213 -181.19677929 996.60219533 -185.0625 1000.84375 C-187.39112053 1003.4634481 -189.60812947 1006.1501531 -191.8125 1008.875 C-195.42282442 1013.33776213 -199.19677929 1017.60219533 -203.0625 1021.84375 C-205.39112053 1024.4634481 -207.60812947 1027.1501531 -209.8125 1029.875 C-213.42399134 1034.33920457 -217.19910694 1038.60502114 -221.06640625 1042.84765625 C-223.37437598 1045.44462393 -225.56805863 1048.10904013 -227.75 1050.8125 C-231.60958603 1055.58496203 -235.68449991 1060.10609109 -239.83984375 1064.62109375 C-243.05959519 1068.20707284 -246.07155176 1071.94201492 -249.09765625 1075.69140625 C-251.26882827 1078.32208557 -253.51491357 1080.85442424 -255.8125 1083.375 C-260.5205942 1088.5440265 -264.91599062 1093.94101645 -269.3125 1099.375 C-270.97129108 1101.38178921 -272.64040465 1103.37927329 -274.3125 1105.375 C-271.00459309 1110.66362928 -267.68882765 1115.90488513 -264 1120.9375 C-243.43582293 1150.26899364 -230.32332784 1188.07244309 -230.109375 1224.046875 C-230.10231537 1224.84309265 -230.09525574 1225.6393103 -230.08798218 1226.45965576 C-229.85877387 1259.90615477 -229.85877387 1259.90615477 -233.3125 1275.375 C-233.51117676 1276.28523926 -233.70985352 1277.19547852 -233.91455078 1278.13330078 C-244.35529272 1324.61219916 -271.30071149 1369.34176919 -309.2265625 1398.625 C-309.91492188 1399.2025 -310.60328125 1399.78 -311.3125 1400.375 C-311.3125 1401.035 -311.3125 1401.695 -311.3125 1402.375 C-243.00074249 1439.57116611 -170.64863374 1465.89969023 9.6875 1484.375 C11.12971924 1484.34817139 11.12971924 1484.34817139 12.60107422 1484.32080078 C90.5871972 1482.67835668 167.87005325 1467.04552652 269.15527344 1424.57128906 C271.48262908 1423.4717863 273.81945048 1422.3980267 276.1640625 1421.3359375 C294.6414642 1412.91955188 312.19035485 1402.63891424 329.6875 1392.375 C327.299707 1389.27403874 324.94405085 1386.56588842 321.9375 1384.0625 C313.94624244 1377.19385903 307.22017667 1369.63308463 300.6875 1361.375 C299.87023437 1360.36308594 299.05296875 1359.35117188 298.2109375 1358.30859375 C292.373797 1350.99631863 287.36264816 1343.38412811 282.74902344 1335.24707031 C282.06125864 1334.03414932 281.3669837 1332.82488749 280.66503906 1331.62011719 C269.98828538 1313.25610085 263.16317255 1293.07498554 258.6875 1272.375 C258.50960937 1271.57610352 258.33171875 1270.77720703 258.1484375 1269.95410156 C252.94546569 1245.41548254 253.22741344 1215.83010469 258.6875 1191.375 C258.88617676 1190.46476074 259.08485352 1189.55452148 259.28955078 1188.61669922 C264.27509074 1166.42264382 272.53921691 1144.3775062 285.0703125 1125.26953125 C285.89778219 1123.30272488 285.89778219 1123.30272488 285.07421875 1120.96484375 C283.47404534 1117.97635087 281.60546288 1115.68035846 279.375 1113.125 C275.19488749 1108.25295892 271.24506612 1103.2462905 267.375 1098.125 C263.0174906 1092.37169566 258.5734567 1086.70825108 254 1081.125 C249.27354213 1075.35438185 244.67001107 1069.51121402 240.14453125 1063.58203125 C236.17830767 1058.38904178 232.11869905 1053.26879039 228.07421875 1048.13671875 C226.70332318 1046.39510212 225.33550009 1044.65112115 223.96875 1042.90625 C219.77542019 1037.55502107 215.56807244 1032.21715746 211.30664062 1026.91992188 C206.53513534 1020.98828589 201.85211867 1015.00163868 197.25 1008.9375 C192.40756984 1002.55855042 187.42897209 996.31076688 182.35400391 990.11572266 C179.04174021 986.06494758 175.79716889 981.97381232 172.625 977.8125 C168.62133258 972.56252966 164.5183861 967.40364175 160.37451172 962.26391602 C155.84893302 956.62761897 151.46873952 950.88487684 147.1394043 945.09667969 C146.63062744 944.42282227 146.12185059 943.74896484 145.59765625 943.0546875 C145.15558838 942.46413574 144.71352051 941.87358398 144.25805664 941.26513672 C142.22983644 938.82421012 139.93158109 936.61908109 137.6875 934.375 C136.2025 942.295 136.2025 942.295 134.6875 950.375 C133.3675 950.705 132.0475 951.035 130.6875 951.375 C130.99643366 947.9996637 131.31028633 944.62480189 131.625 941.25 C131.71201172 940.29867187 131.79902344 939.34734375 131.88867188 938.3671875 C132.32945178 933.66553519 132.81918195 929.02167498 133.6875 924.375 C142.47357656 924.86889188 151.03751785 925.74322681 159.6875 927.375 C160.0175 928.695 160.3475 930.015 160.6875 931.375 C154.7475 931.045 148.8075 930.715 142.6875 930.375 C147.73684802 937.19844327 152.97611672 943.86385375 158.23193359 950.52832031 C160.55404846 953.47439157 162.87058355 956.42484006 165.1875 959.375 C166.10413789 960.54168928 167.02080461 961.70835591 167.9375 962.875 C239.4375 1053.875 239.4375 1053.875 240.81225586 1055.62475586 C241.72965009 1056.7923041 242.64713067 1057.95978449 243.56469727 1059.12719727 C245.84594245 1062.0298279 248.12571214 1064.93359274 250.40234375 1067.83984375 C254.59814668 1073.19277163 258.80710449 1078.53303701 263.0703125 1083.83251953 C268.56589487 1090.66423335 273.94418208 1097.57455823 279.23583984 1104.56567383 C283.8010234 1110.601703 283.8010234 1110.601703 288.6875 1116.375 C289.3475 1116.375 290.0075 1116.375 290.6875 1116.375 C292.19708608 1114.49817409 292.19708608 1114.49817409 293.75 1112.0625 C312.36210141 1084.77754309 337.24248267 1063.7377891 365.6875 1047.375 C366.37392578 1046.97684082 367.06035156 1046.57868164 367.76757812 1046.16845703 C402.97193369 1025.96576501 443.67659105 1016.914316 484 1017 C484.96627319 1017.00054382 485.93254639 1017.00108765 486.92810059 1017.00164795 C502.84049449 1017.04269482 518.08356054 1018.02965073 533.6875 1021.375 C535.19932861 1021.68848389 535.19932861 1021.68848389 536.74169922 1022.00830078 C556.5039321 1026.20867985 575.52810437 1032.95433571 593.60131836 1041.98779297 C597.44997568 1043.90324234 597.44997568 1043.90324234 601.6875 1044.375 C620.4173599 981.75644106 631.06671074 916.90759594 629.6875 851.375 C629.66961426 850.42915039 629.65172852 849.48330078 629.63330078 848.50878906 C627.98024507 770.48938583 612.23757266 692.86215696 566.6875 587.375 C566.26404297 586.4895752 565.84058594 585.60415039 565.40429688 584.69189453 C551.90535251 556.61901062 535.74459868 529.74779606 517.6875 504.375 C517.17477539 503.65119141 516.66205078 502.92738281 516.13378906 502.18164062 C508.92439331 492.02353706 501.50297892 482.07454019 493.6875 472.375 C492.94113281 471.44558594 492.19476562 470.51617187 491.42578125 469.55859375 C482.12231155 458.0837577 472.46717695 446.94466241 462.36376953 436.16894531 C460.53477084 434.2115491 458.7185492 432.24270681 456.90234375 430.2734375 C448.7617601 421.48587384 440.37138198 413.11670683 431.51660156 405.05126953 C429.67122423 403.36008416 427.84494267 401.65044269 426.0234375 399.93359375 C420.07769949 394.33556914 414.08028406 388.90172725 407.69921875 383.796875 C405.40852101 381.95480937 403.14573738 380.09242061 400.89453125 378.203125 C360.46718406 344.34629769 277.13770315 275.375 221.6875 275.375 Z " fill="#A99866" transform="translate(689.3125,-0.375)"/>
<path d="M0 0 C1.26457031 0.29003906 2.52914062 0.58007812 3.83203125 0.87890625 C32.17479788 7.8551382 57.07340883 21.80306682 78 42 C78.85207031 42.78890625 79.70414063 43.5778125 80.58203125 44.390625 C103.57025216 66.25658631 119.68032006 99.64287738 121.16113281 131.46240234 C121.20715268 135.43348908 121.24666149 139.40364178 121.25 143.375 C121.25067474 144.09308838 121.25134949 144.81117676 121.25204468 145.55102539 C121.23594417 156.32602913 120.78186231 166.53170688 118 177 C117.82839355 177.65242676 117.65678711 178.30485352 117.47998047 178.97705078 C107.95115871 214.32480693 85.68944018 244.97739002 55 265 C54.34451172 265.43006348 53.68902344 265.86012695 53.01367188 266.30322266 C37.10073849 276.57617748 19.38928282 283.56180078 1 288 C0.33935547 288.16371094 -0.32128906 288.32742188 -1.00195312 288.49609375 C-22.98827829 293.65680247 -50.10469495 293.42147298 -72 288 C-73.26457031 287.70996094 -74.52914062 287.41992188 -75.83203125 287.12109375 C-104.17479788 280.1448618 -129.07340883 266.19693318 -150 246 C-151.27810547 244.81664062 -151.27810547 244.81664062 -152.58203125 243.609375 C-175.57025216 221.74341369 -191.68032006 188.35712262 -193.16113281 156.53759766 C-193.20715268 152.56651092 -193.24666149 148.59635822 -193.25 144.625 C-193.25067474 143.90691162 -193.25134949 143.18882324 -193.25204468 142.44897461 C-193.23594417 131.67397087 -192.78186231 121.46829312 -190 111 C-189.82839355 110.34757324 -189.65678711 109.69514648 -189.47998047 109.02294922 C-179.95115871 73.67519307 -157.68944018 43.02260998 -127 23 C-126.34451172 22.56993652 -125.68902344 22.13987305 -125.01367188 21.69677734 C-109.10073849 11.42382252 -91.38928282 4.43819922 -73 0 C-72.33935547 -0.16371094 -71.67871094 -0.32742188 -70.99804688 -0.49609375 C-49.01172171 -5.65680247 -21.89530505 -5.42147298 0 0 Z " fill="#A99866" transform="translate(726,672)"/>
<path d="M0 0 C6.40459813 2.79968893 10.01517073 8.10664959 12.95703125 14.2578125 C14.69925645 22.96893848 13.59746999 30.42698996 9.58203125 38.3828125 C5.89749809 43.89281346 0.939679 46.05694408 -5.41796875 47.3828125 C-12.47788937 48.27931036 -17.54561052 46.38531484 -23.41796875 42.3828125 C-29.35667495 36.67943964 -30.47428525 29.34985452 -30.85546875 21.4453125 C-30.72622455 14.62121852 -28.60996177 9.71358783 -23.890625 4.7890625 C-16.87446657 -1.35230773 -9.01476383 -2.30102211 0 0 Z " fill="#FCFBFA" transform="translate(184.41796875,1220.6171875)"/>
<path d="M0 0 C4.62 0 9.24 0 14 0 C16.14217981 6.06685073 18.27826581 12.13579879 20.40869141 18.20678711 C21.1345508 20.27248226 21.86208255 22.33759054 22.59130859 24.40209961 C23.63817777 27.36680462 24.67904752 30.33355656 25.71875 33.30078125 C26.04685669 34.2258699 26.37496338 35.15095856 26.7130127 36.1040802 C27.01332397 36.96474594 27.31363525 37.82541168 27.62304688 38.7121582 C27.88952026 39.46938675 28.15599365 40.2266153 28.43054199 41.00679016 C29 43 29 43 29 46 C25.7 46 22.4 46 19 46 C17.68 42.7 16.36 39.4 15 36 C9.39 35.67 3.78 35.34 -2 35 C-2.309375 36.44375 -2.61875 37.8875 -2.9375 39.375 C-3.45483647 41.78923686 -3.89485234 43.78970467 -5 46 C-8.3 46 -11.6 46 -15 46 C-14.32289461 40.79293491 -12.80911577 36.10533504 -11.09375 31.171875 C-10.80898804 30.34165833 -10.52422607 29.51144165 -10.23083496 28.65606689 C-9.63119143 26.91057762 -9.02930203 25.16585844 -8.42529297 23.421875 C-7.4987623 20.74642602 -6.57886723 18.06876805 -5.66015625 15.390625 C-5.0759031 13.69257676 -4.49128062 11.99465554 -3.90625 10.296875 C-3.49215881 9.09378693 -3.49215881 9.09378693 -3.06970215 7.86639404 C-1.11763914 2.23527828 -1.11763914 2.23527828 0 0 Z " fill="#FDFCFB" transform="translate(284,1221)"/>
<path d="M0 0 C4.04989149 2.3624367 5.64575689 5.18819288 7.5 9.4375 C7.5 10.4275 7.5 11.4175 7.5 12.4375 C4.2 12.4375 0.9 12.4375 -2.5 12.4375 C-3.16 11.1175 -3.82 9.7975 -4.5 8.4375 C-6.72890995 7.32304502 -8.03055106 7.27269714 -10.5 7.25 C-11.20125 7.23582031 -11.9025 7.22164062 -12.625 7.20703125 C-14.74524938 7.27237677 -14.74524938 7.27237677 -16.5 9.4375 C-16.66687448 12.02104218 -16.66687448 12.02104218 -16.5 14.4375 C-15.406875 14.85 -14.31375 15.2625 -13.1875 15.6875 C-12.46304688 15.96464844 -11.73859375 16.24179688 -10.9921875 16.52734375 C-9.24165498 17.16664481 -7.47365675 17.75912567 -5.6953125 18.31640625 C0.40723235 20.29270465 4.34975062 21.68014769 7.5 27.4375 C8.27711889 31.79244351 8.01486226 35.2533168 6.25 39.3125 C2.58423311 43.76378836 -0.85321779 45.21403052 -6.5 46.4375 C-12.64438516 46.93301493 -17.9266936 46.20766413 -23.5 43.4375 C-26.17186388 40.76563612 -28.13308392 37.96869987 -29.5 34.4375 C-29.5 33.1175 -29.5 31.7975 -29.5 30.4375 C-26.12133448 30.15224681 -22.86743334 29.9812671 -19.5 30.4375 C-17.4375 32.875 -17.4375 32.875 -16.5 35.4375 C-14.83438601 37.10311399 -12.84037295 36.60865945 -10.5625 36.625 C-9.66660156 36.63917969 -8.77070313 36.65335938 -7.84765625 36.66796875 C-5.30885466 36.66944769 -5.30885466 36.66944769 -3.5 34.4375 C-3.33312552 31.85395782 -3.33312552 31.85395782 -3.5 29.4375 C-4.74136719 29.06238281 -5.98273438 28.68726563 -7.26171875 28.30078125 C-8.90390142 27.7846667 -10.54581461 27.26769416 -12.1875 26.75 C-13.00412109 26.50572266 -13.82074219 26.26144531 -14.66210938 26.00976562 C-19.77687314 24.37386952 -22.99860178 22.71238264 -26.5 18.4375 C-28.26169599 14.91410802 -28.16440495 11.27349841 -27.5 7.4375 C-21.97111276 -2.43286246 -10.02269262 -4.38140221 0 0 Z " fill="#FBFAF8" transform="translate(140.5,1221.5625)"/>
<path d="M0 0 C5.28097404 1.79353835 7.79895251 4.60999202 11 9 C13.04939033 15.14817098 13.07320748 22.51897149 10.4375 28.5 C8.12465754 32.34139924 5.33576907 34.76341702 1 36 C-4.59609319 36.72110731 -9.30647334 36.75603869 -14.5 34.4375 C-19.97919112 29.09528866 -21.2599938 25.52969606 -21.5 17.9375 C-21.33242476 12.48841538 -20.93611995 9.04250157 -17 5 C-11.29547523 -0.02541467 -7.4679183 -0.62136762 0 0 Z " fill="#FBFAF8" transform="translate(1061,1213)"/>
<path d="M0 0 C5.51457824 2.56516163 9.29696476 6.55589594 11.51171875 12.27734375 C11.51171875 13.59734375 11.51171875 14.91734375 11.51171875 16.27734375 C8.1332301 16.562582 4.87950965 16.72892153 1.51171875 16.27734375 C-0.48828125 13.90234375 -0.48828125 13.90234375 -1.48828125 11.27734375 C-3.97869067 8.78693433 -4.91982482 8.95343361 -8.36328125 8.90234375 C-11.81852293 8.97204603 -13.10680105 9.01030761 -15.98828125 11.02734375 C-19.82171241 16.77749049 -20.13346139 21.42850838 -19.48828125 28.27734375 C-18.01139558 32.41262363 -16.48088852 35.28104012 -12.48828125 37.27734375 C-7.527207 37.81855185 -4.41995921 37.42268612 -0.48828125 34.27734375 C0.17171875 32.95734375 0.83171875 31.63734375 1.51171875 30.27734375 C4.81171875 30.27734375 8.11171875 30.27734375 11.51171875 30.27734375 C10.97347026 34.85245589 9.40986202 37.71039819 6.51171875 41.27734375 C0.22533355 46.09217266 -5.48155931 48.11699998 -13.48828125 47.27734375 C-19.95682045 45.0846186 -24.56584543 42.40617137 -27.73828125 36.27734375 C-31.42942896 28.53198463 -31.79713508 20.07580479 -28.92578125 11.96484375 C-23.70893812 0.28728385 -11.97564294 -3.47801247 0 0 Z " fill="#FBFBF9" transform="translate(234.48828125,1220.72265625)"/>
<path d="M0 0 C3.63972834 2.40705147 5.99295893 5.2398807 7.25 9.4375 C8.0118867 15.88756354 8.19361861 21.99802606 4.25 27.4375 C-1.08308444 32.25028352 -4.61118894 32.89796705 -11.69140625 32.85546875 C-16.32470264 32.22231075 -18.9509727 30.09132007 -21.75 26.4375 C-25.00310962 21.32074454 -24.41671237 15.25734335 -23.75 9.4375 C-22.06569528 4.58008549 -19.81920242 2.08305618 -15.4375 -0.5625 C-9.85399472 -2.07667092 -5.31143459 -2.63301885 0 0 Z " fill="#FCFBF9" transform="translate(683.75,198.5625)"/>
<path d="M0 0 C2.97 0 5.94 0 9 0 C11.97 6.93 14.94 13.86 18 21 C21.93277884 13.25725923 21.93277884 13.25725923 25.3125 5.375 C25.63863281 4.53710938 25.96476563 3.69921875 26.30078125 2.8359375 C26.53152344 2.23007813 26.76226563 1.62421875 27 1 C29.97 1 32.94 1 36 1 C36 11.89 36 22.78 36 34 C33.69 34 31.38 34 29 34 C28.67 28.39 28.34 22.78 28 17 C25.69 22.61 23.38 28.22 21 34 C19.35 34 17.7 34 16 34 C13.36 27.73 10.72 21.46 8 15 C7.67 21.27 7.34 27.54 7 34 C4.69 34 2.38 34 0 34 C0 22.78 0 11.56 0 0 Z " fill="#FBFAF8" transform="translate(730,197)"/>
<path d="M0 0 C20.53846154 0 20.53846154 0 25.875 4.625 C27.64279741 8.35701675 27.54993203 11.94786924 27 16 C25.61019502 18.96912882 24.30342972 20.69657028 22 23 C22.433125 23.77085938 22.86625 24.54171875 23.3125 25.3359375 C23.869375 26.33882812 24.42625 27.34171875 25 28.375 C25.556875 29.37273437 26.11375 30.37046875 26.6875 31.3984375 C28 34 28 34 28 36 C25.36 36 22.72 36 20 36 C18.99491199 34.21118264 17.99607264 32.41885304 17 30.625 C16.443125 29.62726563 15.88625 28.62953125 15.3125 27.6015625 C14 25 14 25 14 23 C12.02 23 10.04 23 8 23 C8 27.29 8 31.58 8 36 C5.36 36 2.72 36 0 36 C0 24.12 0 12.24 0 0 Z " fill="#FAF9F6" transform="translate(1143,1213)"/>
<path d="M0 0 C7 0 7 0 9.07983398 1.8359375 C9.62969971 2.67382812 10.17956543 3.51171875 10.74609375 4.375 C11.35517578 5.27734375 11.96425781 6.1796875 12.59179688 7.109375 C13.20087891 8.06328125 13.80996094 9.0171875 14.4375 10 C15.07365234 10.95390625 15.70980469 11.9078125 16.36523438 12.890625 C17.93170877 15.24622559 19.4687464 17.62135363 21 20 C21.33 13.4 21.66 6.8 22 0 C24.64 0 27.28 0 30 0 C30 11.88 30 23.76 30 36 C23 36 23 36 20.92016602 34.1640625 C20.37030029 33.32617188 19.82043457 32.48828125 19.25390625 31.625 C18.64482422 30.72265625 18.03574219 29.8203125 17.40820312 28.890625 C16.79912109 27.93671875 16.19003906 26.9828125 15.5625 26 C14.92634766 25.04609375 14.29019531 24.0921875 13.63476562 23.109375 C12.06829123 20.75377441 10.5312536 18.37864637 9 16 C8.67 22.6 8.34 29.2 8 36 C5.36 36 2.72 36 0 36 C0 24.12 0 12.24 0 0 Z " fill="#FAF9F6" transform="translate(1248,1213)"/>
<path d="M0 0 C7 0 7 0 9.1875 2.0546875 C9.785625 2.98539063 10.38375 3.91609375 11 4.875 C11.99 6.36580078 11.99 6.36580078 13 7.88671875 C13.66 8.91410156 14.32 9.94148438 15 11 C16.3259378 12.90101309 17.65872556 14.79727655 19 16.6875 C19.99 18.110625 20.98 19.53375 22 21 C22.33 14.4 22.66 7.8 23 1 C25.31 1 27.62 1 30 1 C30 12.55 30 24.1 30 36 C27.69 36 25.38 36 23 36 C20.77734375 33.69140625 20.77734375 33.69140625 18.9375 30.5625 C18.27621094 29.47582031 17.61492187 28.38914062 16.93359375 27.26953125 C16.29550781 26.19058594 15.65742187 25.11164063 15 24 C13.84524162 22.2421194 12.68008839 20.49097746 11.5 18.75 C10.675 17.5125 9.85 16.275 9 15 C8.67 21.93 8.34 28.86 8 36 C5.36 36 2.72 36 0 36 C0 24.12 0 12.24 0 0 Z " fill="#FBFAF8" transform="translate(1175,1213)"/>
<path d="M0 0 C17 0 17 0 23 4 C25.67348144 8.01022217 25.71022805 11.28441606 25 16 C23 19.0625 23 19.0625 21 21 C22.07949708 23.82330006 23.25033803 26.49104768 24.625 29.1875 C26 32 26 32 26 34 C23.36 34 20.72 34 18 34 C17.16180842 32.37750059 16.3295884 30.75191503 15.5 29.125 C15.0359375 28.22007812 14.571875 27.31515625 14.09375 26.3828125 C13 24 13 24 13 22 C11.02 22 9.04 22 7 22 C7 25.96 7 29.92 7 34 C4.69 34 2.38 34 0 34 C0 22.78 0 11.56 0 0 Z " fill="#FBFBF9" transform="translate(630,197)"/>
<path d="M0 0 C1.37478516 0.01740234 1.37478516 0.01740234 2.77734375 0.03515625 C3.69644531 0.04417969 4.61554688 0.05320312 5.5625 0.0625 C6.27277344 0.07410156 6.98304687 0.08570313 7.71484375 0.09765625 C9.42782392 4.90174558 11.13671564 9.70726163 12.84179688 14.51416016 C13.42269909 16.1499782 14.00472622 17.78539721 14.58789062 19.42041016 C15.42482227 21.76751949 16.25772802 24.11602343 17.08984375 26.46484375 C17.3523291 27.19822968 17.61481445 27.9316156 17.88525391 28.68722534 C19.71484375 33.86991284 19.71484375 33.86991284 19.71484375 36.09765625 C17.07484375 36.09765625 14.43484375 36.09765625 11.71484375 36.09765625 C10.45819397 33.19165364 9.71484375 31.30161041 9.71484375 28.09765625 C5.09484375 28.09765625 0.47484375 28.09765625 -4.28515625 28.09765625 C-4.94515625 30.73765625 -5.60515625 33.37765625 -6.28515625 36.09765625 C-8.92515625 36.09765625 -11.56515625 36.09765625 -14.28515625 36.09765625 C-13.65383889 31.58450911 -12.5244089 27.50681775 -11.03515625 23.203125 C-10.81698242 22.57030106 -10.59880859 21.93747711 -10.37402344 21.28547668 C-9.9156985 19.95946323 -9.455053 18.63424978 -8.9921875 17.30981445 C-8.28182172 15.27560748 -7.57984554 13.2386438 -6.87890625 11.20117188 C-3.04247815 0.13002043 -3.04247815 0.13002043 0 0 Z " fill="#FBFBF9" transform="translate(1224.28515625,1212.90234375)"/>
<path d="M0 0 C3.39573647 1.93090897 5.16010443 3.48757127 7.1875 6.8125 C7.1875 8.1325 7.1875 9.4525 7.1875 10.8125 C3.9375 11.0625 3.9375 11.0625 0.1875 10.8125 C-0.451875 10.1525 -1.09125 9.4925 -1.75 8.8125 C-4.06666875 6.56603333 -4.70679363 6.42730552 -7.8125 6.25 C-10.90177497 6.4401979 -11.73483779 6.75425334 -14.3125 8.6875 C-16.40454901 13.04593544 -16.47820985 17.05190051 -15.8125 21.8125 C-14.54980907 25.11083752 -13.88188896 25.76624069 -10.8125 27.8125 C-7.10705413 28.01100603 -4.34244613 27.98914871 -0.8125 26.8125 C-0.4825 25.1625 -0.1525 23.5125 0.1875 21.8125 C-2.1225 21.8125 -4.4325 21.8125 -6.8125 21.8125 C-6.8125 19.8325 -6.8125 17.8525 -6.8125 15.8125 C-1.8625 15.8125 3.0875 15.8125 8.1875 15.8125 C8.47701652 21.40981932 8.37202849 24.9808016 5.1875 29.8125 C-0.22232426 34.69453652 -3.66829764 35.15764601 -10.82421875 35.09765625 C-15.80551195 34.62231716 -18.42191073 32.39489469 -21.625 28.75 C-25.08032043 23.11237192 -24.31511721 16.17419786 -23.8125 9.8125 C-22.63634677 5.57551427 -20.24220525 2.82292262 -16.625 0.375 C-11.05156152 -2.3938174 -5.7893545 -1.80324156 0 0 Z " fill="#FCFBF9" transform="translate(1026.8125,1214.1875)"/>
<path d="M0 0 C3.3 0 6.6 0 10 0 C10 12.87 10 25.74 10 39 C16.6 39 23.2 39 30 39 C30 41.64 30 44.28 30 47 C20.1 47 10.2 47 0 47 C0 31.49 0 15.98 0 0 Z " fill="#FCFCFA" transform="translate(319,1220)"/>
<path d="M0 0 C6 0 6 0 8.125 2.08984375 C8.74375 3.02957031 9.3625 3.96929687 10 4.9375 C11.00546875 6.43023437 11.00546875 6.43023437 12.03125 7.953125 C12.6809375 8.95859375 13.330625 9.9640625 14 11 C15.16617568 12.72949783 16.33278639 14.45870248 17.5 16.1875 C18.7375 18.0746875 18.7375 18.0746875 20 20 C20.33 13.4 20.66 6.8 21 0 C23.31 0 25.62 0 28 0 C28 11.22 28 22.44 28 34 C22 34 22 34 20.12890625 32.41796875 C19.61199219 31.68191406 19.09507812 30.94585937 18.5625 30.1875 C17.985 29.37796875 17.4075 28.5684375 16.8125 27.734375 C13.80437861 23.19626083 10.8701023 18.62730779 8 14 C7.67 20.6 7.34 27.2 7 34 C4.69 34 2.38 34 0 34 C0 22.78 0 11.56 0 0 Z " fill="#FDFCFB" transform="translate(549,197)"/>
<path d="M0 0 C7 0 7 0 8.88037109 1.63647461 C9.34008301 2.38421143 9.79979492 3.13194824 10.2734375 3.90234375 C10.78777344 4.70994141 11.30210937 5.51753906 11.83203125 6.34960938 C12.59580078 7.63061523 12.59580078 7.63061523 13.375 8.9375 C14.42444229 10.61330434 15.47391958 12.28908677 16.5234375 13.96484375 C16.97638184 14.7137085 17.42932617 15.46257324 17.89599609 16.23413086 C18.87951546 17.95442423 18.87951546 17.95442423 20 19 C20.33 13.06 20.66 7.12 21 1 C23.31 1 25.62 1 28 1 C28 11.89 28 22.78 28 34 C22 34 22 34 19.875 31.91015625 C19.25625 30.97042969 18.6375 30.03070313 18 29.0625 C17.3296875 28.06734375 16.659375 27.0721875 15.96875 26.046875 C15.3190625 25.04140625 14.669375 24.0359375 14 23 C12.83382432 21.27050217 11.66721361 19.54129752 10.5 17.8125 C9.675 16.554375 8.85 15.29625 8 14 C7.67 20.6 7.34 27.2 7 34 C4.69 34 2.38 34 0 34 C0 22.78 0 11.56 0 0 Z " fill="#FBFAF8" transform="translate(696,197)"/>
<path d="M0 0 C2.31 0 4.62 0 7 0 C9.22265625 2.30859375 9.22265625 2.30859375 11.0625 5.4375 C11.72378906 6.52417969 12.38507812 7.61085937 13.06640625 8.73046875 C14.02353516 10.34888672 14.02353516 10.34888672 15 12 C16.15475838 13.7578806 17.31991161 15.50902254 18.5 17.25 C19.7375 19.10625 19.7375 19.10625 21 21 C21.33 14.4 21.66 7.8 22 1 C23.98 1 25.96 1 28 1 C28 11.89 28 22.78 28 34 C26.02 34 24.04 34 22 34 C19.93575771 31.76650798 18.42792523 29.83518434 16.8125 27.3125 C16.38775391 26.68666016 15.96300781 26.06082031 15.52539062 25.41601562 C13.22919376 22.00564548 11.11778682 18.5296447 9 15 C8.67 21.27 8.34 27.54 8 34 C5.36 34 2.72 34 0 34 C0 22.78 0 11.56 0 0 Z " fill="#FAF9F6" transform="translate(800,197)"/>
<path d="M0 0 C3.59052169 2.69828784 5.59083773 5.7725132 7 10 C7.78987855 16.56505615 6.70853549 21.51445791 3 27 C0.42746057 29.94004506 -0.92006341 29.9896856 -4.875 30.5 C-9.68074746 30.32068106 -11.73367617 28.42186306 -15 25 C-18.09405215 20.12132391 -17.48433386 14.56611369 -17 9 C-14.1086184 0.75956245 -8.39378155 -1.89025317 0 0 Z " fill="#AB9A69" transform="translate(181,1229)"/>
<path d="M0 0 C8.25 0 16.5 0 25 0 C25 2.31 25 4.62 25 7 C19.39 7 13.78 7 8 7 C8 9.64 8 12.28 8 15 C12.95 15 17.9 15 23 15 C23 16.98 23 18.96 23 21 C18.05 21 13.1 21 8 21 C8 23.97 8 26.94 8 30 C13.28 30 18.56 30 24 30 C24 31.98 24 33.96 24 36 C16.08 36 8.16 36 0 36 C0 24.12 0 12.24 0 0 Z " fill="#F9F8F5" transform="translate(1113,1213)"/>
<path d="M0 0 C7.92 0 15.84 0 24 0 C24 2.31 24 4.62 24 7 C18.72 7 13.44 7 8 7 C8 9.64 8 12.28 8 15 C12.95 15 17.9 15 23 15 C23 16.98 23 18.96 23 21 C18.05 21 13.1 21 8 21 C8 23.97 8 26.94 8 30 C13.28 30 18.56 30 24 30 C24 31.98 24 33.96 24 36 C16.08 36 8.16 36 0 36 C0 24.12 0 12.24 0 0 Z " fill="#FAF9F7" transform="translate(1321,1213)"/>
<path d="M0 0 C2.64 0 5.28 0 8 0 C10.23440536 5.00611641 12.07079572 10.01402722 13.6875 15.25 C13.91244141 15.95640625 14.13738281 16.6628125 14.36914062 17.390625 C15.29640158 20.36687902 16 22.8638555 16 26 C16.66 26 17.32 26 18 26 C18.103125 25.03835938 18.20625 24.07671875 18.3125 23.0859375 C18.98110183 18.4127874 20.47034412 14.07687584 22 9.625 C22.27328125 8.80644531 22.5465625 7.98789063 22.828125 7.14453125 C24.85925752 1.14074248 24.85925752 1.14074248 26 0 C28.67058851 -0.14115161 31.32432238 -0.04247107 34 0 C33.2005343 3.44597285 32.12118572 6.76574583 31.00390625 10.12109375 C30.61009766 11.30380859 30.21628906 12.48652344 29.81054688 13.70507812 C29.39869141 14.93677734 28.98683594 16.16847656 28.5625 17.4375 C28.15451172 18.66533203 27.74652344 19.89316406 27.32617188 21.15820312 C26.93107422 22.34220703 26.53597656 23.52621094 26.12890625 24.74609375 C25.76869385 25.82560303 25.40848145 26.9051123 25.03735352 28.01733398 C24.09928227 30.71453719 23.085477 33.35921266 22 36 C18.7 36 15.4 36 12 36 C10.28701983 31.19591067 8.57812811 26.39039462 6.87304688 21.58349609 C6.29214466 19.94767805 5.71011753 18.31225904 5.12695312 16.67724609 C4.29002148 14.33013676 3.45711573 11.98163282 2.625 9.6328125 C2.36251465 8.89942657 2.1000293 8.16604065 1.82958984 7.41043091 C0 2.22774341 0 2.22774341 0 0 Z " fill="#FBFAF8" transform="translate(1075,1213)"/>
<path d="M0 0 C2.93102294 2.02380155 4.74817384 3.7807039 6.625 6.8125 C6.875 9.625 6.875 9.625 6.625 11.8125 C4.315 11.8125 2.005 11.8125 -0.375 11.8125 C-0.66375 11.173125 -0.9525 10.53375 -1.25 9.875 C-2.20323451 7.66043921 -2.20323451 7.66043921 -4.375 6.8125 C-8.42990318 6.35071088 -8.42990318 6.35071088 -12.375 6.8125 C-15.70336027 10.05765127 -16.62337868 12.85121811 -16.8125 17.375 C-16.63707501 21.22785266 -15.8565047 23.75834037 -13.375 26.8125 C-10.48638291 28.25680855 -8.57852299 28.18938506 -5.375 27.8125 C-4.1684375 26.575 -4.1684375 26.575 -2.9375 25.3125 C-0.375 22.8125 -0.375 22.8125 3.4375 22.5 C4.489375 22.603125 5.54125 22.70625 6.625 22.8125 C6.34801826 26.78257156 5.85815777 28.53639212 3.25 31.625 C-1.3218753 35.43489608 -5.6971081 35.15504092 -11.42578125 35.0859375 C-15.46826049 34.7111381 -17.47408599 33.64089116 -20.375 30.8125 C-24.92743858 25.3016533 -24.98529552 20.16406079 -24.75390625 13.1328125 C-24.22244188 8.47565047 -23.41409205 6.39707011 -20.375 2.8125 C-14.06433559 -2.10981824 -7.53197885 -2.65014071 0 0 Z " fill="#FCFBFA" transform="translate(1308.375,1214.1875)"/>
<path d="M0 0 C7.59 0 15.18 0 23 0 C23 1.98 23 3.96 23 6 C17.72 6 12.44 6 7 6 C7 8.97 7 11.94 7 15 C11.62 15 16.24 15 21 15 C21 16.65 21 18.3 21 20 C16.38 20 11.76 20 7 20 C7 22.64 7 25.28 7 28 C12.28 28 17.56 28 23 28 C23 29.98 23 31.96 23 34 C15.41 34 7.82 34 0 34 C0 22.78 0 11.56 0 0 Z " fill="#FAFAF7" transform="translate(772,197)"/>
<path d="M0 0 C7.26 0 14.52 0 22 0 C22 1.65 22 3.3 22 5 C17.05 5 12.1 5 7 5 C7 7.64 7 10.28 7 13 C11.62 13 16.24 13 21 13 C21 14.98 21 16.96 21 19 C16.38 19 11.76 19 7 19 C7 21.64 7 24.28 7 27 C12.28 27 17.56 27 23 27 C23 28.98 23 30.96 23 33 C15.41 33 7.82 33 0 33 C0 22.11 0 11.22 0 0 Z " fill="#FCFCFB" transform="translate(521,198)"/>
<path d="M0 0 C2.64 0 5.28 0 8 0 C9.1483058 3.41584072 10.29321208 6.83281142 11.4375 10.25 C11.76298828 11.21808594 12.08847656 12.18617188 12.42382812 13.18359375 C12.73642578 14.11816406 13.04902344 15.05273438 13.37109375 16.015625 C13.65911865 16.87446289 13.94714355 17.73330078 14.24389648 18.61816406 C14.91146327 20.72109643 15.46488209 22.85952838 16 25 C18.64 17.08 21.28 9.16 24 1 C26.64 1 29.28 1 32 1 C29.84297423 8.4632057 27.39016484 15.79753322 24.8125 23.125 C24.44447266 24.176875 24.07644531 25.22875 23.69726562 26.3125 C22.80014879 28.87569095 21.90035499 31.4379447 21 34 C17.7 34 14.4 34 11 34 C9.59222077 29.80142704 8.18643431 25.60219371 6.7824707 21.40234375 C6.30482484 19.97442721 5.82664002 18.54669083 5.34790039 17.11914062 C4.65889135 15.06427668 3.97183888 13.00876736 3.28515625 10.953125 C2.87144775 9.71723633 2.45773926 8.48134766 2.03149414 7.20800781 C1.26022415 4.80931251 0.55985965 2.45373893 0 0 Z " fill="#FBFBF9" transform="translate(581,197)"/>
<path d="M0 0 C3.3 0 6.6 0 10 0 C10 15.51 10 31.02 10 47 C6.7 47 3.4 47 0 47 C0 31.49 0 15.98 0 0 Z " fill="#FCFCFB" transform="translate(253,1220)"/>
<path d="M0 0 C2.0625 -0.061875 4.125 -0.12375 6.25 -0.1875 C7.99023438 -0.23970703 7.99023438 -0.23970703 9.765625 -0.29296875 C13.24852028 0.02251089 14.60734359 0.49062864 17 3 C17.375 6.0625 17.375 6.0625 17 9 C16.34 9.66 15.68 10.32 15 11 C15.495 11.350625 15.99 11.70125 16.5 12.0625 C18 14 18 14 18.5 17.5 C18 21 18 21 15.89453125 22.70703125 C10.7387621 25.01008063 5.57298536 24.16887834 0 24 C0 16.08 0 8.16 0 0 Z " fill="#FCFCFB" transform="translate(712,804)"/>
<path d="M0 0 C1.97265625 0.4609375 1.97265625 0.4609375 4.97265625 2.2109375 C8.0054617 7.13924636 7.83829963 11.82255767 6.97265625 17.4609375 C5.16462221 20.53459536 4.11226161 21.89113482 0.97265625 23.4609375 C-1.83984375 23.8984375 -1.83984375 23.8984375 -5.02734375 23.4609375 C-8.60761748 20.65898415 -9.77907457 19.06065459 -10.4765625 14.56640625 C-10.6421376 9.93601289 -10.481863 6.4457292 -8.52734375 2.2109375 C-5.66287705 0.20581081 -3.50020626 -0.27478255 0 0 Z " fill="#AA9968" transform="translate(1058.02734375,1219.5390625)"/>
<path d="M0 0 C8.91 0 17.82 0 27 0 C27 1.65 27 3.3 27 5 C23.7 5 20.4 5 17 5 C17 14.24 17 23.48 17 33 C14.69 33 12.38 33 10 33 C10 23.76 10 14.52 10 5 C6.7 5 3.4 5 0 5 C0 3.35 0 1.7 0 0 Z " fill="#FDFCFB" transform="translate(833,198)"/>
<path d="M0 0 C5.74409621 1.14881924 6.11334843 1.83428424 9.25 6.4375 C10.27867187 7.92056641 10.27867187 7.92056641 11.328125 9.43359375 C13 12 13 12 14 14 C14.33 9.38 14.66 4.76 15 0 C16.65 0 18.3 0 20 0 C20 7.92 20 15.84 20 24 C18.35 24 16.7 24 15 24 C13.12985879 21.83551225 11.68487974 19.89680418 10.1875 17.5 C9.78080078 16.87996094 9.37410156 16.25992188 8.95507812 15.62109375 C7.95449445 14.09078931 6.97514662 12.54663778 6 11 C5.67 15.29 5.34 19.58 5 24 C3.35 24 1.7 24 0 24 C0 16.08 0 8.16 0 0 Z " fill="#FBFAF7" transform="translate(688,804)"/>
<path d="M0 0 C3.64909866 0.76022889 5.37904668 2.00404668 8 4.625 C9.52077156 9.18731469 10.17032188 14.04294455 8.12890625 18.546875 C5.8535474 21.68015604 4.22979493 22.5846851 0.4375 23.25 C-3.45111572 22.54297896 -4.63470046 21.71808401 -7 18.625 C-8.86746321 14.89007358 -8.54722821 10.69190053 -8 6.625 C-6.27536698 2.83378087 -4.17223809 0.86921627 0 0 Z " fill="#AB9B6B" transform="translate(675,202.375)"/>
<path d="M0 0 C1.134375 0.020625 2.26875 0.04125 3.4375 0.0625 C4.61150588 3.49753772 5.77543209 6.93590714 6.9375 10.375 C7.27136719 11.35146484 7.60523438 12.32792969 7.94921875 13.33398438 C8.26503906 14.27177734 8.58085938 15.20957031 8.90625 16.17578125 C9.34614258 17.47189331 9.34614258 17.47189331 9.79492188 18.79418945 C10.4375 21.0625 10.4375 21.0625 10.4375 24.0625 C8.7875 24.0625 7.1375 24.0625 5.4375 24.0625 C4.9425 21.5875 4.9425 21.5875 4.4375 19.0625 C1.1375 19.0625 -2.1625 19.0625 -5.5625 19.0625 C-5.8925 20.7125 -6.2225 22.3625 -6.5625 24.0625 C-8.2125 24.0625 -9.8625 24.0625 -11.5625 24.0625 C-7.02228756 0.12319803 -7.02228756 0.12319803 0 0 Z " fill="#FAF9F6" transform="translate(664.5625,803.9375)"/>
<path d="M0 0 C3.0625 1.8125 3.0625 1.8125 5 4 C5 4.99 5 5.98 5 7 C3.35 7 1.7 7 0 7 C0 6.34 0 5.68 0 5 C-2.31 5 -4.62 5 -7 5 C-7 5.99 -7 6.98 -7 8 C-6.30132813 8.26554688 -5.60265625 8.53109375 -4.8828125 8.8046875 C-3.51769531 9.33449219 -3.51769531 9.33449219 -2.125 9.875 C-0.76761719 10.39707031 -0.76761719 10.39707031 0.6171875 10.9296875 C3 12 3 12 5 14 C5.34490322 18.05261287 5.30163882 19.54754176 3 23 C-1.33059755 24.44353252 -5.47943366 24.67327584 -10 24 C-12.625 21.6875 -12.625 21.6875 -14 19 C-14 18.01 -14 17.02 -14 16 C-11.625 15.8125 -11.625 15.8125 -9 16 C-8.34 16.99 -7.68 17.98 -7 19 C-3.41642759 19.25015873 -3.41642759 19.25015873 0 19 C-0.33 18.01 -0.66 17.02 -1 16 C-3.25787891 14.82617876 -3.25787891 14.82617876 -5.9375 13.9375 C-10.80717489 12.19282511 -10.80717489 12.19282511 -13 10 C-13.45409879 6.51857596 -13.39476404 4.65221885 -11.5625 1.625 C-7.77217619 -0.77861998 -4.36817506 -0.7850279 0 0 Z " fill="#FAF9F6" transform="translate(626,804)"/>
<path d="M0 0 C1.65 0 3.3 0 5 0 C5.33 6.27 5.66 12.54 6 19 C7.98 19 9.96 19 12 19 C15.02093215 15.97906785 14.46676834 12.43627928 14.625 8.375 C14.66367187 7.57320312 14.70234375 6.77140625 14.7421875 5.9453125 C14.83653931 3.96392444 14.91936215 1.98199355 15 0 C16.65 0 18.3 0 20 0 C20.11644156 3.08301416 20.18732432 6.16546123 20.25 9.25 C20.30027344 10.55904297 20.30027344 10.55904297 20.3515625 11.89453125 C20.45077212 18.39276152 20.45077212 18.39276152 18.109375 21.546875 C15.13766011 23.59405637 13.26725592 24.21857369 9.6875 24.375 C8.92824219 24.42398438 8.16898438 24.47296875 7.38671875 24.5234375 C3.5842543 23.68950913 2.25950413 22.13555749 0 19 C-0.5930216 15.7025796 -0.47422113 12.52393139 -0.3125 9.1875 C-0.28994141 8.30384766 -0.26738281 7.42019531 -0.24414062 6.50976562 C-0.18547428 4.3391109 -0.09579979 2.1693331 0 0 Z " fill="#FBFBF9" transform="translate(589,804)"/>
<path d="M0 0 C2.5625 1.8125 2.5625 1.8125 4 4 C4 4.99 4 5.98 4 7 C2.35 7 0.7 7 -1 7 C-1.33 6.34 -1.66 5.68 -2 5 C-3.65 5 -5.3 5 -7 5 C-7.33 6.32 -7.66 7.64 -8 9 C-7.07767578 9.16435547 -7.07767578 9.16435547 -6.13671875 9.33203125 C-5.32847656 9.49058594 -4.52023437 9.64914062 -3.6875 9.8125 C-2.88699219 9.96332031 -2.08648438 10.11414063 -1.26171875 10.26953125 C1.29874316 11.09648527 2.39192273 11.85759325 4 14 C4.4375 17.5 4.4375 17.5 4 21 C1.14149147 23.81944008 -1.03745857 24.43145954 -5 24.4375 C-8.47944353 24.33486155 -9.69827908 24.20833111 -12.625 22.1875 C-14 20 -14 20 -14 17 C-12.35 17 -10.7 17 -9 17 C-8.67 17.66 -8.34 18.32 -8 19 C-6.02 19 -4.04 19 -2 19 C-2.15507437 17.02667073 -2.15507437 17.02667073 -3 15 C-5.01937002 13.97018198 -5.01937002 13.97018198 -7.4375 13.4375 C-11.7918552 12.31221719 -11.7918552 12.31221719 -14 9 C-13.86294821 5.71075711 -13.57495811 3.71869763 -11.5 1.125 C-7.69171686 -0.58872741 -4.1018779 -0.69242709 0 0 Z " fill="#FAF9F6" transform="translate(581,804)"/>
<path d="M0 0 C2.31 0 4.62 0 7 0 C7 10.89 7 21.78 7 33 C4.69 33 2.38 33 0 33 C0 22.11 0 11.22 0 0 Z " fill="#FBFBF9" transform="translate(617,198)"/>
<path d="M0 0 C1.98 0 3.96 0 6 0 C7.65 2.97 9.3 5.94 11 9 C12.65 6.03 14.3 3.06 16 0 C17.98 0 19.96 0 22 0 C21.04416032 1.93873142 20.08523808 3.8759433 19.125 5.8125 C18.59132813 6.89144531 18.05765625 7.97039063 17.5078125 9.08203125 C16 12 16 12 14 15 C13.54605448 17.27912938 13.54605448 17.27912938 13.375 19.6875 C13.30023437 20.49574219 13.22546875 21.30398438 13.1484375 22.13671875 C13.09945312 22.75160156 13.05046875 23.36648438 13 24 C11.35 24 9.7 24 8 24 C8.00902344 23.41734375 8.01804687 22.8346875 8.02734375 22.234375 C7.76878294 15.08460664 5.32349721 10.44473609 1.49609375 4.46875 C0 2 0 2 0 0 Z " fill="#F9F8F6" transform="translate(792,804)"/>
<path d="M0 0 C6.6 0 13.2 0 20 0 C20 1.32 20 2.64 20 4 C17.36 4 14.72 4 12 4 C12 10.6 12 17.2 12 24 C10.35 24 8.7 24 7 24 C7 17.4 7 10.8 7 4 C4.69 4 2.38 4 0 4 C0 2.68 0 1.36 0 0 Z " fill="#FAFAF7" transform="translate(770,804)"/>
<path d="M0 0 C6.27 0 12.54 0 19 0 C19 1.32 19 2.64 19 4 C16.69 4 14.38 4 12 4 C12 10.6 12 17.2 12 24 C10.35 24 8.7 24 7 24 C7 17.4 7 10.8 7 4 C4.69 4 2.38 4 0 4 C0 2.68 0 1.36 0 0 Z " fill="#FFFFFF" transform="translate(634,804)"/>
<path d="M0 0 C1.65 0 3.3 0 5 0 C5 6.6 5 13.2 5 20 C8.3 20 11.6 20 15 20 C15 21.32 15 22.64 15 24 C10.05 24 5.1 24 0 24 C0 16.08 0 8.16 0 0 Z " fill="#FFFFFF" transform="translate(743,804)"/>
<path d="M0 0 C1.98 0 3.96 0 6 0 C6 7.92 6 15.84 6 24 C4.02 24 2.04 24 0 24 C0 16.08 0 8.16 0 0 Z " fill="#F2EFE8" transform="translate(678,804)"/>
<path d="M0 0 C1.65 0 3.3 0 5 0 C5 7.92 5 15.84 5 24 C3.35 24 1.7 24 0 24 C0 16.08 0 8.16 0 0 Z " fill="#FAF9F7" transform="translate(762,804)"/>
<path d="M0 0 C1.65 0 3.3 0 5 0 C5 7.92 5 15.84 5 24 C3.35 24 1.7 24 0 24 C0 16.08 0 8.16 0 0 Z " fill="#FAF9F7" transform="translate(734,804)"/>
<path d="M0 0 C3.11494689 2.56157524 3.98547054 5.27219254 5.1875 9.0625 C5.53167969 10.12597656 5.87585938 11.18945312 6.23046875 12.28515625 C7 15 7 15 7 17 C3.04 17 -0.92 17 -5 17 C-3.7915371 11.05064416 -2.25422333 5.63555833 0 0 Z " fill="#B0A173" transform="translate(290,1232)"/>
<path d="M0 0 C7.38804781 -0.36334661 7.38804781 -0.36334661 10 1.1875 C11.38323858 3.69461993 11.49315303 5.1819827 11 8 C9.4375 9.8125 9.4375 9.8125 7 11 C3.25 11.1875 3.25 11.1875 0 11 C0 7.37 0 3.74 0 0 Z " fill="#B1A174" transform="translate(637,203)"/>
<path d="M0 0 C6.8359375 -0.1953125 6.8359375 -0.1953125 9 0 C11 2 11 2 11.25 5 C11 8 11 8 9 10 C5.98173347 10.27240673 3.03629378 10.08675125 0 10 C0 6.7 0 3.4 0 0 Z " fill="#A99866" transform="translate(1151,1220)"/>
<path d="M0 0 C2 1 2 1 2.8515625 2.9609375 C3.10679688 3.75757813 3.36203125 4.55421875 3.625 5.375 C3.88539062 6.16648437 4.14578125 6.95796875 4.4140625 7.7734375 C5 10 5 10 5 13 C2.03 13 -0.94 13 -4 13 C-2.68 8.71 -1.36 4.42 0 0 Z " fill="#AE9E6F" transform="translate(1226,1222)"/>
<path d="M0 0 C2.31 0 4.62 0 7 0 C7.38218767 1.65614657 7.71395102 3.32457024 8 5 C7 6 7 6 3.4375 6.0625 C2.303125 6.041875 1.16875 6.02125 0 6 C0 4.02 0 2.04 0 0 Z " fill="#AC9C6C" transform="translate(717,818)"/>
<path d="M0 0 C1.98 0 3.96 0 6 0 C6.38218767 1.65614657 6.71395102 3.32457024 7 5 C6 6 6 6 2.9375 6.0625 C1.4834375 6.0315625 1.4834375 6.0315625 0 6 C0 4.02 0 2.04 0 0 Z " fill="#AC9C6C" transform="translate(717,808)"/>
<path d="M0 0 C0.66 0 1.32 0 2 0 C2.66 2.97 3.32 5.94 4 9 C2.02 9 0.04 9 -2 9 C-1.34 6.03 -0.68 3.06 0 0 Z " fill="#B6A87E" transform="translate(663,810)"/>
</svg>
