<?xml version="1.0" encoding="UTF-8"?>
<svg version="1.1" xmlns="http://www.w3.org/2000/svg" width="601" height="610">
<path d="M0 0 C0.98399277 -0.00701431 1.96798553 -0.01402863 2.98179626 -0.02125549 C6.1428591 -0.03867606 9.30373466 -0.04510845 12.46484375 -0.046875 C14.08362427 -0.04788712 14.08362427 -0.04788712 15.73510742 -0.04891968 C31.50012309 -0.03323674 46.85840643 0.33394874 62.40234375 3.203125 C63.85858154 3.46053467 63.85858154 3.46053467 65.34423828 3.72314453 C132.58903538 15.84605865 197.46207853 51.2292324 241.40234375 104.203125 C241.82209473 104.70908203 242.2418457 105.21503906 242.67431641 105.73632812 C297.41711776 172.07508288 321.65049007 255.16770429 313.57519531 340.66210938 C313.00872577 345.54080913 312.27181376 350.36974624 311.40234375 355.203125 C311.22541992 356.20408203 311.04849609 357.20503906 310.86621094 358.23632812 C298.42429531 426.61314252 263.29487662 495.06380912 208.22265625 538.9375 C206.35730832 540.43597894 204.51775553 541.9672041 202.70703125 543.53125 C189.45541677 554.9741483 174.63401874 564.60570765 159.40234375 573.203125 C158.72365234 573.59032715 158.04496094 573.9775293 157.34570312 574.37646484 C118.77158109 596.18190007 72.35195019 610.19316827 27.8046875 610.40625 C26.82069473 610.41326431 25.83670197 610.42027863 24.82289124 610.42750549 C21.6618284 610.44492606 18.50095284 610.45135845 15.33984375 610.453125 C13.72106323 610.45413712 13.72106323 610.45413712 12.06958008 610.45516968 C-3.69543559 610.43948674 -19.05371893 610.07230126 -34.59765625 607.203125 C-35.56848145 607.03151855 -36.53930664 606.85991211 -37.53955078 606.68310547 C-104.78434788 594.56019135 -169.65739103 559.1770176 -213.59765625 506.203125 C-214.01740723 505.69716797 -214.4371582 505.19121094 -214.86962891 504.66992188 C-269.61243026 438.33116712 -293.84580257 355.23854571 -285.77050781 269.74414062 C-285.20403827 264.86544087 -284.46712626 260.03650376 -283.59765625 255.203125 C-283.42073242 254.20216797 -283.24380859 253.20121094 -283.06152344 252.16992188 C-270.61960781 183.79310748 -235.49018912 115.34244088 -180.41796875 71.46875 C-178.55262082 69.97027106 -176.71306803 68.4390459 -174.90234375 66.875 C-161.65072927 55.4321017 -146.82933124 45.80054235 -131.59765625 37.203125 C-130.91896484 36.81592285 -130.24027344 36.4287207 -129.54101562 36.02978516 C-90.96689359 14.22434993 -44.54726269 0.21308173 0 0 Z " fill="#61933F" transform="translate(286.59765625,-0.203125)"/>
<path d="M0 0 C5.10818088 3.31830648 9.05749585 8.044706 12.97265625 12.65234375 C15.48085686 15.5568304 18.08047831 18.3721832 20.6875 21.1875 C21.1942627 21.73970215 21.70102539 22.2919043 22.22314453 22.86083984 C24.89161822 25.76120966 27.59299997 28.61438296 30.37109375 31.41015625 C40.43498777 41.66606954 40.43498777 41.66606954 41 50 C41.66 50 42.32 50 43 50 C43 50.99 43 51.98 43 53 C42.16855469 53.20496094 41.33710938 53.40992188 40.48046875 53.62109375 C39.39378906 53.89050781 38.30710937 54.15992188 37.1875 54.4375 C36.10855469 54.70433594 35.02960938 54.97117188 33.91796875 55.24609375 C31.9259157 55.76077412 29.95188476 56.34937175 28 57 C27.23354308 65.27773473 29.929162 70.98809875 34.9375 77.53125 C40.58726096 84.12263778 45.17403815 87.17473587 53.8125 88.6875 C54.85180664 88.88182617 54.85180664 88.88182617 55.91210938 89.08007812 C57.60644764 89.39557559 59.30302158 89.69902647 61 90 C60.50921497 94.4883083 59.02801777 96.40413814 55.875 99.5625 C45.34408791 110.84801566 40.83815665 122.79757254 40 138 C40.99 138 41.98 138 43 138 C43.14695312 137.11699219 43.29390625 136.23398438 43.4453125 135.32421875 C46.04404955 121.419482 52.43980659 111.89997961 61 101 C64.73510653 102.47256767 64.73510653 102.47256767 65.87890625 104.75 C66.10449219 105.4925 66.33007812 106.235 66.5625 107 C68.5894136 112.54348659 71.44439078 117.41381182 74.5 122.4375 C74.9751001 123.23091797 75.4502002 124.02433594 75.93969727 124.84179688 C76.40303467 125.59396484 76.86637207 126.34613281 77.34375 127.12109375 C77.75818359 127.7958374 78.17261719 128.47058105 78.59960938 129.16577148 C81.13519943 132.48688168 83.88228938 134.34332945 88 135 C93.83609923 135.54517925 99.38321076 135.85546917 104.37890625 132.453125 C110.40576372 127.0507371 114.14866982 120.49138301 117 113 C117.66 113 118.32 113 119 113 C119.33 109.7 119.66 106.4 120 103 C124 104 124 104 125.23266602 105.48364258 C125.56967529 106.11423584 125.90668457 106.7448291 126.25390625 107.39453125 C126.63232666 108.09739258 127.01074707 108.80025391 127.40063477 109.52441406 C127.97575806 110.6570166 127.97575806 110.6570166 128.5625 111.8125 C128.95945068 112.57916992 129.35640137 113.34583984 129.76538086 114.13574219 C133.60304056 121.78708121 136.23323727 129.35467178 136 138 C137.32 138 138.64 138 140 138 C139.53339497 134.83304243 139.05267564 131.66940574 138.55078125 128.5078125 C138.23001558 126.46492191 137.92671038 124.41885642 137.66796875 122.3671875 C136.4367058 114.16778809 132.49196397 106.32110609 127.2890625 99.8828125 C125.10348379 96.69054299 125.81134749 93.77305028 126 90 C129 90 129 90 130.98046875 91.94921875 C141.99641725 105.61679379 150.31378468 119.72811063 154 137 C154.19464844 137.86753906 154.38929688 138.73507813 154.58984375 139.62890625 C156.71493255 149.54081679 157.1619427 159.32135782 157.125 169.4375 C157.12886719 170.49259766 157.13273437 171.54769531 157.13671875 172.63476562 C157.12480988 182.31071876 156.38765539 191.73545157 154.625 201.25 C154.5115625 201.90484375 154.398125 202.5596875 154.28125 203.234375 C153.41450765 207.88158932 151.93487003 211.72801065 150 216 C149.51867209 217.38807189 149.05666411 218.78319012 148.625 220.1875 C146.76614873 225.93304029 144.37486373 231.45239341 142 237 C141.34 237 140.68 237 140 237 C139.90460938 237.54140625 139.80921875 238.0828125 139.7109375 238.640625 C138.7933465 241.68581711 137.31303934 244.05768409 135.625 246.75 C135.01914062 247.73484375 134.41328125 248.7196875 133.7890625 249.734375 C133.19867188 250.48203125 132.60828125 251.2296875 132 252 C131.01 252 130.02 252 129 252 C128.1646875 251.0409375 128.1646875 251.0409375 127.3125 250.0625 C123.99004172 247.0992264 121.38804275 247.29253618 117 247 C116.71125 245.88625 116.4225 244.7725 116.125 243.625 C115.30758671 239.99708908 115.30758671 239.99708908 113 238 C110.57402049 237.72212332 110.57402049 237.72212332 107.7734375 237.8046875 C106.7421875 237.81113281 105.7109375 237.81757813 104.6484375 237.82421875 C103.56820313 237.84097656 102.48796875 237.85773438 101.375 237.875 C100.28703125 237.88402344 99.1990625 237.89304687 98.078125 237.90234375 C95.38519848 237.92596591 92.69270745 237.95890444 90 238 C89.6277832 238.9593042 89.6277832 238.9593042 89.24804688 239.93798828 C88.73854492 241.17911377 88.73854492 241.17911377 88.21875 242.4453125 C87.88810547 243.27047363 87.55746094 244.09563477 87.21679688 244.94580078 C86.81525391 245.62368652 86.41371094 246.30157227 86 247 C82.5 247.875 82.5 247.875 79 248 C76.61971709 249.42675173 76.61971709 249.42675173 75 251 C74.278125 250.360625 73.55625 249.72125 72.8125 249.0625 C70.01808816 247.01326465 68.38336726 246.38667054 65 246 C64.71125 244.88625 64.4225 243.7725 64.125 242.625 C63.30758671 238.99708908 63.30758671 238.99708908 61 237 C57.54271889 236.49729026 54.05220902 236.583341 50.5625 236.5625 C49.11133789 236.51319336 49.11133789 236.51319336 47.63085938 236.46289062 C44.99415854 236.44276314 42.58762056 236.49058937 40 237 C37.49590745 239.71859582 36.66683458 242.39909324 36 246 C35.36191406 246.12117187 34.72382813 246.24234375 34.06640625 246.3671875 C33.24011719 246.53476562 32.41382813 246.70234375 31.5625 246.875 C30.32693359 247.11863281 30.32693359 247.11863281 29.06640625 247.3671875 C28.04353516 247.68042969 28.04353516 247.68042969 27 248 C25.5192152 250.9615696 25.64685963 253.83506295 25.4375 257.125 C25.35371094 258.40632813 25.26992188 259.68765625 25.18359375 261.0078125 C25.12300781 261.99523437 25.06242188 262.98265625 25 264 C25.66 264 26.32 264 27 264 C30.41350574 270.82701149 29.31012751 281.08648215 29.5625 288.5625 C29.60568359 289.76197266 29.64886719 290.96144531 29.69335938 292.19726562 C29.79856802 295.13141793 29.90070883 298.0656425 30 301 C19.90297325 305.20985385 10.20255892 306.52993511 -0.6875 306.4375 C-1.90977295 306.43210205 -3.1320459 306.4267041 -4.39135742 306.42114258 C-16.86502498 306.21260244 -27.56090146 303.96705527 -39 299 C-39.029729 297.36587158 -39.029729 297.36587158 -39.06005859 295.69873047 C-39.13639058 291.63942167 -39.22506461 287.58045847 -39.31738281 283.52148438 C-39.35555888 281.76797329 -39.39043124 280.01438692 -39.421875 278.26074219 C-39.46777359 275.73345114 -39.5257257 273.20667322 -39.5859375 270.6796875 C-39.59748871 269.90132538 -39.60903992 269.12296326 -39.62094116 268.3210144 C-39.80507381 261.46050989 -41.27061064 256.59066285 -45.5625 251.125 C-48.89374979 246.56608466 -49.79685617 243.58645542 -50 238 C-51.08552366 236.68737429 -51.08552366 236.68737429 -53.72265625 236.90234375 C-54.82480469 236.91394531 -55.92695313 236.92554688 -57.0625 236.9375 C-58.16722656 236.94652344 -59.27195312 236.95554687 -60.41015625 236.96484375 C-61.26480469 236.97644531 -62.11945313 236.98804688 -63 237 C-63.06058594 237.63808594 -63.12117188 238.27617187 -63.18359375 238.93359375 C-63.30927734 240.17302734 -63.30927734 240.17302734 -63.4375 241.4375 C-63.55931641 242.67306641 -63.55931641 242.67306641 -63.68359375 243.93359375 C-64 246 -64 246 -65 247 C-66.27875 247.103125 -67.5575 247.20625 -68.875 247.3125 C-72.34210311 247.65054724 -72.34210311 247.65054724 -74.875 250.0625 C-75.431875 251.0215625 -75.431875 251.0215625 -76 252 C-76.66 252 -77.32 252 -78 252 C-78.7425 251.195625 -79.485 250.39125 -80.25 249.5625 C-82.76176805 246.71702863 -82.76176805 246.71702863 -86.125 246.625 C-87.07375 246.41875 -88.0225 246.2125 -89 246 C-90.8125 242.5 -90.8125 242.5 -92 239 C-94.47598733 236.52401267 -101.10860158 237.8144874 -104.4375 237.8125 C-105.51322266 237.80025391 -106.58894531 237.78800781 -107.69726562 237.77539062 C-108.72400391 237.77345703 -109.75074219 237.77152344 -110.80859375 237.76953125 C-111.75532959 237.76542236 -112.70206543 237.76131348 -113.67749023 237.75708008 C-116.19364344 237.77383494 -116.19364344 237.77383494 -118 240 C-118.39764263 241.98821313 -118.73775349 243.98944339 -119 246 C-119.68707031 246.09796875 -120.37414062 246.1959375 -121.08203125 246.296875 C-122.43361328 246.52117187 -122.43361328 246.52117187 -123.8125 246.75 C-124.70582031 246.88921875 -125.59914062 247.0284375 -126.51953125 247.171875 C-129.50572658 248.168841 -130.38380344 249.3582435 -132 252 C-136.1924841 250.6025053 -137.33043336 247.64516405 -139.4375 244 C-140.03908936 242.97821655 -140.03908936 242.97821655 -140.65283203 241.93579102 C-143.12757733 237.67552761 -145.36711445 233.39564621 -147.23828125 228.83203125 C-148.05146888 226.78697491 -148.05146888 226.78697491 -149.5625 224.125 C-151.27466237 220.40290789 -152.23063443 216.67566674 -153.24609375 212.71484375 C-153.88158608 210.42641282 -154.63103876 208.36403003 -155.5625 206.1875 C-159.79961119 195.17839262 -159.40474214 182.4501756 -159.375 170.8125 C-159.37478851 170.04541718 -159.37457703 169.27833435 -159.37435913 168.48800659 C-159.32884462 151.92180363 -157.34182652 137.07481593 -150 122 C-149.43031494 122.16153564 -148.86062988 122.32307129 -148.27368164 122.48950195 C-144.36580881 123.36691654 -140.42766561 123.19080069 -136.4375 123.1875 C-135.54160156 123.18741943 -134.64570313 123.18733887 -133.72265625 123.18725586 C-127.30679372 123.1320469 -121.23453939 122.59352966 -115 121 C-113.02 120.505 -113.02 120.505 -111 120 C-111 126.27 -111 132.54 -111 139 C-109.35 138.67 -107.7 138.34 -106 138 C-105.67 129.42 -105.34 120.84 -105 112 C-107.97 112.99 -110.94 113.98 -114 115 C-120.16998086 116.84854585 -125.57737983 117.25325509 -132 117.125 C-133.30517578 117.11146484 -133.30517578 117.11146484 -134.63671875 117.09765625 C-136.7579342 117.07434619 -138.87900562 117.03848579 -141 117 C-141.33 115.68 -141.66 114.36 -142 113 C-141.50113281 112.64550781 -141.00226563 112.29101562 -140.48828125 111.92578125 C-132.94223398 106.33059719 -126.53245297 99.71419045 -120 93 C-120.66386719 93.144375 -121.32773438 93.28875 -122.01171875 93.4375 C-122.89472656 93.623125 -123.77773437 93.80875 -124.6875 94 C-125.55761719 94.185625 -126.42773438 94.37125 -127.32421875 94.5625 C-129.93712964 94.98972047 -132.35813038 95.07616201 -135 95 C-135 91 -135 91 -133.56640625 89.39453125 C-132.90511719 88.87246094 -132.24382812 88.35039062 -131.5625 87.8125 C-124.87893326 82.28045364 -118.43893691 76.52689303 -114 69 C-115.010625 69.495 -116.02125 69.99 -117.0625 70.5 C-120.77988188 72.11592314 -123.93956657 72.24859797 -128 72 C-127.44107285 68.41355081 -126.31621898 67.09891895 -123.5 64.875 C-114.67417124 57.59040587 -114.67417124 57.59040587 -109 48 C-113.455 48.495 -113.455 48.495 -118 49 C-116.16948081 45.33896162 -114.39972729 42.99730413 -111.75 39.9375 C-107.33698355 34.64758368 -104.04049423 29.164453 -101 23 C-99.1640625 23.1640625 -99.1640625 23.1640625 -97 24 C-95.6484375 26.3359375 -95.6484375 26.3359375 -94.375 29.375 C-91.45491525 35.67425498 -87.80915895 39.86867663 -82.9765625 44.72265625 C-81 47 -81 47 -81 50 C-87.75 49.125 -87.75 49.125 -90 48 C-86.08539888 54.91758279 -81.02910039 60.21923373 -75.31958008 65.65698242 C-73.84711479 67.07147831 -72.41935102 68.53221415 -71 70 C-71 70.66 -71 71.32 -71 72 C-76.67276511 72.29341888 -79.99067246 72.00559652 -85 69 C-79.68811094 75.34835521 -73.91693798 81.13625391 -67.98022461 86.89477539 C-67.33835205 87.52504639 -66.69647949 88.15531738 -66.03515625 88.8046875 C-65.4512915 89.37171387 -64.86742676 89.93874023 -64.26586914 90.52294922 C-63 92 -63 92 -63 94 C-69.51791392 94.3540919 -74.17521449 94.03901852 -80 91 C-70.72109568 102.235441 -70.72109568 102.235441 -59.66796875 111.57421875 C-58.84232422 112.27998047 -58.84232422 112.27998047 -58 113 C-58 114.32 -58 115.64 -58 117 C-70.74089436 117.46981032 -82.30903136 117.84548432 -94 112 C-93.67 120.58 -93.34 129.16 -93 138 C-91.35 138.33 -89.7 138.66 -88 139 C-88 133.06 -88 127.12 -88 121 C-86.576875 121.165 -85.15375 121.33 -83.6875 121.5 C-78.16658736 121.98946814 -72.66445352 122.17787308 -67.125 122.25 C-66.30475342 122.27126953 -65.48450684 122.29253906 -64.6394043 122.31445312 C-59.89818425 122.34167079 -56.88860998 122.01939128 -53 119 C-52.67 118.67 -52.34 118.34 -52 118 C-51.94559586 112.65967187 -51.94559586 112.65967187 -54.5234375 108.20703125 C-57.21961856 105.90333224 -60.04953378 103.96697748 -63 102 C-63 101.34 -63 100.68 -63 100 C-61.68 100 -60.36 100 -59 100 C-56.87845002 96.55248129 -56.4543632 94.01432785 -57 90 C-58.96954148 87.75495719 -60.73308573 86.0038839 -63 84.125 C-63.57234375 83.62742187 -64.1446875 83.12984375 -64.734375 82.6171875 C-66.14318525 81.39621862 -67.56992173 80.19598808 -69 79 C-68.505 77.515 -68.505 77.515 -68 76 C-67.34 75.67 -66.68 75.34 -66 75 C-65.48840456 71.86647795 -65.34042992 69.11932013 -66 66 C-68.31822745 63.16300836 -71.06693044 61.16475114 -74 59 C-75.76953125 57.65625 -75.76953125 57.65625 -77 56 C-77.40020406 51.70103385 -76.57459647 47.99897516 -75 44 C-71.78695699 40.33466391 -67.97769548 37.78245121 -64 35 C-62.87931097 34.08478162 -61.76746035 33.15864866 -60.6640625 32.22265625 C-60.10565674 31.75875488 -59.54725098 31.29485352 -58.97192383 30.81689453 C-57.89469958 29.92145287 -56.82618625 29.01538736 -55.76831055 28.09716797 C-51.3622238 24.56639286 -48.40400332 24.50872697 -43 25 C-41.65117592 25.63474075 -40.3153341 26.29848848 -39 27 C-36.08617271 27.75060849 -36.08617271 27.75060849 -33 27 C-31.20879618 25.29793191 -29.76348866 23.51827495 -28.296875 21.53125 C-27.86890625 21.0259375 -27.4409375 20.520625 -27 20 C-26.34 20 -25.68 20 -25 20 C-24.62875 19.15695313 -24.62875 19.15695313 -24.25 18.296875 C-22.78725133 15.60907431 -21.03195127 13.53594518 -19 11.25 C-18.29875 10.45078125 -17.5975 9.6515625 -16.875 8.828125 C-15 7 -15 7 -13 7 C-12.7525 6.401875 -12.505 5.80375 -12.25 5.1875 C-9.3050983 0.03392203 -5.77072461 -0.96178743 0 0 Z " fill="#F8F8E6" transform="translate(302,112)"/>
<path d="M0 0 C-0.875 4.875 -0.875 4.875 -2 6 C-2.78761433 12.1413978 -2.83692522 17.57490744 0.5 22.9375 C3.64698076 27.00265867 7.12082725 30.2119211 12 32 C15.53462587 31.99510849 15.53462587 31.99510849 19 31 C26.57241379 29.7862069 26.57241379 29.7862069 29 31 C30.40196476 31.07176682 31.80730057 31.08392503 33.2109375 31.0625 C34.04367187 31.05476563 34.87640625 31.04703125 35.734375 31.0390625 C37.48698088 31.01313638 39.23958507 30.98709575 40.9921875 30.9609375 C42.24515625 30.94933594 42.24515625 30.94933594 43.5234375 30.9375 C44.28575684 30.92589844 45.04807617 30.91429687 45.83349609 30.90234375 C48.02545705 31.00114749 49.87912686 31.46597098 52 32 C53.32 32 54.64 32 56 32 C56 31.34 56 30.68 56 30 C56.70125 29.814375 57.4025 29.62875 58.125 29.4375 C63.15062609 26.92468696 66.90103366 22.20818283 69 17 C69.56299518 11.30325213 68.97709621 5.61830321 68 0 C71.9018921 0.57805809 74.13461258 2.355027 77 5 C81.50692556 11.43846509 81.95051605 18.30857929 81 26 C77.96373319 34.6117125 69.81921166 39.16869068 62 43 C61.01 43 60.02 43 59 43 C59.33 43.99 59.66 44.98 60 46 C64.09842405 44.59116673 67.45591603 42.50961643 71.03515625 40.12109375 C75.24019615 37.72179663 79.27986957 37.83764527 84.0625 37.8125 C85.90521484 37.79123047 85.90521484 37.79123047 87.78515625 37.76953125 C91 38 91 38 94 40 C93.83380685 47.81107811 89.52891344 52.48603958 84.15625 57.8359375 C79.02176202 62.45247275 74.6432628 64.16637828 67.6875 64.625 C66.08455078 64.73714844 66.08455078 64.73714844 64.44921875 64.8515625 C63.64097656 64.90054688 62.83273437 64.94953125 62 65 C61.74605469 65.96679688 61.49210937 66.93359375 61.23046875 67.9296875 C60.16850499 71.95716433 59.08809044 75.97951096 58 80 C57.73832031 80.97066406 57.47664063 81.94132812 57.20703125 82.94140625 C54.30857055 93.17409347 49.08504819 104.94330121 40 111 C37.07421875 111.37109375 37.07421875 111.37109375 33.6875 111.4375 C32.57761719 111.47746094 31.46773438 111.51742187 30.32421875 111.55859375 C25.42736313 110.73573787 22.68612723 108.225038 19.78393555 104.39526367 C18.6001049 102.59427256 17.53708499 100.76424512 16.5 98.875 C16.11908203 98.19066895 15.73816406 97.50633789 15.34570312 96.80126953 C10.14203131 87.02354386 6.54293858 75.97590397 5 65 C4.16597656 64.98582031 3.33195312 64.97164063 2.47265625 64.95703125 C-6.32424144 64.58419595 -12.808176 63.44562585 -19 56.87890625 C-22.20865545 52.91487983 -25.21202521 48.80518225 -27 44 C-26.75729722 41.75499925 -26.59515008 40.59515008 -25 39 C-13.68777932 38.04318476 -5.61818817 38.4363593 4 45 C4.99 45.33 5.98 45.66 7 46 C7 45.34 7 44.68 7 44 C6.21496094 43.6596875 5.42992187 43.319375 4.62109375 42.96875 C-3.61988031 39.16677914 -10.50131412 34.7303657 -14 26 C-14.81876975 18.24576884 -14.54672107 9.84484894 -9.5 3.5625 C-6.12978172 0.10802627 -4.68791058 -0.12336607 0 0 Z " fill="#F5F7E3" transform="translate(362,132)"/>
<path d="M0 0 C1.0319751 -0.02251831 2.0639502 -0.04503662 3.12719727 -0.0682373 C7.88111322 -0.13916335 12.63486599 -0.19683513 17.38916016 -0.23535156 C19.89163417 -0.26189442 22.39400015 -0.30274761 24.89599609 -0.35839844 C28.5066344 -0.43779517 32.11517732 -0.47071448 35.7265625 -0.49414062 C37.39114502 -0.54362854 37.39114502 -0.54362854 39.08935547 -0.59411621 C46.10112 -0.57621543 50.01720102 0.71303541 55.33959961 5.32800293 C59.00341563 9.13669485 60.50581902 11.26801401 60.50395203 16.70916748 C60.48846817 17.41035706 60.47298431 18.11154663 60.45703125 18.83398438 C60.45278641 19.56079407 60.44854156 20.28760376 60.44416809 21.03643799 C60.4274238 23.34954442 60.38978135 25.66176792 60.3515625 27.97460938 C60.33651008 29.54621134 60.32282265 31.11782702 60.31054688 32.68945312 C60.2800902 36.53511601 60.22136643 40.37887872 60.1640625 44.22460938 C52.2440625 44.71960938 52.2440625 44.71960938 44.1640625 45.22460938 C43.8340625 48.85460937 43.5040625 52.48460937 43.1640625 56.22460938 C29.6340625 56.22460938 16.1040625 56.22460938 2.1640625 56.22460938 C2.1640625 40.38460937 2.1640625 24.54460937 2.1640625 8.22460938 C17.0140625 8.22460938 31.8640625 8.22460938 47.1640625 8.22460938 C47.1640625 7.23460937 47.1640625 6.24460937 47.1640625 5.22460938 C31.6540625 5.55460937 16.1440625 5.88460938 0.1640625 6.22460938 C-0.1659375 21.07460938 -0.4959375 35.92460937 -0.8359375 51.22460938 C-2.4859375 51.22460938 -4.1359375 51.22460938 -5.8359375 51.22460938 C-5.86120537 44.12215938 -5.87876951 37.0197209 -5.89086914 29.91723633 C-5.89591099 27.49893765 -5.90274428 25.08064204 -5.91137695 22.66235352 C-5.92344907 19.19481654 -5.92916713 15.72731971 -5.93359375 12.25976562 C-5.93875504 11.17123795 -5.94391632 10.08271027 -5.94923401 8.9611969 C-5.94930954 7.96023483 -5.94938507 6.95927277 -5.94946289 5.92797852 C-5.9516835 5.0419545 -5.95390411 4.15593048 -5.95619202 3.24305725 C-5.7223567 -0.68182157 -3.40232142 0.0704685 0 0 Z " fill="#689747" transform="translate(376.8359375,273.775390625)"/>
<path d="M0 0 C4.30680857 6.99001867 4.61116433 12.76926789 4.5 20.875 C4.51546875 21.99519531 4.5309375 23.11539063 4.546875 24.26953125 C4.49056362 36.33424481 0.27202696 46.02495464 -7.77734375 54.9765625 C-12.88531992 59.88606924 -18.31047538 61.94248006 -25 64 C-26.010625 64.4125 -27.02125 64.825 -28.0625 65.25 C-32.36830908 66.34935551 -36.58081948 66.15720405 -41 66 C-41.28875 66.598125 -41.5775 67.19625 -41.875 67.8125 C-43 70 -43 70 -45 73 C-48.125 73.1875 -48.125 73.1875 -51 73 C-50.37180797 67.47191011 -50.37180797 67.47191011 -48.375 64.9375 C-46.73903599 63.07093281 -46.73903599 63.07093281 -47.1875 60.625 C-47.96546302 57.98364829 -47.96546302 57.98364829 -49.03515625 55.4296875 C-50.26955211 51.04183501 -50.29229764 47.0328966 -50.25 42.5 C-50.25773437 41.67113281 -50.26546875 40.84226563 -50.2734375 39.98828125 C-50.25841117 35.26249925 -49.8165653 31.44049296 -48 27 C-47.34 27 -46.68 27 -46 27 C-45.89816406 26.25492188 -45.79632813 25.50984375 -45.69140625 24.7421875 C-43.87228014 17.52734836 -35.77627942 11.33220957 -30 7 C-27.40828961 5.45937216 -24.77692415 4.16952294 -22 3 C-21.22011719 2.64808594 -20.44023437 2.29617187 -19.63671875 1.93359375 C-16.69135766 0.89071775 -14.11328461 0.58943542 -11 0.375 C-9.989375 0.30023438 -8.97875 0.22546875 -7.9375 0.1484375 C-5.28464747 0.01438378 -2.65552033 -0.02928883 0 0 Z " fill="#F6F7E3" transform="translate(314,179)"/>
<path d="M0 0 C4.5912276 2.21539074 7.94425991 4.85105808 10.2109375 9.46484375 C11.83491696 14.68248072 11.70928626 19.86961615 9.625 24.9375 C8 28 8 28 6 30 C5.35232207 32.57061311 5.35232207 32.57061311 5 35 C6.98 34.505 6.98 34.505 9 34 C9.33 32.35 9.66 30.7 10 29 C12.3125 28.6875 12.3125 28.6875 15 29 C16.875 31.1875 16.875 31.1875 18 34 C17.6875 36.8125 17.6875 36.8125 17 39 C13.37710825 40.01440969 9.72118378 40.47772859 6 41 C4.33065717 41.31966139 2.6626783 41.64731066 1 42 C1.33 42.66 1.66 43.32 2 44 C4.55351113 44.43052263 4.55351113 44.43052263 7.5 44.5625 C12.90371389 44.90371389 12.90371389 44.90371389 14 46 C14.47420249 49.41425793 14.10895127 50.81841456 12.3125 53.8125 C10 56 10 56 7.25 56.3125 C6.5075 56.209375 5.765 56.10625 5 56 C5 54.02 5 52.04 5 50 C2.69 49.67 0.38 49.34 -2 49 C-2 48.34 -2 47.68 -2 47 C-3.89600369 47.31146472 -5.79179587 47.62421717 -7.6875 47.9375 C-8.74324219 48.11152344 -9.79898437 48.28554688 -10.88671875 48.46484375 C-13.60249604 48.93167121 -16.30124235 49.44422616 -19 50 C-19 51.98 -19 53.96 -19 56 C-21.25 56.3125 -21.25 56.3125 -24 56 C-26.71659284 53.43025001 -27.91586186 51.94655411 -28.25 48.1875 C-28.12625 47.1046875 -28.12625 47.1046875 -28 46 C-24.02022924 45.1558062 -20.02992782 44.55312735 -16 44 C-16 43.34 -16 42.68 -16 42 C-16.886875 41.855625 -17.77375 41.71125 -18.6875 41.5625 C-22.83859307 40.8575974 -26.91921357 40.03311049 -31 39 C-30.85950482 37.52031676 -30.71245174 36.04125484 -30.5625 34.5625 C-30.48128906 33.73878906 -30.40007812 32.91507812 -30.31640625 32.06640625 C-30 30 -30 30 -29 29 C-27.33382885 28.95936168 -25.66611905 28.957279 -24 29 C-23.731875 29.804375 -23.46375 30.60875 -23.1875 31.4375 C-22.795625 32.283125 -22.40375 33.12875 -22 34 C-21.01 34.33 -20.02 34.66 -19 35 C-21.00567771 29.40545564 -21.00567771 29.40545564 -23.6875 24.125 C-25.54801796 19.69519534 -25.68780667 15.73736505 -25 11 C-23.375 7.6875 -23.375 7.6875 -21 5 C-20.236875 4.05125 -19.47375 3.1025 -18.6875 2.125 C-13.52814652 -1.9024545 -6.07380228 -1.01442706 0 0 Z " fill="#6D9B4D" transform="translate(308,356)"/>
<path d="M0 0 C1.33278992 0.00303635 1.33278992 0.00303635 2.69250488 0.00613403 C3.5987561 0.00517731 4.50500732 0.00422058 5.4387207 0.00323486 C7.35876535 0.002553 9.27881229 0.00440771 11.19885254 0.00857544 C14.14861192 0.01392361 17.09821902 0.00863066 20.04797363 0.00222778 C21.90865105 0.00288856 23.76932838 0.00416972 25.63000488 0.00613403 C26.51853149 0.0041098 27.40705811 0.00208557 28.32250977 0 C34.546305 0.02399665 34.546305 0.02399665 35.66125488 1.13894653 C35.91125488 4.07644653 35.91125488 4.07644653 35.66125488 7.13894653 C34.67125488 7.79894653 33.68125488 8.45894653 32.66125488 9.13894653 C32.28927886 11.84606304 32.10327613 14.35051424 32.03625488 17.06863403 C32.00322266 17.85537506 31.97019043 18.64211609 31.93615723 19.45269775 C31.83076656 21.97280202 31.74386167 24.49299868 31.66125488 27.01394653 C31.55231082 30.32470588 31.42487654 33.63399964 31.28625488 36.94363403 C31.25797607 38.08443924 31.25797607 38.08443924 31.22912598 39.24829102 C31.09919271 42.3271275 30.81521727 44.80969939 29.50305176 47.61575317 C25.44737587 50.96985734 19.16485926 49.7453378 14.16125488 49.70144653 C12.28760254 49.73721802 12.28760254 49.73721802 10.37609863 49.77371216 C9.1811377 49.77177856 7.98617676 49.76984497 6.75500488 49.76785278 C5.65865723 49.76857788 4.56230957 49.76930298 3.43273926 49.77005005 C0.66125488 49.13894653 0.66125488 49.13894653 -1.17687988 46.9133606 C-4.54089623 38.88043734 -3.46940164 29.0129548 -3.40124512 20.45144653 C-3.3967334 19.35638794 -3.39222168 18.26132935 -3.38757324 17.13308716 C-3.37593668 14.46831345 -3.35959076 11.80366136 -3.33874512 9.13894653 C-4.65874512 8.47894653 -5.97874512 7.81894653 -7.33874512 7.13894653 C-7.38128868 5.13939907 -7.37955295 3.13853017 -7.33874512 1.13894653 C-5.41617337 -0.78362522 -2.55789404 0.00986229 0 0 Z " fill="#F1F4DF" transform="translate(390.3387451171875,363.8610534667969)"/>
<path d="M0 0 C1.68216214 0.00031737 3.36434441 0.01165683 5.04638672 0.03173828 C6.37390457 0.03598312 6.37390457 0.03598312 7.72824097 0.04031372 C10.56098834 0.05152838 13.39342206 0.07663508 16.22607422 0.10205078 C18.14403841 0.11207893 20.06200755 0.12120507 21.97998047 0.12939453 C26.68713298 0.15147189 31.39405038 0.18601033 36.10107422 0.22705078 C36.59607422 3.69205078 36.59607422 3.69205078 37.10107422 7.22705078 C36.11107422 7.88705078 35.12107422 8.54705078 34.10107422 9.22705078 C33.64653206 12.09296472 33.37752477 14.77934794 33.22216797 17.66455078 C33.13576805 18.91836548 33.13576805 18.91836548 33.04762268 20.19750977 C32.86452301 22.87333446 32.70008026 25.54984216 32.53857422 28.22705078 C32.37180054 30.90406829 32.20089683 33.58057025 32.01881409 36.2565918 C31.90588045 37.92313842 31.80205919 39.59033183 31.70811462 41.25805664 C31.32553161 47.00259339 31.32553161 47.00259339 29.10107422 49.22705078 C24.63952614 49.68808151 20.14616784 49.55103872 15.66357422 49.53955078 C14.40996094 49.55566406 13.15634766 49.57177734 11.86474609 49.58837891 C10.66527344 49.58902344 9.46580078 49.58966797 8.22998047 49.59033203 C7.12726807 49.59331299 6.02455566 49.59629395 4.88842773 49.59936523 C2.10107422 49.22705078 2.10107422 49.22705078 0.26367188 48.21484375 C-1.59727367 45.03302547 -1.49773191 41.65520978 -1.62939453 38.05908203 C-1.66954178 37.26426926 -1.70968903 36.46945648 -1.75105286 35.65055847 C-1.87612467 33.11398609 -1.98150782 30.57702889 -2.08642578 28.03955078 C-2.16781222 26.31878588 -2.25047912 24.59808102 -2.33447266 22.87744141 C-2.53748363 18.66119726 -2.72284301 14.44450188 -2.89892578 10.22705078 C-3.88892578 9.89705078 -4.87892578 9.56705078 -5.89892578 9.22705078 C-6.02392578 5.85205078 -6.02392578 5.85205078 -5.89892578 2.22705078 C-3.89892578 0.22705078 -3.89892578 0.22705078 0 0 Z " fill="#F3F5E0" transform="translate(181.89892578125,363.77294921875)"/>
<path d="M0 0 C6.77425989 6.77425989 6.41863097 21.88962645 6.4375 30.8125 C6.23094502 46.10130131 3.43422314 55.80047873 -7.06640625 67.25390625 C-15.58644382 75.52289299 -25.90746459 79.44081547 -37.53149414 80.80004883 C-42.53951474 81.48861221 -44.77009556 83.18557927 -48 87 C-49 88 -49 88 -52.75 88.375 C-56.1907869 88.3194038 -56.96104736 88.02734972 -59.9375 85.9375 C-62.43209094 82.38459775 -63.07615714 80.34095695 -63 76 C-61.68568305 73.98745218 -60.35278115 71.98689731 -59 70 C-59.07678143 66.39127284 -59.89620812 64.19928041 -61.5625 61 C-65.31666398 52.58100851 -63.48569305 42.17919399 -60.31640625 33.875 C-54.03074928 20.14727438 -43.66718148 10.07987017 -29.79296875 4.0390625 C-20.58670119 0.68831287 -9.7729518 -1.19096904 0 0 Z M-47.15234375 25.8515625 C-49.81415365 28.94669029 -51 30.88811833 -51 35 C-51.66 35 -52.32 35 -53 35 C-55.1317356 40.24016281 -55.33424898 44.87411033 -55.3125 50.4375 C-55.32861328 51.25798828 -55.34472656 52.07847656 -55.36132812 52.92382812 C-55.36571534 58.42100902 -54.37234631 62.06023382 -52 67 C-52.15315734 70.21630419 -52.88371561 71.8092936 -54.5625 74.5625 C-56.33865668 77.10260929 -56.33865668 77.10260929 -56 81 C-53.16848027 81.41809201 -53.16848027 81.41809201 -50 81 C-47.55581103 78.73713384 -47.55581103 78.73713384 -46 76 C-46 75.34 -46 74.68 -46 74 C-45.45214844 74.05800781 -44.90429688 74.11601562 -44.33984375 74.17578125 C-34.00106481 74.76416704 -22.60922648 71.34413391 -14.640625 64.60546875 C-6.21210628 56.35756114 -1.03504136 47.71334717 -0.56640625 35.71484375 C-0.5493221 33.45579339 -0.54830824 31.19657038 -0.5625 28.9375 C-0.54251953 27.80505859 -0.52253906 26.67261719 -0.50195312 25.50585938 C-0.50601827 18.52600058 -1.31630923 13.95955517 -5 8 C-22.95081353 7.86897216 -34.49506338 13.12731239 -47.15234375 25.8515625 Z " fill="#6C9A4B" transform="translate(319,171)"/>
<path d="M0 0 C1.22264305 -0.0049926 1.22264305 -0.0049926 2.46998596 -0.01008606 C4.19751418 -0.01515867 5.92505223 -0.01749428 7.65258789 -0.01733398 C10.3017587 -0.01951917 12.95051241 -0.03766746 15.59960938 -0.05664062 C17.27473815 -0.05957469 18.94986892 -0.0615594 20.625 -0.0625 C21.42087021 -0.06968552 22.21674042 -0.07687103 23.03672791 -0.08427429 C28.65008398 -0.06085352 28.65008398 -0.06085352 30.87890625 2.16796875 C31.12890625 5.16796875 31.12890625 5.16796875 30.87890625 8.16796875 C30.21890625 8.82796875 29.55890625 9.48796875 28.87890625 10.16796875 C28.6149818 13.02315145 28.46030407 15.80665228 28.37890625 18.66796875 C28.09793312 25.54817435 27.66876044 32.38214932 26.94140625 39.23046875 C26.86664063 39.99746094 26.791875 40.76445312 26.71484375 41.5546875 C26.11889698 46.92797802 26.11889698 46.92797802 23.87890625 49.16796875 C19.73034163 49.62553102 15.5497855 49.49199052 11.37890625 49.48046875 C10.21230469 49.49658203 9.04570312 49.51269531 7.84375 49.52929688 C6.17505859 49.53026367 6.17505859 49.53026367 4.47265625 49.53125 C3.44849609 49.53423096 2.42433594 49.53721191 1.36914062 49.5402832 C0.54736328 49.41741943 -0.27441406 49.29455566 -1.12109375 49.16796875 C-3.60509405 45.4419683 -3.56639603 42.33067253 -3.75390625 38 C-3.79546844 37.20518723 -3.83703064 36.41037445 -3.87985229 35.59147644 C-4.01052204 33.05482231 -4.12845996 30.51775756 -4.24609375 27.98046875 C-4.33249507 26.25972333 -4.41972467 24.53901928 -4.5078125 22.81835938 C-4.72185075 18.60198227 -4.92447332 14.38519253 -5.12109375 10.16796875 C-6.44109375 9.50796875 -7.76109375 8.84796875 -9.12109375 8.16796875 C-9.16351098 5.835021 -9.16202312 3.50094308 -9.12109375 1.16796875 C-7.07596322 -0.87716178 -2.81204197 0.00392196 0 0 Z " fill="#F4F5E1" transform="translate(341.12109375,363.83203125)"/>
<path d="M0 0 C2.05497909 -0.00874666 4.10132823 -0.08137327 6.15478516 -0.15722656 C15.81613319 -0.21433798 15.81613319 -0.21433798 19.62451172 2.43457031 C22.45585526 5.59288931 24.36370586 8.93021618 26.18994141 12.74121094 C28.82994141 12.74121094 31.46994141 12.74121094 34.18994141 12.74121094 C33.64313117 17.74722016 31.94853808 21.71302161 29.62744141 26.11621094 C29.29808594 26.756875 28.96873047 27.39753906 28.62939453 28.05761719 C27.82354658 29.62259726 27.00775647 31.18245115 26.18994141 32.74121094 C18.78754496 32.87007277 11.55035058 32.53846996 4.18994141 31.74121094 C5.13830541 26.86391032 5.13830541 26.86391032 5.97900391 24.86621094 C6.33067296 21.32347085 4.31906289 18.68321117 2.56494141 15.74121094 C2.22076172 15.12503906 1.87658203 14.50886719 1.52197266 13.87402344 C-0.74621229 9.97374969 -3.05640759 7.37535199 -6.81005859 4.74121094 C-6.25125 5.59392578 -6.25125 5.59392578 -5.68115234 6.46386719 C-5.20806641 7.23601562 -4.73498047 8.00816406 -4.24755859 8.80371094 C-3.77189453 9.5578125 -3.29623047 10.31191406 -2.80615234 11.08886719 C-1.24253352 15.25238555 -1.91365884 18.64978477 -3.65209961 22.70581055 C-4.67095446 24.73238928 -5.75202911 26.70665645 -6.87255859 28.67871094 C-7.24960937 29.36255859 -7.62666016 30.04640625 -8.01513672 30.75097656 C-8.93706801 32.4197889 -9.87221371 34.08128958 -10.81005859 35.74121094 C-15.90653577 35.25325036 -19.47710413 33.43482591 -23.68505859 30.67871094 C-24.27802734 30.30166016 -24.87099609 29.92460937 -25.48193359 29.53613281 C-26.93033182 28.61336298 -28.3710189 27.6785083 -29.81005859 26.74121094 C-28.80467172 21.81121469 -26.15713954 17.98604821 -23.56005859 13.74121094 C-22.84269531 12.53078125 -22.84269531 12.53078125 -22.11083984 11.29589844 C-21.63517578 10.51472656 -21.15951172 9.73355469 -20.66943359 8.92871094 C-20.24114258 8.22101563 -19.81285156 7.51332031 -19.37158203 6.78417969 C-13.96767895 -0.28584236 -8.37703992 -0.00399382 0 0 Z " fill="#669645" transform="translate(297.81005859375,258.2587890625)"/>
<path d="M0 0 C6.93 0 13.86 0 21 0 C23.2275 3.8671875 23.2275 3.8671875 25.5 7.8125 C26.20479492 9.02450073 26.20479492 9.02450073 26.92382812 10.26098633 C27.28927734 10.90318115 27.65472656 11.54537598 28.03125 12.20703125 C28.40830078 12.8616333 28.78535156 13.51623535 29.17382812 14.19067383 C30 16 30 16 30 19 C27.69 19 25.38 19 23 19 C16.65848213 29.59861335 16.65848213 29.59861335 12 41 C12.66 41 13.32 41 14 41 C14.0825 40.29875 14.165 39.5975 14.25 38.875 C15.2723996 34.95580152 16.17973644 32.98423237 19 30 C22.93183161 29.2338881 26.76333103 29.43653929 30.75 29.625 C31.82894531 29.65207031 32.90789062 29.67914063 34.01953125 29.70703125 C36.68054179 29.77767755 39.34052438 29.88529418 42 30 C42 36.93 42 43.86 42 51 C37.60216427 51.18886411 33.21241364 51.32767027 28.8125 51.4375 C27.56662109 51.49615234 26.32074219 51.55480469 25.03710938 51.61523438 C16.02193948 51.78441987 16.02193948 51.78441987 13.02099609 49.48095703 C11.27553147 47.10626319 10 45.00884236 10 42 C9.34 42 8.68 42 8 42 C7.61328125 41.21496094 7.2265625 40.42992187 6.828125 39.62109375 C6.30734375 38.57050781 5.7865625 37.51992188 5.25 36.4375 C4.70730469 35.33921875 4.16460937 34.2409375 3.60546875 33.109375 C2.35578768 30.68906811 1.0482704 28.46046805 -0.4375 26.1875 C-2.41013315 22.16332837 -2.2428723 20.27237354 -1 16 C0.33333333 14 1.66666667 12 3 10 C2.82076529 6.86339261 1.79524194 5.69286291 0 3 C0 2.01 0 1.02 0 0 Z " fill="#669644" transform="translate(254,292)"/>
<path d="M0 0 C1.65 0 3.3 0 5 0 C5.0721875 1.03511719 5.144375 2.07023437 5.21875 3.13671875 C6.11702618 7.57869448 7.52624332 9.44820249 10.5 12.8125 C15.30876074 18.32887901 16.16407968 20.92925997 16.203125 28.18359375 C16.20882507 28.9949025 16.21452515 29.80621124 16.22039795 30.6421051 C16.22984986 32.35945327 16.23638269 34.07681959 16.24023438 35.79418945 C16.24994887 38.42366049 16.28097318 41.05235283 16.3125 43.68164062 C16.31902918 45.34895368 16.32427998 47.01627234 16.328125 48.68359375 C16.3404718 49.47116562 16.3528186 50.25873749 16.36553955 51.07017517 C16.34365767 56.42260716 16.34365767 56.42260716 14.81005859 58.99926758 C12.34071113 60.36450298 10.5276334 60.35608467 7.7109375 60.328125 C6.17566406 60.32039063 6.17566406 60.32039063 4.609375 60.3125 C3.54203125 60.291875 2.4746875 60.27125 1.375 60.25 C-0.23761719 60.24226563 -0.23761719 60.24226563 -1.8828125 60.234375 C-9.84606186 60.15393814 -9.84606186 60.15393814 -11 59 C-12.81449247 48.41766801 -13.20763452 37.78245253 -13.25 27.0625 C-13.259104 25.91918213 -13.26820801 24.77586426 -13.27758789 23.59790039 C-13.27364014 22.52531982 -13.26969238 21.45273926 -13.265625 20.34765625 C-13.26336914 19.38867432 -13.26111328 18.42969238 -13.25878906 17.44165039 C-13 15 -13 15 -11 12 C-9.68 12 -8.36 12 -7 12 C-7.144375 12.70125 -7.28875 13.4025 -7.4375 14.125 C-8.01478375 17.07556141 -8.51695141 20.03270151 -9 23 C-8.01 22.67 -7.02 22.34 -6 22 C-4.78280964 19.24707533 -4.78280964 19.24707533 -3.875 16 C-2.07118644 10.07118644 -2.07118644 10.07118644 -1 9 C-0.76807135 7.48530552 -0.58784762 5.96245438 -0.4375 4.4375 C-0.35371094 3.61121094 -0.26992187 2.78492188 -0.18359375 1.93359375 C-0.12300781 1.29550781 -0.06242188 0.65742188 0 0 Z " fill="#F3F5E1" transform="translate(243,353)"/>
<path d="M0 0 C3.65249794 1.94058266 5.10103029 5.05553846 7.05859375 8.6015625 C7.45691406 9.28734375 7.85523438 9.973125 8.265625 10.6796875 C11.30537015 15.97605701 12.97466874 19.94818903 12.30859375 26.2265625 C10.69314453 29.95098808 8.65079631 33.37753313 6.55859375 36.8515625 C6.01976562 37.7796875 5.4809375 38.7078125 4.92578125 39.6640625 C-1.93852212 51.35012044 -1.93852212 51.35012044 -5.69140625 53.2265625 C-7.72888255 53.45514364 -9.77180928 53.63680528 -11.81640625 53.7890625 C-12.91210938 53.87285156 -14.0078125 53.95664062 -15.13671875 54.04296875 C-15.97976563 54.10355469 -16.8228125 54.16414063 -17.69140625 54.2265625 C-18.02140625 56.2065625 -18.35140625 58.1865625 -18.69140625 60.2265625 C-23.5049694 59.39924133 -25.31508458 56.3343633 -28.00390625 52.5390625 C-28.47119141 51.92611328 -28.93847656 51.31316406 -29.41992188 50.68164062 C-31.60381551 47.63967356 -32.68145517 45.94394513 -32.734375 42.12890625 C-31.51315318 38.73052494 -29.89907479 36.33076254 -27.69140625 33.4765625 C-24.95068219 30.00186374 -24.95068219 30.00186374 -22.69140625 26.2265625 C-21.37140625 26.5565625 -20.05140625 26.8865625 -18.69140625 27.2265625 C-18.69140625 29.2065625 -18.69140625 31.1865625 -18.69140625 33.2265625 C-15.27350426 33.17464047 -11.85812063 33.07955651 -8.44140625 32.9765625 C-7.47332031 32.96238281 -6.50523437 32.94820313 -5.5078125 32.93359375 C0.14909361 32.83340514 0.14909361 32.83340514 4.98046875 30.1796875 C5.41875 29.53515625 5.85703125 28.890625 6.30859375 28.2265625 C5.31859375 28.5565625 4.32859375 28.8865625 3.30859375 29.2265625 C-0.24273278 29.99643049 -3.17321511 30.24245356 -6.69140625 29.2265625 C-9.73439791 25.93094511 -11.63448219 22.18764173 -13.69140625 18.2265625 C-14.48382497 17.04616429 -15.29182813 15.87572201 -16.12890625 14.7265625 C-17.69140625 12.2265625 -17.69140625 12.2265625 -17.69140625 9.2265625 C-15.32006881 7.47266764 -13.03220254 5.96766934 -10.50390625 4.4765625 C-9.83037109 4.05246094 -9.15683594 3.62835938 -8.46289062 3.19140625 C-5.56035733 1.45271802 -3.39879537 0.2861105 0 0 Z " fill="#659543" transform="translate(333.69140625,289.7734375)"/>
<path d="M0 0 C0.41397593 13.59220978 -1.42746169 24.00637232 -10.3125 34.8125 C-20.37142857 43 -20.37142857 43 -24 43 C-24 43.66 -24 44.32 -24 45 C-24.99 45 -25.98 45 -27 45 C-25.70684173 33.54631251 -20.48182044 22.74058525 -12.3828125 14.55078125 C-10.75874257 12.9351508 -10.75874257 12.9351508 -10 10 C-19.23060761 14.47544611 -24.36189495 23.81145264 -28 33 C-29.77053474 39.40933576 -30.26635867 45.97143846 -30.65625 52.58984375 C-31.01449457 55.10162667 -31.74189579 56.81353663 -33 59 C-34.32 59 -35.64 59 -37 59 C-36.24550685 52.58680823 -36.24550685 52.58680823 -34.98950195 49.5847168 C-33.94753132 46.86294451 -33.68070764 44.73257147 -33.54296875 41.83203125 C-33.48173828 40.85556641 -33.42050781 39.87910156 -33.35742188 38.87304688 C-33.24525614 36.85277433 -33.14347804 34.83189491 -33.05273438 32.81054688 C-32.39435977 22.8697422 -28.79560087 14.26872806 -21.32421875 7.4765625 C-15.02241426 2.29872714 -8.18713538 -0.26175566 0 0 Z " fill="#699848" transform="translate(223,272)"/>
<path d="M0 0 C6.35304798 4.12797095 6.35304798 4.12797095 7.65234375 6.7265625 C8.8079721 14.86548791 6.68197549 22.6324207 2.65234375 29.7265625 C-0.76128891 32.44954311 -3.15310999 33.14927039 -7.47265625 32.7265625 C-11.99239539 32.07036334 -11.99239539 32.07036334 -14.28515625 29.8515625 C-19.79072837 13.65870333 -19.79072837 13.65870333 -18.34765625 6.7265625 C-16.58574889 3.34776072 -14.24217922 1.2311652 -10.91015625 -0.6484375 C-6.69936544 -1.67545965 -3.95317734 -2.14431916 0 0 Z " fill="#F3F4E0" transform="translate(306.34765625,362.2734375)"/>
<path d="M0 0 C12.51177234 -0.98131548 22.60882632 4.0970451 32 12 C34 14 34 14 34.25 16.3125 C33.98092002 19.20510975 33.20264159 21.36922151 32 24 C28.14804223 22.43068387 25.88256053 19.94959682 23 17 C21.80627344 15.88005787 20.59739696 14.77607666 19.375 13.6875 C18.80523437 13.17574219 18.23546875 12.66398437 17.6484375 12.13671875 C15.92210581 10.71615632 15.92210581 10.71615632 13 11 C14.49529396 14.75911891 16.60405551 16.47948972 19.8125 18.875 C29.6741124 26.61015763 29.6741124 26.61015763 30.29296875 31.1484375 C30.3125 33.375 30.3125 33.375 30 37 C25.42807239 37.36575421 21.9959777 37.48822436 17.8125 35.4375 C9.6273214 28.34367855 5.52125943 20.67853485 2.7109375 10.296875 C2.07361917 7.98508093 2.07361917 7.98508093 0.9140625 5.953125 C0 4 0 4 0 0 Z " fill="#679746" transform="translate(157,273)"/>
<path d="M0 0 C2.31 0 4.62 0 7 0 C7.84069415 1.60032137 8.67231505 3.20541171 9.5 4.8125 C9.9640625 5.70582031 10.428125 6.59914063 10.90625 7.51953125 C12 10 12 10 12 13 C12.66 13 13.32 13 14 13 C14.19335938 12.39671875 14.38671875 11.7934375 14.5859375 11.171875 C14.84632813 10.37265625 15.10671875 9.5734375 15.375 8.75 C15.63023437 7.96109375 15.88546875 7.1721875 16.1484375 6.359375 C16.95173667 4.13372042 17.89711662 2.09068328 19 0 C21.31 0 23.62 0 26 0 C26 9.57 26 19.14 26 29 C24.02 29 22.04 29 20 29 C19.505 22.565 19.505 22.565 19 16 C17.02 20.455 17.02 20.455 15 25 C13.35 24.67 11.7 24.34 10 24 C9.01 21.03 8.02 18.06 7 15 C6.67 19.62 6.34 24.24 6 29 C4.02 29 2.04 29 0 29 C0 19.43 0 9.86 0 0 Z " fill="#EFF2DB" transform="translate(380,431)"/>
<path d="M0 0 C8.02283286 0.89926258 14.79025857 10.67563789 20.0625 16.3125 C20.53953369 16.81563721 21.01656738 17.31877441 21.50805664 17.8371582 C23.8844096 20.43351978 25.58532652 22.43719314 26 26 C24.02 25.34 22.04 24.68 20 24 C20 23.34 20 22.68 20 22 C18.68 22 17.36 22 16 22 C16.66 24.64 17.32 27.28 18 30 C12.75942186 28.20891633 9.07182885 25.03842713 4.81640625 21.58203125 C2.07445943 19.70696357 2.07445943 19.70696357 -1.1796875 20.1953125 C-3.88013671 20.96580078 -6.40034951 21.94608764 -9 23 C-9.99 23 -10.98 23 -12 23 C-11.56162062 17.2006061 -9.10138269 13.42141608 -6 8.6875 C-5.5359375 7.95982422 -5.071875 7.23214844 -4.59375 6.48242188 C-1.21866883 1.21866883 -1.21866883 1.21866883 0 0 Z " fill="#699848" transform="translate(296,120)"/>
<path d="M0 0 C6.27 0 12.54 0 19 0 C19 7.59 19 15.18 19 23 C16.050625 23.020625 13.10125 23.04125 10.0625 23.0625 C8.66656616 23.07615601 8.66656616 23.07615601 7.24243164 23.09008789 C6.14983032 23.09383423 6.14983032 23.09383423 5.03515625 23.09765625 C4.2862915 23.10289307 3.53742676 23.10812988 2.76586914 23.11352539 C1 23 1 23 0 22 C-0.08700342 20.36527118 -0.10701063 18.72685945 -0.09765625 17.08984375 C-0.09443359 16.10048828 -0.09121094 15.11113281 -0.08789062 14.09179688 C-0.07951172 13.05087891 -0.07113281 12.00996094 -0.0625 10.9375 C-0.05798828 9.89271484 -0.05347656 8.84792969 -0.04882812 7.77148438 C-0.03699927 5.18096546 -0.01906319 2.59047578 0 0 Z " fill="#79A35A" transform="translate(343,377)"/>
<path d="M0 0 C12 0 12 0 15.75 1.3125 C18.88597753 5.05825094 18.47188146 7.98768013 18.2109375 12.734375 C18.14132813 13.48203125 18.07171875 14.2296875 18 15 C16.02 15.99 16.02 15.99 14 17 C14.433125 17.69867188 14.86625 18.39734375 15.3125 19.1171875 C15.869375 20.02726562 16.42625 20.93734375 17 21.875 C17.556875 22.77992188 18.11375 23.68484375 18.6875 24.6171875 C20 27 20 27 20 29 C17.69 29 15.38 29 13 29 C9 22.375 9 22.375 9 19 C7.68 19 6.36 19 5 19 C5 22.3 5 25.6 5 29 C3.35 29 1.7 29 0 29 C0 19.43 0 9.86 0 0 Z " fill="#F0F2DD" transform="translate(196,431)"/>
<path d="M0 0 C3.90209164 0.92334746 5.69749115 2.64898086 8.41015625 5.5703125 C10.00814658 8.76629315 9.7778918 12.09354006 9.41015625 15.5703125 C7.65156935 19.73538674 5.5581412 21.77913718 1.41015625 23.5703125 C-1.91592788 24.05410656 -4.31593278 24.30324758 -7.30078125 22.5859375 C-11.64929698 19.14954946 -13.28097673 16.61655654 -14.08984375 11.2578125 C-13.51255046 7.00027445 -12.49566593 4.97737228 -9.56640625 1.90234375 C-6.42335648 -0.21579849 -3.71182715 -0.2575325 0 0 Z " fill="#729E52" transform="translate(407.58984375,377.4296875)"/>
<path d="M0 0 C0.38642604 8.58724527 0.26416462 15.10375307 -4.625 22.4375 C-7.74439041 24.48973053 -10.39373931 24.56994635 -14.07421875 24.7265625 C-14.70972656 24.81679688 -15.34523437 24.90703125 -16 25 C-16.33 25.66 -16.66 26.32 -17 27 C-17.99 27 -18.98 27 -20 27 C-19.79375 26.05125 -19.5875 25.1025 -19.375 24.125 C-19.25125 23.09375 -19.1275 22.0625 -19 21 C-19.66 20.34 -20.32 19.68 -21 19 C-21.82431305 15.10829129 -21.83190642 11.45514067 -19.83203125 7.95703125 C-13.91361511 0.82146012 -9.06760752 -0.47538913 0 0 Z " fill="#719E51" transform="translate(209,376)"/>
<path d="M0 0 C3.0625 1.625 3.0625 1.625 5 4 C5.3125 7.25 5.3125 7.25 5 10 C3.02 10 1.04 10 -1 10 C-1.66 8.68 -2.32 7.36 -3 6 C-4.65 6.33 -6.3 6.66 -8 7 C-8.02685095 9.47923801 -8.04676547 11.9581884 -8.0625 14.4375 C-8.07087891 15.14455078 -8.07925781 15.85160156 -8.08789062 16.58007812 C-8.09653588 18.38693559 -8.05220011 20.19387603 -8 22 C-6.93354885 23.29633621 -6.93354885 23.29633621 -4.4375 23.0625 C-3.2309375 23.0315625 -3.2309375 23.0315625 -2 23 C-1.67 21.68 -1.34 20.36 -1 19 C-2.32 19 -3.64 19 -5 19 C-5 17.02 -5 15.04 -5 13 C-1.7 13 1.6 13 5 13 C5.89403974 23.3807947 5.89403974 23.3807947 3.9453125 26.91015625 C1.25728204 29.40203314 -1.50533886 30.3262559 -5.0625 30.5625 C-9.44784817 29.93602169 -11.06790434 29.27704809 -14 26 C-16.74046575 20.5190685 -16.97646985 13.8203492 -15.46484375 7.90625 C-12.48195041 0.21266718 -7.7381112 -1.22543042 0 0 Z " fill="#ECEFD8" transform="translate(255,431)"/>
<path d="M0 0 C13 0 13 0 16.8125 1.875 C19.81773883 6.16819834 19.89968615 9.89601126 19 15 C16.5555285 18.66670726 15.18416588 18.93344791 11 20 C9.35 20 7.7 20 6 20 C6 23.3 6 26.6 6 30 C4.02 30 2.04 30 0 30 C0 20.1 0 10.2 0 0 Z " fill="#ECF0D8" transform="translate(411,431)"/>
<path d="M0 0 C2.64 0 5.28 0 8 0 C8.26478149 0.94637329 8.26478149 0.94637329 8.53491211 1.91186523 C9.33235758 4.75471508 10.13485868 7.59611298 10.9375 10.4375 C11.35418945 11.92733398 11.35418945 11.92733398 11.77929688 13.44726562 C12.04677734 14.39150391 12.31425781 15.33574219 12.58984375 16.30859375 C12.83597412 17.18314209 13.08210449 18.05769043 13.33569336 18.95874023 C13.81995794 20.97114846 13.81995794 20.97114846 15 22 C15.04092937 24.33297433 15.04241723 26.66705225 15 29 C13.02 29 11.04 29 9 29 C9 27.35 9 25.7 9 24 C5.7 24 2.4 24 -1 24 C-1 25.65 -1 27.3 -1 29 C-2.98 29 -4.96 29 -7 29 C-7 27.02 -7 25.04 -7 23 C-6.34 23 -5.68 23 -5 23 C-5.07734375 21.52853516 -5.07734375 21.52853516 -5.15625 20.02734375 C-5.15625 15.57501987 -3.91651712 11.74696814 -2.5 7.5625 C-2.26152344 6.83095703 -2.02304687 6.09941406 -1.77734375 5.34570312 C-1.19403828 3.5607884 -0.59830065 1.77994443 0 0 Z " fill="#ECF0D8" transform="translate(361,431)"/>
<path d="M0 0 C2.64 0 5.28 0 8 0 C8.79201177 2.68739872 9.58361866 5.37491563 10.375 8.0625 C10.59671875 8.81466797 10.8184375 9.56683594 11.046875 10.34179688 C11.48815035 11.84083518 11.92810079 13.34026417 12.36669922 14.84008789 C12.77534846 16.2338118 13.18813474 17.62633252 13.60595703 19.01733398 C14.62854601 22.46936573 15.21890111 25.38813161 15 29 C13.02 29 11.04 29 9 29 C9 27.35 9 25.7 9 24 C5.7 24 2.4 24 -1 24 C-1.33 25.65 -1.66 27.3 -2 29 C-3.65 29 -5.3 29 -7 29 C-7.25 22.375 -7.25 22.375 -5 19 C-4.62557197 17.28317815 -4.31992319 15.55071947 -4.0625 13.8125 C-3.24202489 8.87652177 -1.9153426 4.61423443 0 0 Z " fill="#ECF0D8" transform="translate(438,431)"/>
<path d="M0 0 C2.31 0 4.62 0 7 0 C9.41157161 5.29697107 11.1565518 10.57710674 12.6875 16.1875 C12.91244141 16.98091797 13.13738281 17.77433594 13.36914062 18.59179688 C13.58119141 19.35943359 13.79324219 20.12707031 14.01171875 20.91796875 C14.20209717 21.60656982 14.39247559 22.2951709 14.58862305 23.00463867 C15 25 15 25 15 29 C13.02 29 11.04 29 9 29 C8.67 27.35 8.34 25.7 8 24 C5.03 24 2.06 24 -1 24 C-1 25.65 -1 27.3 -1 29 C-2.98 29 -4.96 29 -7 29 C-7.19512906 24.50530299 -6.58987596 21.01490367 -5.1875 16.75 C-4.64416016 15.06583984 -4.64416016 15.06583984 -4.08984375 13.34765625 C-3.73019531 12.24292969 -3.37054688 11.13820313 -3 10 C-2.41066472 8.06431719 -1.82661141 6.1270111 -1.25 4.1875 C-1.00765625 3.37667969 -0.7653125 2.56585938 -0.515625 1.73046875 C-0.34546875 1.15941406 -0.1753125 0.58835937 0 0 Z " fill="#EDF0D9" transform="translate(271,431)"/>
<path d="M0 0 C3.36652965 0.04824644 4.70205954 0.28653225 7.75 1.9375 C10.12473207 4.75749433 10.50210718 6.67673871 10.75 10.3125 C8.44 10.3125 6.13 10.3125 3.75 10.3125 C3.42 8.9925 3.09 7.6725 2.75 6.3125 C-0.54075996 6.69154208 -0.54075996 6.69154208 -3.25 8.3125 C-3.34909302 10.64410055 -3.37970504 12.97879942 -3.375 15.3125 C-3.37886719 17.230625 -3.37886719 17.230625 -3.3828125 19.1875 C-3.60860893 22.17937244 -3.60860893 22.17937244 -2.25 23.3125 C-0.58382885 23.35313832 1.08388095 23.355221 2.75 23.3125 C3.08 21.9925 3.41 20.6725 3.75 19.3125 C2.43 19.3125 1.11 19.3125 -0.25 19.3125 C-0.25 17.3325 -0.25 15.3525 -0.25 13.3125 C3.05 13.3125 6.35 13.3125 9.75 13.3125 C10.35143198 22.85187947 10.35143198 22.85187947 8.4375 27.5 C4.77946223 29.96704873 1.83920705 29.91626624 -2.49609375 29.9765625 C-6.45146609 29.02278477 -7.86841836 27.59831853 -10.25 24.3125 C-10.95711216 21.28704136 -10.95036412 18.40745327 -10.875 15.3125 C-10.89433594 14.5184375 -10.91367188 13.724375 -10.93359375 12.90625 C-10.8969274 8.50628849 -10.66928428 6.82040272 -7.7734375 3.3125 C-6.94070312 2.6525 -6.10796875 1.9925 -5.25 1.3125 C-3.69014791 -0.24735209 -2.16093902 0.06797656 0 0 Z " fill="#EDF0D9" transform="translate(180.25,430.6875)"/>
<path d="M0 0 C2.6875 1.6875 2.6875 1.6875 4 4 C4.25 6.75 4.25 6.75 4 9 C2.02 9 0.04 9 -2 9 C-2.33 8.01 -2.66 7.02 -3 6 C-4.32 6 -5.64 6 -7 6 C-7 7.32 -7 8.64 -7 10 C-6.01 10.33 -5.02 10.66 -4 11 C-4 11.66 -4 12.32 -4 13 C-2.8553125 13.1546875 -2.8553125 13.1546875 -1.6875 13.3125 C1.28479726 14.07285511 2.14204724 14.6241696 4 17 C4.43359375 19.15625 4.43359375 19.15625 4.4375 21.5 C4.46650391 22.66015625 4.46650391 22.66015625 4.49609375 23.84375 C4 26 4 26 2.31640625 27.75390625 C-1.89611836 30.02000296 -6.35576452 29.63426585 -11 29 C-13.6875 27.3125 -13.6875 27.3125 -15 25 C-15.25 22.25 -15.25 22.25 -15 20 C-13.02 19.67 -11.04 19.34 -9 19 C-8.67 20.32 -8.34 21.64 -8 23 C-6.02 23.33 -4.04 23.66 -2 24 C-2.42930551 21.57759202 -2.42930551 21.57759202 -4 19 C-5.95150485 17.7945348 -7.91549829 16.88429418 -10.02734375 15.9921875 C-12.20510496 14.8968383 -13.49845894 13.92068289 -15 12 C-15.47243909 7.7480482 -15.67015459 5.27648494 -13.6875 1.5 C-9.31237096 -0.94193249 -4.8827393 -0.73352229 0 0 Z " fill="#EBEFD7" transform="translate(142,431)"/>
<path d="M0 0 C2.625 1.6875 2.625 1.6875 4 4 C4.25 6.75 4.25 6.75 4 9 C2.02 9 0.04 9 -2 9 C-2.33 8.01 -2.66 7.02 -3 6 C-4.32 6 -5.64 6 -7 6 C-7.12815365 8.3852733 -7.12815365 8.3852733 -6 11 C-4.03772852 12.27224195 -2.05984556 13.18863211 0.08984375 14.10546875 C2 15 2 15 4 17 C4.56109143 20.05942484 4.51169103 22.93529733 4 26 C1.84881942 28.84510981 0.33547953 29.74884291 -3.16015625 30.40625 C-7.4832229 30.69493559 -9.46308106 30.38351353 -13.0625 27.8125 C-15.13037986 24.81073891 -15.50709429 23.54966001 -15 20 C-13.02 20 -11.04 20 -9 20 C-8.67 20.99 -8.34 21.98 -8 23 C-6.02 23.33 -4.04 23.66 -2 24 C-2.42930551 21.57759202 -2.42930551 21.57759202 -4 19 C-5.97186057 17.82029076 -7.99973666 16.909149 -10.08984375 15.95703125 C-12.61465962 14.6920417 -13.7949084 13.56081966 -15 11 C-15.67296739 7.04631659 -15.32778892 5.50260967 -13.125 2.125 C-8.77376675 -0.83383861 -5.12022624 -0.93252012 0 0 Z " fill="#ECF0D8" transform="translate(347,431)"/>
<path d="M0 0 C2.45934708 0.83732634 4.65741945 1.85261361 7 3 C7 4.98 7 6.96 7 9 C5.35 9 3.7 9 2 9 C1.67 8.01 1.34 7.02 1 6 C-0.65 6 -2.3 6 -4 6 C-3.67 7.98 -3.34 9.96 -3 12 C-1.6696875 12.12375 -1.6696875 12.12375 -0.3125 12.25 C3.60028426 13.13591342 5.35806101 13.96954057 8 17 C8.78076719 21.91883328 8.76275589 23.81895862 6.0625 28 C2.49082735 30.33252091 0.35475755 30.73337482 -3.83984375 30.48828125 C-7.41885632 29.67928203 -8.96418999 27.95520808 -11 25 C-11.3125 22.1875 -11.3125 22.1875 -11 20 C-9.02 19.67 -7.04 19.34 -5 19 C-4.67 20.32 -4.34 21.64 -4 23 C-2.02 23.33 -0.04 23.66 2 24 C2 22.35 2 20.7 2 19 C1.278125 18.896875 0.55625 18.79375 -0.1875 18.6875 C-3.29712409 17.92736967 -5.36561178 16.80247615 -8 15 C-8.598125 14.608125 -9.19625 14.21625 -9.8125 13.8125 C-11.8172988 10.75254394 -11.61531124 7.47511006 -11 4 C-8.1302208 -0.59164672 -5.14546984 -0.61047947 0 0 Z " fill="#ECF0D8" transform="translate(300,431)"/>
<path d="M0 0 C1.65 0 3.3 0 5 0 C5 3.63 5 7.26 5 11 C7.97 11 10.94 11 14 11 C14 7.37 14 3.74 14 0 C15.65 0 17.3 0 19 0 C19 9.24 19 18.48 19 28 C17.02 28 15.04 28 13 28 C13 24.37 13 20.74 13 17 C10.69 17 8.38 17 6 17 C6 20.63 6 24.26 6 28 C4.02 28 2.04 28 0 28 C0 18.76 0 9.52 0 0 Z " fill="#F3F5E0" transform="translate(457,432)"/>
<path d="M0 0 C0.99 0 1.98 0 3 0 C1.54331217 2.96783129 -0.01232086 5.86415313 -1.625 8.75 C-2.07101562 9.54921875 -2.51703125 10.3484375 -2.9765625 11.171875 C-3.31429688 11.77515625 -3.65203125 12.3784375 -4 13 C0.455 12.505 0.455 12.505 5 12 C4.67 12.99 4.34 13.98 4 15 C1.671875 15.7734375 1.671875 15.7734375 -1.25 16.375 C-7.05436912 17.83172394 -9.94907607 19.73346221 -13.1796875 24.87890625 C-14.16478867 26.56037204 -15.0881888 28.27768996 -16 30 C-15.34 29.67 -14.68 29.34 -14 29 C-12.12620395 28.92966231 -10.24998898 28.9156978 -8.375 28.9375 C-6.87066406 28.95103516 -6.87066406 28.95103516 -5.3359375 28.96484375 C-4.56507813 28.97644531 -3.79421875 28.98804688 -3 29 C-3 29.66 -3 30.32 -3 31 C-4.25296875 31.21914062 -5.5059375 31.43828125 -6.796875 31.6640625 C-8.4481707 31.98306281 -10.09919923 32.30344832 -11.75 32.625 C-12.575 32.76550781 -13.4 32.90601563 -14.25 33.05078125 C-18.74191399 33.95640907 -20.48444435 34.33449516 -23.390625 38.0859375 C-23.92171875 39.04757813 -24.4528125 40.00921875 -25 41 C-26.485 41.495 -26.485 41.495 -28 42 C-27.66226562 41.38769531 -27.32453125 40.77539062 -26.9765625 40.14453125 C-25.56316317 35.5933854 -26.04199765 31.39948323 -26.375 26.6875 C-26.43171875 25.75615234 -26.4884375 24.82480469 -26.546875 23.86523438 C-26.68775226 21.57597897 -26.83909829 19.2879206 -27 17 C-25.68 17.33 -24.36 17.66 -23 18 C-22.93941406 18.62648437 -22.87882812 19.25296875 -22.81640625 19.8984375 C-22.69072266 21.12433594 -22.69072266 21.12433594 -22.5625 22.375 C-22.48128906 23.18710938 -22.40007812 23.99921875 -22.31640625 24.8359375 C-22.10909886 27.04272805 -22.10909886 27.04272805 -21 29 C-15.1513581 22.73359797 -14.43342763 17.44010085 -14.6953125 9.234375 C-14.77512606 7.48845327 -14.88445184 5.74392131 -15 4 C-14.34 4 -13.68 4 -13 4 C-12.34 7.3 -11.68 10.6 -11 14 C-10.34 14 -9.68 14 -9 14 C-8.74089844 13.27425781 -8.48179687 12.54851562 -8.21484375 11.80078125 C-6.95525439 8.89684051 -5.49198794 6.68961017 -3.5625 4.1875 C-2.96566406 3.39730469 -2.36882812 2.60710937 -1.75390625 1.79296875 C-1.17511719 1.20128906 -0.59632813 0.60960937 0 0 Z " fill="#699848" transform="translate(302,196)"/>
<path d="M0 0 C3.53571429 0.53571429 3.53571429 0.53571429 5 2 C5.04080783 3.99958364 5.04254356 6.00045254 5 8 C6.65 8.33 8.3 8.66 10 9 C9.67 6.69 9.34 4.38 9 2 C10.65 1.67 12.3 1.34 14 1 C14.680625 2.2375 14.680625 2.2375 15.375 3.5 C15.91125 4.325 16.4475 5.15 17 6 C17.66 6 18.32 6 19 6 C15.52754375 17.30395334 15.52754375 17.30395334 13 20 C8.96694715 21.18021508 5.43583825 21.35418758 1.35546875 20.34765625 C-1.80305812 18.54053889 -2.21847218 16.9216508 -3.3125 13.5 C-3.63863281 12.5203125 -3.96476562 11.540625 -4.30078125 10.53125 C-5 8 -5 8 -5 6 C-4.34 6 -3.68 6 -3 6 C-2.87625 5.38125 -2.7525 4.7625 -2.625 4.125 C-2 2 -2 2 0 0 Z " fill="#F0F2DC" transform="translate(294,374)"/>
<path d="M0 0 C5.28 0 10.56 0 16 0 C16 1.98 16 3.96 16 6 C12.7 6 9.4 6 6 6 C6 7.98 6 9.96 6 12 C8.97 12 11.94 12 15 12 C15 13.65 15 15.3 15 17 C12.03 17 9.06 17 6 17 C6 19.31 6 21.62 6 24 C9.3 24 12.6 24 16 24 C16 25.65 16 27.3 16 29 C10.72 29 5.44 29 0 29 C0 19.43 0 9.86 0 0 Z " fill="#EDF1D9" transform="translate(150,431)"/>
<path d="M0 0 C5.28 0 10.56 0 16 0 C16 1.98 16 3.96 16 6 C12.7 6 9.4 6 6 6 C6 7.98 6 9.96 6 12 C8.64 12 11.28 12 14 12 C14 13.65 14 15.3 14 17 C11.36 17 8.72 17 6 17 C6 19.31 6 21.62 6 24 C9.3 24 12.6 24 16 24 C16 25.65 16 27.3 16 29 C10.72 29 5.44 29 0 29 C0 19.43 0 9.86 0 0 Z " fill="#F0F2DC" transform="translate(220,431)"/>
<path d="M0 0 C2.75329021 1.79562405 4.52627461 3.05254922 6 6 C6.50761671 10.39934481 6.25800237 12.54225386 4.0625 16.4375 C0.45012432 19.46010006 -1.33672059 19.7731384 -5.91015625 19.46875 C-8.90957133 18.795984 -10.25192088 17.47644542 -12 15 C-13.55024464 11.89951072 -13.28992015 9.42105782 -13 6 C-9.30920537 0.34078157 -6.6962915 -0.56748233 0 0 Z " fill="#E8ECD3" transform="translate(382,474)"/>
<path d="M0 0 C11.33234914 -0.49271083 11.33234914 -0.49271083 14.35546875 1.73828125 C16.6593549 4.90680876 16.64364266 6.99125135 16.4296875 10.8046875 C16 13 16 13 14.1875 16.0625 C9.38336838 18.98265844 5.56347225 18.33514893 0 18 C0 12.06 0 6.12 0 0 Z " fill="#F5F6E2" transform="translate(346,475)"/>
<path d="M0 0 C4.62 0 9.24 0 14 0 C14 5.94 14 11.88 14 18 C9.38 18 4.76 18 0 18 C0 12.06 0 6.12 0 0 Z " fill="#6E9B4C" transform="translate(236,380)"/>
<path d="M0 0 C0.83272934 0.00222061 1.66545868 0.00444122 2.52342224 0.00672913 C3.46432205 0.00680466 4.40522186 0.00688019 5.37463379 0.00695801 C6.39754013 0.01211929 7.42044647 0.01728058 8.47434998 0.02259827 C9.51614914 0.02401321 10.5579483 0.02542816 11.63131714 0.02688599 C14.97355467 0.03250372 18.31572629 0.04505922 21.65794373 0.05775452 C23.91770839 0.06276723 26.17747409 0.06733053 28.4372406 0.07142639 C33.98999763 0.08247891 39.54271597 0.09923428 45.09544373 0.12025452 C45.09544373 1.11025452 45.09544373 2.10025452 45.09544373 3.12025452 C30.24544373 3.12025452 15.39544373 3.12025452 0.09544373 3.12025452 C0.09544373 18.96025452 0.09544373 34.80025452 0.09544373 51.12025452 C-0.23455627 51.12025452 -0.56455627 51.12025452 -0.90455627 51.12025452 C-1.23455627 49.14025452 -1.56455627 47.16025452 -1.90455627 45.12025452 C-2.23455627 45.12025452 -2.56455627 45.12025452 -2.90455627 45.12025452 C-2.92982752 38.87229777 -2.94738971 32.6243541 -2.95948792 26.37635803 C-2.96452926 24.24907438 -2.97136219 22.1217942 -2.97999573 19.99452209 C-2.99207006 16.94397626 -2.99778642 13.89347606 -3.00221252 10.84291077 C-3.00737381 9.88562576 -3.0125351 8.92834076 -3.01785278 7.94204712 C-3.01792831 7.06120956 -3.01800385 6.18037201 -3.01808167 5.27284241 C-3.02030228 4.49340775 -3.02252289 3.71397308 -3.02481079 2.91091919 C-2.85584088 0.39485199 -2.51137467 0.1585693 0 0 Z " fill="#D3DFBA" transform="translate(378.90455627441406,278.87974548339844)"/>
<path d="M0 0 C1.32 0 2.64 0 4 0 C4 6.27 4 12.54 4 19 C2.68 19 1.36 19 0 19 C0 15.7 0 12.4 0 9 C-0.66 9 -1.32 9 -2 9 C-2.66 10.98 -3.32 12.96 -4 15 C-5.32 14.67 -6.64 14.34 -8 14 C-8.33 12.68 -8.66 11.36 -9 10 C-9.66 10 -10.32 10 -11 10 C-11 12.97 -11 15.94 -11 19 C-12.32 19 -13.64 19 -15 19 C-15 13.06 -15 7.12 -15 1 C-10 2 -10 2 -8.1875 4.4375 C-7 7 -7 7 -7 9 C-4.84510225 7.06059202 -3.59579807 5.33502263 -2.0625 2.8125 C-1.381875 1.884375 -0.70125 0.95625 0 0 Z " fill="#E3E9CE" transform="translate(228,474)"/>
<path d="M0 0 C0.75925781 -0.02771484 1.51851563 -0.05542969 2.30078125 -0.08398438 C4.53471378 -0.07420358 6.36064095 0.03914122 8.5 0.6875 C11.29215145 3.85426147 12.37496308 5.75865434 12.9375 9.9375 C12.793125 10.845 12.64875 11.7525 12.5 12.6875 C9.27208445 14.8394437 8.21599191 14.88836443 4.5 14.6875 C4.17 13.3675 3.84 12.0475 3.5 10.6875 C4.139375 10.254375 4.77875 9.82125 5.4375 9.375 C7.76746003 7.77510823 7.76746003 7.77510823 8.5 4.6875 C7.489375 5.038125 6.47875 5.38875 5.4375 5.75 C0.52021699 7.16633709 -3.70292031 6.28652656 -8.5 4.6875 C-8.29623822 6.59334196 -8.29623822 6.59334196 -7.5 8.6875 C-6.17151309 9.69392948 -4.83849671 10.69442179 -3.5 11.6875 C-3.5 12.6775 -3.5 13.6675 -3.5 14.6875 C-9.5546875 14.8828125 -9.5546875 14.8828125 -11.5 14.6875 C-12.16 14.0275 -12.82 13.3675 -13.5 12.6875 C-13.13201924 2.93600978 -9.09262626 -0.17753005 0 0 Z " fill="#6E9C4E" transform="translate(395.5,219.3125)"/>
<path d="M0 0 C5 1 5 1 6.8125 3.4375 C8 6 8 6 8 8 C8.99 8 9.98 8 11 8 C11.12375 7.236875 11.2475 6.47375 11.375 5.6875 C12 3 12 3 14 0 C15.32 0 16.64 0 18 0 C18 5.94 18 11.88 18 18 C17.01 18 16.02 18 15 18 C15 15.03 15 12.06 15 9 C13.35 10.65 11.7 12.3 10 14 C9.01 13.67 8.02 13.34 7 13 C6.3125 10.9375 6.3125 10.9375 6 9 C5.34 9 4.68 9 4 9 C4 11.97 4 14.94 4 18 C2.68 18 1.36 18 0 18 C0 12.06 0 6.12 0 0 Z " fill="#EAEED6" transform="translate(282,475)"/>
<path d="M0 0 C1.32 0 2.64 0 4 0 C4 6.27 4 12.54 4 19 C-1 18 -1 18 -2.73046875 16.1875 C-3.21128906 15.465625 -3.69210937 14.74375 -4.1875 14 C-6.1216608 10.97055277 -6.1216608 10.97055277 -9 9 C-9 12.3 -9 15.6 -9 19 C-9.99 19 -10.98 19 -12 19 C-12 13.06 -12 7.12 -12 1 C-7.87926399 2.030184 -7.27622669 2.36902769 -4.75 5.4375 C-3.96882813 6.36369141 -3.96882813 6.36369141 -3.171875 7.30859375 C-2 9 -2 9 -2 11 C-1.34 11 -0.68 11 0 11 C0 7.37 0 3.74 0 0 Z " fill="#E9EED5" transform="translate(334,474)"/>
<path d="M0 0 C14.85 0 29.7 0 45 0 C45 1.32 45 2.64 45 4 C29.82 4 14.64 4 -1 4 C-0.67 2.68 -0.34 1.36 0 0 Z " fill="#D9E3C3" transform="translate(386,288)"/>
<path d="M0 0 C2.32421875 0.07421875 2.32421875 0.07421875 5 1 C6.58203125 4.01953125 6.58203125 4.01953125 7.8125 7.8125 C8.23144531 9.05644531 8.65039062 10.30039062 9.08203125 11.58203125 C10 15 10 15 10 19 C8.68 19 7.36 19 6 19 C6 18.01 6 17.02 6 16 C3.36 16 0.72 16 -2 16 C-2.33 16.99 -2.66 17.98 -3 19 C-3.99 19 -4.98 19 -6 19 C-6.20675522 15.14746105 -5.62527747 12.480126 -4.125 8.9375 C-3.77695313 8.10089844 -3.42890625 7.26429688 -3.0703125 6.40234375 C-2.10426921 4.23403491 -1.08282396 2.11199448 0 0 Z " fill="#E4EACF" transform="translate(245,474)"/>
<path d="M0 0 C1.98 0 3.96 0 6 0 C6 9.57 6 19.14 6 29 C4.02 29 2.04 29 0 29 C0 19.43 0 9.86 0 0 Z " fill="#EFF2DC" transform="translate(313,431)"/>
<path d="M0 0 C14.19 0 28.38 0 43 0 C43 1.32 43 2.64 43 4 C28.81 4 14.62 4 0 4 C0 2.68 0 1.36 0 0 Z " fill="#CFDCB8" transform="translate(385,298)"/>
<path d="M0 0 C0.96099609 0.12568359 0.96099609 0.12568359 1.94140625 0.25390625 C7.23075314 0.87664605 11.77045499 1.02317185 17 0 C16.6875 1.875 16.6875 1.875 16 4 C15.01 4.66 14.02 5.32 13 6 C13 6.99 13 7.98 13 9 C14.32 9.66 15.64 10.32 17 11 C16.34 11 15.68 11 15 11 C15 12.32 15 13.64 15 15 C11.04 15 7.08 15 3 15 C3 11.88742431 3.17361624 9.89234315 4 7 C3.34 6.5875 2.68 6.175 2 5.75 C1.34 5.1725 0.68 4.595 0 4 C0 2.68 0 1.36 0 0 Z " fill="#E3EACE" transform="translate(387,224)"/>
<path d="M0 0 C1.875 1.3125 1.875 1.3125 3 3 C3 3.99 3 4.98 3 6 C1.68 6 0.36 6 -1 6 C-1 5.34 -1 4.68 -1 4 C-2.65 4 -4.3 4 -6 4 C-5.67 4.99 -5.34 5.98 -5 7 C-2.68895182 8.05047644 -0.35416349 9.05007438 2 10 C2.66 10.66 3.32 11.32 4 12 C3.67028521 15.29714793 3.3773161 16.6226839 1 19 C-1.09375 19.30078125 -1.09375 19.30078125 -3.5 19.3125 C-4.2940625 19.32925781 -5.088125 19.34601563 -5.90625 19.36328125 C-6.5971875 19.24339844 -7.288125 19.12351562 -8 19 C-10 16 -10 16 -10 13 C-8.68 13 -7.36 13 -6 13 C-5.67 13.66 -5.34 14.32 -5 15 C-2.97536745 15.65213292 -2.97536745 15.65213292 -1 16 C-1.71004465 12.72143001 -1.71004465 12.72143001 -4.9375 11.4375 C-5.948125 10.963125 -6.95875 10.48875 -8 10 C-8.66 9.34 -9.32 8.68 -10 8 C-9.8125 5 -9.8125 5 -9 2 C-5.53076119 -0.31282587 -4.07794425 -0.42478586 0 0 Z " fill="#EBEED6" transform="translate(271,474)"/>
<path d="M0 0 C4.07328768 0.56680182 6.40620179 2.71591936 9.5 5.3125 C10.4384375 6.09238281 11.376875 6.87226563 12.34375 7.67578125 C14.66314076 9.70524817 16.85486448 11.78909381 19 14 C19.12375 13.2575 19.2475 12.515 19.375 11.75 C19.95486701 9.19858515 20.73708739 7.2732427 22 5 C22.66 5.33 23.32 5.66 24 6 C23.79503906 6.92941406 23.59007812 7.85882813 23.37890625 8.81640625 C23.10949219 10.05261719 22.84007812 11.28882813 22.5625 12.5625 C22.29566406 13.78066406 22.02882812 14.99882812 21.75390625 16.25390625 C21.03292641 19.83639157 20.47992499 23.37959502 20 27 C19.01 27 18.02 27 17 27 C16.9690625 25.2675 16.9690625 25.2675 16.9375 23.5 C15.80040144 14.77200027 7.43499669 9.50104065 0.94140625 4.46875 C0.30074219 3.9840625 -0.33992187 3.499375 -1 3 C-0.67 2.01 -0.34 1.02 0 0 Z " fill="#E5EBD0" transform="translate(170,283)"/>
<path d="M0 0 C-2.08343432 5.11388425 -5.52347931 8.19209245 -10.3125 10.8125 C-14.55703779 12.17938505 -17.57789518 12.23274236 -22 12 C-19.67249238 6.7029137 -15.53743404 3.43137305 -10.5625 0.625 C-6.968145 -0.25167195 -3.69633309 -0.12529943 0 0 Z " fill="#6D9B4C" transform="translate(448,178)"/>
<path d="M0 0 C6.7841729 -0.56534774 11.58409547 1.15703912 16.83984375 5.53125 C18.5 7.125 18.5 7.125 21 10 C21 10.66 21 11.32 21 12 C15.2424013 12.34545592 10.91959659 12.38905543 6 9 C3.79692391 6.81211754 1.74712363 4.57112166 0 2 C0 1.34 0 0.68 0 0 Z " fill="#6D9A4C" transform="translate(343,178)"/>
<path d="M0 0 C2.625 0.375 2.625 0.375 5 1 C5.33 2.32 5.66 3.64 6 5 C7.98 5 9.96 5 12 5 C12 5.99 12 6.98 12 8 C8.7 8 5.4 8 2 8 C2 9.98 2 11.96 2 14 C3.32 14 4.64 14 6 14 C5.67 15.65 5.34 17.3 5 19 C2.625 19.125 2.625 19.125 0 19 C-2.49210439 16.50789561 -2.26015661 14.99639212 -2.2734375 11.58984375 C-2.26570312 10.90019531 -2.25796875 10.21054687 -2.25 9.5 C-2.25773438 8.81035156 -2.26546875 8.12070312 -2.2734375 7.41015625 C-2.25333293 2.25333293 -2.25333293 2.25333293 0 0 Z " fill="#6D9B4C" transform="translate(248,436)"/>
<path d="M0 0 C1.1446875 0.3403125 1.1446875 0.3403125 2.3125 0.6875 C2.3125 2.0075 2.3125 3.3275 2.3125 4.6875 C4.2925 4.6875 6.2725 4.6875 8.3125 4.6875 C8.3125 5.6775 8.3125 6.6675 8.3125 7.6875 C5.0125 7.6875 1.7125 7.6875 -1.6875 7.6875 C-1.6875 9.6675 -1.6875 11.6475 -1.6875 13.6875 C-0.3675 13.6875 0.9525 13.6875 2.3125 13.6875 C1.9825 15.3375 1.6525 16.9875 1.3125 18.6875 C-1.0625 18.8125 -1.0625 18.8125 -3.6875 18.6875 C-6.55086371 15.82413629 -5.98766187 13.73521654 -6 9.75 C-6.01675781 8.50347656 -6.03351563 7.25695312 -6.05078125 5.97265625 C-5.6875 2.6875 -5.6875 2.6875 -4.3359375 0.7265625 C-2.6875 -0.3125 -2.6875 -0.3125 0 0 Z " fill="#6D9B4C" transform="translate(181.6875,436.3125)"/>
<path d="M0 0 C14.19 0 28.38 0 43 0 C43 0.99 43 1.98 43 3 C28.81 3 14.62 3 0 3 C0 2.01 0 1.02 0 0 Z " fill="#E4EAD0" transform="translate(385,309)"/>
<path d="M0 0 C2.5 0.25 2.5 0.25 4.5 2.25 C4.5 3.24 4.5 4.23 4.5 5.25 C2.52 5.58 0.54 5.91 -1.5 6.25 C-1.83 7.57 -2.16 8.89 -2.5 10.25 C0.965 9.755 0.965 9.755 4.5 9.25 C2.625 13.125 2.625 13.125 1.5 14.25 C-0.49958364 14.29080783 -2.50045254 14.29254356 -4.5 14.25 C-4.83 16.23 -5.16 18.21 -5.5 20.25 C-6.16 20.25 -6.82 20.25 -7.5 20.25 C-7.83165262 13.45726311 -7.83098087 8.2713885 -4.5 2.25 C-2.5 0.25 -2.5 0.25 0 0 Z " fill="#82A963" transform="translate(414.5,189.75)"/>
<path d="M0 0 C3.0625 0.3125 3.0625 0.3125 4.9375 1.4375 C6.56781294 4.15468824 6.39265665 6.20902746 6.0625 9.3125 C4.0625 11.3125 4.0625 11.3125 0.5625 11.5625 C-2.9375 11.3125 -2.9375 11.3125 -4.9375 9.3125 C-5.1875 5.8125 -5.1875 5.8125 -4.9375 2.3125 C-2.9375 0.3125 -2.9375 0.3125 0 0 Z " fill="#689747" transform="translate(377.9375,477.6875)"/>
<path d="M0 0 C4.75 0.875 4.75 0.875 7 2 C9.12784853 8.3835456 9.22124638 14.31344281 9 21 C7 19 7 19 6.875 16.375 C6.91625 15.59125 6.9575 14.8075 7 14 C4.36 14 1.72 14 -1 14 C-1.33 12.35 -1.66 10.7 -2 9 C0.31 9.33 2.62 9.66 5 10 C4.37466625 7.47636012 4.37466625 7.47636012 3 5 C0.45224694 4.10613836 0.45224694 4.10613836 -2 4 C-1.34 2.68 -0.68 1.36 0 0 Z " fill="#689747" transform="translate(374,190)"/>
<path d="M0 0 C0.66 0 1.32 0 2 0 C1.67 1.98 1.34 3.96 1 6 C1.66 6 2.32 6 3 6 C2.67 6.99 2.34 7.98 2 9 C0.33927151 9.68132451 -1.327767 10.34742127 -3 11 C-3.99 12.485 -3.99 12.485 -5 14 C-3.68 14.33 -2.36 14.66 -1 15 C-2 16 -2 16 -4.9375 16.25 C-5.948125 16.1675 -6.95875 16.085 -8 16 C-10.1519437 12.77208445 -10.20086443 11.71599191 -10 8 C-9.34 8 -8.68 8 -8 8 C-8 8.99 -8 9.98 -8 11 C-7.34 11 -6.68 11 -6 11 C-6 8.03 -6 5.06 -6 2 C-5.34 2 -4.68 2 -4 2 C-4 2.66 -4 3.32 -4 4 C-3.34 4 -2.68 4 -2 4 C-1.34 2.68 -0.68 1.36 0 0 Z " fill="#DAE3C3" transform="translate(202,381)"/>
<path d="M0 0 C1.16595703 0.0628418 1.16595703 0.0628418 2.35546875 0.12695312 C3.54462891 0.16079102 3.54462891 0.16079102 4.7578125 0.1953125 C6.70784495 0.25404842 8.65690187 0.34372659 10.60546875 0.43945312 C10.60546875 0.76945313 10.60546875 1.09945312 10.60546875 1.43945312 C2.68546875 1.93445313 2.68546875 1.93445313 -5.39453125 2.43945312 C-4.73453125 3.09945312 -4.07453125 3.75945312 -3.39453125 4.43945312 C-4.38453125 4.43945312 -5.37453125 4.43945312 -6.39453125 4.43945312 C-6.19076947 6.34529509 -6.19076947 6.34529509 -5.39453125 8.43945312 C-4.06604434 9.4458826 -2.73302796 10.44637492 -1.39453125 11.43945312 C-1.39453125 12.42945313 -1.39453125 13.41945312 -1.39453125 14.43945312 C-7.44921875 14.63476562 -7.44921875 14.63476562 -9.39453125 14.43945312 C-10.05453125 13.77945313 -10.71453125 13.11945313 -11.39453125 12.43945312 C-11.2520879 8.66470437 -10.72811882 6.03921937 -8.88671875 2.72851562 C-5.7543206 -0.14857735 -4.11368674 -0.08789929 0 0 Z " fill="#7CA55C" transform="translate(393.39453125,219.560546875)"/>
<path d="M0 0 C1.98 0 3.96 0 6 0 C8 2 8 2 8.3125 5.4375 C8 9 8 9 6.8125 10.9375 C5 12 5 12 0 12 C0 8.04 0 4.08 0 0 Z " fill="#709D50" transform="translate(350,478)"/>
<path d="M0 0 C0.99 0.33 1.98 0.66 3 1 C3.47183746 5.05780213 3.33329645 6.56195324 0.8125 9.875 C-2 12 -2 12 -4.8125 12.3125 C-5.534375 12.209375 -6.25625 12.10625 -7 12 C-7 7.77471908 -6.74375671 6.95481492 -4 4 C-3.34 4 -2.68 4 -2 4 C-1.34 2.68 -0.68 1.36 0 0 Z " fill="#ECF0D7" transform="translate(410,385)"/>
<path d="M0 0 C8.58 0 17.16 0 26 0 C26 0.99 26 1.98 26 3 C17.42 3 8.84 3 0 3 C0 2.01 0 1.02 0 0 Z " fill="#E2E9CC" transform="translate(385,319)"/>
<path d="M0 0 C1.32 0 2.64 0 4 0 C4 6.27 4 12.54 4 19 C2.68 19 1.36 19 0 19 C0 12.73 0 6.46 0 0 Z " fill="#E4EACF" transform="translate(309,474)"/>
<path d="M0 0 C5.94 0 11.88 0 18 0 C18 1.32 18 2.64 18 4 C12.06 4 6.12 4 0 4 C0 2.68 0 1.36 0 0 Z " fill="#EBF0D7" transform="translate(395,355)"/>
<path d="M0 0 C5.61 0 11.22 0 17 0 C17 1.32 17 2.64 17 4 C11.39 4 5.78 4 0 4 C0 2.68 0 1.36 0 0 Z " fill="#E8EDD4" transform="translate(190,355)"/>
<path d="M0 0 C-1.39750048 3.15835107 -3.05198234 5.32272825 -5.5 7.75 C-6.41265625 8.67039062 -6.41265625 8.67039062 -7.34375 9.609375 C-9 11 -9 11 -11 11 C-10.91291331 9.54054712 -10.80473093 8.08234132 -10.6875 6.625 C-10.62949219 5.81289063 -10.57148438 5.00078125 -10.51171875 4.1640625 C-9.25957174 -1.13127675 -4.3970958 -0.16592814 0 0 Z " fill="#E8EDD4" transform="translate(409,382)"/>
<path d="M0 0 C0.99 0.66 1.98 1.32 3 2 C2.88573491 4.41760876 2.75900339 6.83347218 2.625 9.25 C2.5940625 9.93191406 2.563125 10.61382812 2.53125 11.31640625 C2.31740626 14.98739038 1.98922945 17.86251616 0 21 C-1.32 21 -2.64 21 -4 21 C-3.24489796 14.58163265 -3.24489796 14.58163265 -2 11.625 C-0.55852404 7.84112561 -0.33237506 4.01474084 0 0 Z " fill="#709D50" transform="translate(190,310)"/>
<path d="M0 0 C-1.42089299 3.15282724 -3.15031851 5.53777964 -5.4375 8.125 C-6.03433594 8.80820313 -6.63117188 9.49140625 -7.24609375 10.1953125 C-9 12 -9 12 -12 14 C-13.32 14 -14.64 14 -16 14 C-14.4561393 10.16666407 -12.07543723 8.01691792 -9 5.3125 C-8.113125 4.52488281 -7.22625 3.73726562 -6.3125 2.92578125 C-2.79918864 0 -2.79918864 0 0 0 Z " fill="#77A157" transform="translate(259,150)"/>
<path d="M0 0 C5.28 0 10.56 0 16 0 C16 1.32 16 2.64 16 4 C10.72 4 5.44 4 0 4 C0 2.68 0 1.36 0 0 Z " fill="#D8E1C1" transform="translate(345,354)"/>
<path d="M0 0 C1.32 0 2.64 0 4 0 C4 5.61 4 11.22 4 17 C3.34 17 2.68 17 2 17 C2 13.7 2 10.4 2 7 C0.35 7.33 -1.3 7.66 -3 8 C-2.45276317 4.62537285 -1.9451 2.91765 0 0 Z " fill="#F5F5E2" transform="translate(296,475)"/>
<path d="M0 0 C1.32 0 2.64 0 4 0 C4 5.61 4 11.22 4 17 C3.34 17 2.68 17 2 17 C2 13.7 2 10.4 2 7 C0.35 7.33 -1.3 7.66 -3 8 C-2.45276317 4.62537285 -1.9451 2.91765 0 0 Z " fill="#F5F6E2" transform="translate(227,475)"/>
<path d="M0 0 C0.99 0 1.98 0 3 0 C1.54331217 2.96783129 -0.01232086 5.86415313 -1.625 8.75 C-2.29402344 9.94882813 -2.29402344 9.94882813 -2.9765625 11.171875 C-3.31429688 11.77515625 -3.65203125 12.3784375 -4 13 C0.455 12.505 0.455 12.505 5 12 C4.67 12.99 4.34 13.98 4 15 C2.5199159 14.88637738 1.04089926 14.75877092 -0.4375 14.625 C-1.26121094 14.55539063 -2.08492188 14.48578125 -2.93359375 14.4140625 C-3.61550781 14.27742187 -4.29742187 14.14078125 -5 14 C-5.33 13.34 -5.66 12.68 -6 12 C-6.99 12.66 -7.98 13.32 -9 14 C-7.65994431 10.24651068 -5.99432841 7.34103233 -3.5625 4.1875 C-2.96566406 3.39730469 -2.36882812 2.60710937 -1.75390625 1.79296875 C-1.17511719 1.20128906 -0.59632813 0.60960937 0 0 Z " fill="#79A35A" transform="translate(302,196)"/>
<path d="M0 0 C1.99954746 -0.04254356 4.00041636 -0.04080783 6 0 C7 1 7 1 7.1875 3.9375 C7 7 7 7 5 9 C2.375 9.125 2.375 9.125 0 9 C0 6.03 0 3.06 0 0 Z " fill="#76A156" transform="translate(417,437)"/>
<path d="M0 0 C0.99 1.485 0.99 1.485 2 3 C2.66 2.67 3.32 2.34 4 2 C4.66 3.98 5.32 5.96 6 8 C8.97 8.495 8.97 8.495 12 9 C10.68 9.33 9.36 9.66 8 10 C8 10.66 8 11.32 8 12 C9.98 12 11.96 12 14 12 C14 12.33 14 12.66 14 13 C5.8372093 13.62790698 5.8372093 13.62790698 2.5 11.125 C-0.21650426 7.27661896 -0.08689337 4.692242 0 0 Z " fill="#E0E7CB" transform="translate(369,480)"/>
<path d="M0 0 C0.66 0.99 1.32 1.98 2 3 C5.58357241 3.25015873 5.58357241 3.25015873 9 3 C7.125 6.875 7.125 6.875 6 8 C4.00041636 8.04080783 1.99954746 8.04254356 0 8 C-0.33 9.65 -0.66 11.3 -1 13 C-1.33 13 -1.66 13 -2 13 C-2.05447047 11.58376784 -2.09300508 10.16691809 -2.125 8.75 C-2.14820313 7.96109375 -2.17140625 7.1721875 -2.1953125 6.359375 C-1.9828378 3.79268059 -1.28654105 2.2083933 0 0 Z " fill="#719D51" transform="translate(410,196)"/>
<path d="M0 0 C0.33 0 0.66 0 1 0 C1 5.61 1 11.22 1 17 C7.76655118 16.79670431 7.76655118 16.79670431 10.25 13.5 C10.8275 12.675 11.405 11.85 12 11 C12.99 10.67 13.98 10.34 15 10 C14.6875 12.875 14.6875 12.875 14 16 C9.43362969 19.04424687 5.43284541 18.12783166 0 18 C0 12.06 0 6.12 0 0 Z " fill="#D5E0BE" transform="translate(346,475)"/>
<path d="M0 0 C2.66746689 0.95755222 3.70633069 1.66129211 5.4375 3.875 C5.73046875 6.13671875 5.73046875 6.13671875 5.625 8.5625 C5.59792969 9.37074219 5.57085937 10.17898438 5.54296875 11.01171875 C5.50816406 11.62660156 5.47335937 12.24148438 5.4375 12.875 C3.515625 12.1015625 3.515625 12.1015625 1.4375 10.875 C0.1875 7.25 0.1875 7.25 -0.5625 3.875 C-3.5325 3.38 -3.5325 3.38 -6.5625 2.875 C-4.24957337 0.73340127 -3.21466444 -0.1568129 0 0 Z " fill="#E5EBD0" transform="translate(356.5625,475.125)"/>
<path d="M0 0 C0.33 0 0.66 0 1 0 C1.36630156 3.93774177 1.30233203 5.56539771 -1 8.875 C-1.66 9.57625 -2.32 10.2775 -3 11 C-3.99 10.67 -4.98 10.34 -6 10 C-5.34 8.68 -4.68 7.36 -4 6 C-5.32 6 -6.64 6 -8 6 C-7.34 4.68 -6.68 3.36 -6 2 C-4.02 2 -2.04 2 0 2 C0 1.34 0 0.68 0 0 Z " fill="#679746" transform="translate(206,388)"/>
<path d="M0 0 C0.66 0.33 1.32 0.66 2 1 C0.52907147 4.80127597 -1.40216428 6.2095802 -4.875 8.25 C-5.73867188 8.77078125 -6.60234375 9.2915625 -7.4921875 9.828125 C-10 11 -10 11 -14 11 C-14 10.01 -14 9.02 -14 8 C-13.24074219 7.59007812 -12.48148437 7.18015625 -11.69921875 6.7578125 C-10.70535156 6.21898437 -9.71148437 5.68015625 -8.6875 5.125 C-7.20830078 4.32449219 -7.20830078 4.32449219 -5.69921875 3.5078125 C-2.90413542 1.99277874 -2.90413542 1.99277874 0 0 Z " fill="#7FA760" transform="translate(435,167)"/>
<path d="M0 0 C1.32 0.33 2.64 0.66 4 1 C4.07347656 1.90492188 4.07347656 1.90492188 4.1484375 2.828125 C4.22320312 3.62734375 4.29796875 4.4265625 4.375 5.25 C4.44460938 6.03890625 4.51421875 6.8278125 4.5859375 7.640625 C5.01507113 10.085877 5.78600638 11.84836903 7 14 C6.01 14 5.02 14 4 14 C4 13.01 4 12.02 4 11 C3.34 11 2.68 11 2 11 C2 12.65 2 14.3 2 16 C1.67 16 1.34 16 1 16 C0.67 10.72 0.34 5.44 0 0 Z " fill="#87AC69" transform="translate(275,213)"/>
<path d="M0 0 C4.62 0 9.24 0 14 0 C13 3 13 3 10 5 C7.73168945 5.22705078 7.73168945 5.22705078 5.11328125 5.1953125 C4.17548828 5.18886719 3.23769531 5.18242187 2.27148438 5.17578125 C0.80678711 5.15064453 0.80678711 5.15064453 -0.6875 5.125 C-1.67556641 5.11597656 -2.66363281 5.10695313 -3.68164062 5.09765625 C-6.12133765 5.0740843 -8.56054697 5.04118022 -11 5 C-11 4.67 -11 4.34 -11 4 C-4.4 4 2.2 4 9 4 C9 3.34 9 2.68 9 2 C6.03 2 3.06 2 0 2 C0 1.34 0 0.68 0 0 Z " fill="#BFD1A7" transform="translate(326,318)"/>
<path d="M0 0 C2.125 0.375 2.125 0.375 4 1 C4.625 3.375 4.625 3.375 5 6 C4.34 6.66 3.68 7.32 3 8 C0.875 7.625 0.875 7.625 -1 7 C-1.625 4.625 -1.625 4.625 -2 2 C-1.34 1.34 -0.68 0.68 0 0 Z " fill="#6F9C4F" transform="translate(294,374)"/>
<path d="M0 0 C4.8274799 1.41292095 8.7162359 3.42974154 13 6 C12.67 6.99 12.34 7.98 12 9 C7.02790438 7.23570801 2.56561939 4.6060834 -2 2 C-1.34 1.34 -0.68 0.68 0 0 Z " fill="#7BA45C" transform="translate(357,170)"/>
<path d="M0 0 C4.75 0.875 4.75 0.875 7 2 C7.625 4.5625 7.625 4.5625 8 7 C7.01 7.66 6.02 8.32 5 9 C4.6596875 8.0409375 4.6596875 8.0409375 4.3125 7.0625 C3.14749104 4.72806339 3.14749104 4.72806339 0.375 4.25 C-0.40875 4.1675 -1.1925 4.085 -2 4 C-1.34 2.68 -0.68 1.36 0 0 Z " fill="#6D9B4D" transform="translate(374,190)"/>
<path d="M0 0 C1.67542976 0.28604898 3.34385343 0.61781233 5 1 C5.625 2.875 5.625 2.875 6 5 C5.34 5.66 4.68 6.32 4 7 C1.375 6.625 1.375 6.625 -1 6 C-1.042721 4.33388095 -1.04063832 2.66617115 -1 1 C-0.67 0.67 -0.34 0.34 0 0 Z " fill="#6B9A4B" transform="translate(304,375)"/>
<path d="M0 0 C1.875 1.3125 1.875 1.3125 3 3 C3 3.99 3 4.98 3 6 C1.68 6 0.36 6 -1 6 C-1 5.34 -1 4.68 -1 4 C-2.65 4 -4.3 4 -6 4 C-6 3.34 -6 2.68 -6 2 C-6.66 1.67 -7.32 1.34 -8 1 C-5.20129973 -0.39935013 -3.09501208 -0.25265405 0 0 Z " fill="#DEE6C9" transform="translate(271,474)"/>
<path d="M0 0 C1.66611905 -0.042721 3.33382885 -0.04063832 5 0 C6 1 6 1 6.125 3.5 C6 6 6 6 5 7 C3.33382885 7.04063832 1.66611905 7.042721 0 7 C0 4.69 0 2.38 0 0 Z " fill="#689847" transform="translate(202,437)"/>
<path d="M0 0 C3.81515142 1.49880948 5.94683782 3.44645008 8 7 C7.25 10.8125 7.25 10.8125 6 14 C5.67 14 5.34 14 5 14 C4.80664062 13.40832031 4.61328125 12.81664062 4.4140625 12.20703125 C3.05585281 8.0853355 1.67949415 4.0049476 0 0 Z " fill="#DBE4C5" transform="translate(291,263)"/>
<path d="M0 0 C0.66 0 1.32 0 2 0 C2.12117188 0.71027344 2.24234375 1.42054688 2.3671875 2.15234375 C2.53476562 3.07144531 2.70234375 3.99054688 2.875 4.9375 C3.03742188 5.85402344 3.19984375 6.77054688 3.3671875 7.71484375 C3.57601563 8.46894531 3.78484375 9.22304687 4 10 C4.66 10.33 5.32 10.66 6 11 C4.68 11 3.36 11 2 11 C1.67 12.32 1.34 13.64 1 15 C0.15318867 9.91913204 -0.09038099 5.15171623 0 0 Z " fill="#75A055" transform="translate(287,200)"/>
<path d="M0 0 C0.66 0 1.32 0 2 0 C2 0.99 2 1.98 2 3 C2.99 3 3.98 3 5 3 C5 3.99 5 4.98 5 6 C6.32 6.33 7.64 6.66 9 7 C8 8 8 8 5.0625 8.25 C4.051875 8.1675 3.04125 8.085 2 8 C-0.1519437 4.77208445 -0.20086443 3.71599191 0 0 Z " fill="#E1E8CA" transform="translate(192,389)"/>
<path d="M0 0 C0.598125 0.226875 1.19625 0.45375 1.8125 0.6875 C-0.1875 3.6875 -2.1875 6.6875 -4.1875 9.6875 C-5.52304084 3.25262141 -5.52304084 3.25262141 -4 0.6875 C-2.1875 -0.3125 -2.1875 -0.3125 0 0 Z " fill="#EEF1DA" transform="translate(375.1875,475.3125)"/>
<path d="M0 0 C1.65 0.33 3.3 0.66 5 1 C4.67 2.65 4.34 4.3 4 6 C2.35 5.67 0.7 5.34 -1 5 C-0.67 3.35 -0.34 1.7 0 0 Z " fill="#80A761" transform="translate(299,383)"/>
<path d="M0 0 C0.99 0 1.98 0 3 0 C2.62403791 2.78211944 2.32681541 4.5879284 0.5625 6.8125 C-1 8 -1 8 -3 8 C-3.99 8.495 -3.99 8.495 -5 9 C-3.76067171 5.56801397 -2.49698489 2.69674368 0 0 Z " fill="#75A056" transform="translate(287,216)"/>
<path d="M0 0 C0.66 0 1.32 0 2 0 C2.33 2.97 2.66 5.94 3 9 C1.68 9 0.36 9 -1 9 C-1.125 2.25 -1.125 2.25 0 0 Z " fill="#7FA660" transform="translate(441,440)"/>
<path d="M0 0 C4.29 0 8.58 0 13 0 C13 0.99 13 1.98 13 3 C6.07 2.505 6.07 2.505 -1 2 C-0.67 1.34 -0.34 0.68 0 0 Z " fill="#FAF9E8" transform="translate(348,355)"/>
<path d="M0 0 C1.485 0.99 1.485 0.99 3 2 C3.1875 5.125 3.1875 5.125 3 8 C1.68 8 0.36 8 -1 8 C-1.125 2.25 -1.125 2.25 0 0 Z " fill="#79A35A" transform="translate(274,441)"/>
<path d="M0 0 C0.66 0 1.32 0 2 0 C2.33 2.97 2.66 5.94 3 9 C1.68 9 0.36 9 -1 9 C-0.67 6.03 -0.34 3.06 0 0 Z " fill="#7AA35B" transform="translate(364,440)"/>
<path d="M0 0 C2.97 0 5.94 0 9 0 C9 0.99 9 1.98 9 3 C6.03 3 3.06 3 0 3 C0 2.01 0 1.02 0 0 Z " fill="#D4DFBC" transform="translate(348,392)"/>
<path d="M0 0 C1.65 0 3.3 0 5 0 C5 0.66 5 1.32 5 2 C6.32 2 7.64 2 9 2 C9.33 1.34 9.66 0.68 10 0 C10 0.99 10 1.98 10 3 C5.545 3.495 5.545 3.495 1 4 C0.67 2.68 0.34 1.36 0 0 Z " fill="#7CA55D" transform="translate(265,478)"/>
<path d="M0 0 C0.66 0.33 1.32 0.66 2 1 C-1.63 4.63 -5.26 8.26 -9 12 C-9 8.00102358 -7.64683965 6.93298448 -5 4 C-3.36643049 2.62631655 -1.7074998 1.28062485 0 0 Z " fill="#7AA35B" transform="translate(205,277)"/>
<path d="M0 0 C0.66 0 1.32 0 2 0 C2 1.98 2 3.96 2 6 C0.02 6 -1.96 6 -4 6 C-2.84826645 3.53199953 -1.95216435 1.95216435 0 0 Z " fill="#639441" transform="translate(405,227)"/>
<path d="M0 0 C1.485 0.99 1.485 0.99 3 2 C2.67 6.95 2.34 11.9 2 17 C1.67 17 1.34 17 1 17 C0.67 11.39 0.34 5.78 0 0 Z " fill="#9DBB81" transform="translate(190,310)"/>
<path d="M0 0 C1.98 0.99 1.98 0.99 4 2 C3.40138258 4.35171131 2.73075648 6.6859378 2 9 C1.01 9.495 1.01 9.495 0 10 C0 6.7 0 3.4 0 0 Z " fill="#90B273" transform="translate(325,483)"/>
<path d="M0 0 C0.66 0 1.32 0 2 0 C2 2.97 2 5.94 2 9 C1.67 9 1.34 9 1 9 C0.67 7.35 0.34 5.7 0 4 C-0.66 4.66 -1.32 5.32 -2 6 C-3.32 6 -4.64 6 -6 6 C-5 4 -5 4 -2 3 C-1.34 2.01 -0.68 1.02 0 0 Z " fill="#8AAE6B" transform="translate(295,484)"/>
<path d="M0 0 C0 0.99 0 1.98 0 3 C-1.65 2.67 -3.3 2.34 -5 2 C-5 1.34 -5 0.68 -5 0 C-5.99 -0.33 -6.98 -0.66 -8 -1 C-4.37673261 -2.2077558 -3.35853631 -1.54311128 0 0 Z " fill="#749F54" transform="translate(270,487)"/>
<path d="M0 0 C0.33 0 0.66 0 1 0 C1 3.63 1 7.26 1 11 C0.01 11 -0.98 11 -2 11 C-1.85957123 9.35369672 -1.71250671 7.70795821 -1.5625 6.0625 C-1.48128906 5.14597656 -1.40007812 4.22945313 -1.31640625 3.28515625 C-1 1 -1 1 0 0 Z " fill="#F6F6E3" transform="translate(324,482)"/>
<path d="M0 0 C0.99 0.66 1.98 1.32 3 2 C1.68 4.64 0.36 7.28 -1 10 C-1.66 10 -2.32 10 -3 10 C-2.39009109 6.44219804 -1.4216319 3.3171411 0 0 Z " fill="#E0E7C9" transform="translate(269,323)"/>
<path d="M0 0 C0.66 0.33 1.32 0.66 2 1 C-0.64 3.64 -3.28 6.28 -6 9 C-6.33 8.01 -6.66 7.02 -7 6 C-4.69 4.02 -2.38 2.04 0 0 Z " fill="#7FA760" transform="translate(197,377)"/>
<path d="M0 0 C0.66 0 1.32 0 2 0 C1.68289063 0.52078125 1.36578125 1.0415625 1.0390625 1.578125 C-0.28920511 4.67408709 -0.42364247 7.39404121 -0.625 10.75 C-0.69976562 11.92046875 -0.77453125 13.0909375 -0.8515625 14.296875 C-0.90054687 15.18890625 -0.94953125 16.0809375 -1 17 C-1.33 17 -1.66 17 -2 17 C-2.05398987 14.72942623 -2.09278742 12.45848712 -2.125 10.1875 C-2.14820313 8.92292969 -2.17140625 7.65835937 -2.1953125 6.35546875 C-2 3 -2 3 0 0 Z " fill="#81A862" transform="translate(329,359)"/>
<path d="M0 0 C-0.33 1.65 -0.66 3.3 -1 5 C-2.32 5.33 -3.64 5.66 -5 6 C-5 4.35 -5 2.7 -5 1 C-2 0 -2 0 0 0 Z " fill="#ECEFD7" transform="translate(318,385)"/>
<path d="M0 0 C0.33 0.99 0.66 1.98 1 3 C1.66 3.33 2.32 3.66 3 4 C1.71937515 5.7074998 0.38232443 7.37373596 -1 9 C-1.66 9 -2.32 9 -3 9 C-2.01 6.03 -1.02 3.06 0 0 Z " fill="#74A055" transform="translate(277,229)"/>
<path d="M0 0 C-0.33 0.99 -0.66 1.98 -1 3 C-3.5625 4.1875 -3.5625 4.1875 -6 5 C-6.33 3.68 -6.66 2.36 -7 1 C-2.25 0 -2.25 0 0 0 Z " fill="#76A156" transform="translate(428,174)"/>
<path d="M0 0 C0.66 0.33 1.32 0.66 2 1 C0.5459375 2.3303125 0.5459375 2.3303125 -0.9375 3.6875 C-3.60122242 6.32615209 -4.7731363 8.14331715 -5 12 C-5.33 12 -5.66 12 -6 12 C-6.375 8.8125 -6.375 8.8125 -6 5 C-4.18811972 2.8596502 -2.34198833 1.61011698 0 0 Z " fill="#DAE3C3" transform="translate(233,151)"/>
<path d="M0 0 C0.66 0.33 1.32 0.66 2 1 C-0.64 3.64 -3.28 6.28 -6 9 C-6 5.06368636 -4.57142871 3.87394974 -2 1 C-1.34 0.67 -0.68 0.34 0 0 Z " fill="#E3E9CD" transform="translate(357,132)"/>
<path d="M0 0 C0.66 0.33 1.32 0.66 2 1 C0.68 2.65 -0.64 4.3 -2 6 C-0.68 6.33 0.64 6.66 2 7 C0.35 7 -1.3 7 -3 7 C-3.33 5.68 -3.66 4.36 -4 3 C-2.68 2.01 -1.36 1.02 0 0 Z " fill="#81A863" transform="translate(403,227)"/>
<path d="M0 0 C0.66 0 1.32 0 2 0 C2 3.3 2 6.6 2 10 C1.67 10 1.34 10 1 10 C0.67 8.35 0.34 6.7 0 5 C-0.99 5.495 -0.99 5.495 -2 6 C-1.34 4.02 -0.68 2.04 0 0 Z " fill="#84AA66" transform="translate(226,483)"/>
<path d="M0 0 C0.33 0.66 0.66 1.32 1 2 C5.455 1.505 5.455 1.505 10 1 C9.67 1.99 9.34 2.98 9 4 C6.03 3.67 3.06 3.34 0 3 C0 2.01 0 1.02 0 0 Z " fill="#82A963" transform="translate(297,207)"/>
<path d="M0 0 C2.97 0.495 2.97 0.495 6 1 C4.68 1.33 3.36 1.66 2 2 C2 2.66 2 3.32 2 4 C3.98 4 5.96 4 8 4 C8 4.33 8 4.66 8 5 C5.69 5 3.38 5 1 5 C0.67 3.35 0.34 1.7 0 0 Z " fill="#A0BC84" transform="translate(372,199)"/>
<path d="M0 0 C0.66 0 1.32 0 2 0 C2.33 1.98 2.66 3.96 3 6 C1.68 6 0.36 6 -1 6 C-0.67 4.02 -0.34 2.04 0 0 Z " fill="#7DA65E" transform="translate(246,480)"/>
<path d="M0 0 C0.33 0.66 0.66 1.32 1 2 C4.63 2 8.26 2 12 2 C12 2.33 12 2.66 12 3 C5.565 3.495 5.565 3.495 -1 4 C-0.67 2.68 -0.34 1.36 0 0 Z " fill="#C8D8B1" transform="translate(287,222)"/>
</svg>
